<!DOCTYPE svg PUBLIC "-//W3C//DTD SVG 1.1//EN" "http://www.w3.org/Graphics/SVG/1.1/DTD/svg11.dtd" [
	<!ENTITY ns_flows "http://ns.adobe.com/Flows/1.0/">
]><svg xmlns="http://www.w3.org/2000/svg" xmlns:xlink="http://www.w3.org/1999/xlink" width="2502" height="774" viewBox="0 0 2502 774"><defs><symbol id="a" viewBox="-140.4 -47.1 280.9 94.2"><path fill-rule="evenodd" clip-rule="evenodd" fill="#CBE3E8" d="M140.4-47.1h-280.9s11.4 17 51.1 13.8c-14.7 14.7-12 22.6 2.1 22.9-2.4 15.5 25.2 89.5 86.6 41.6 7.9 21.8 56.9 24.4 55.1-12.6 27.9 6.2 51.7-12 37.6-42.3 11.4-.3 23.8-4.1 16.7-13.2 22.6 2.1 31.7-10.2 31.7-10.2z"/></symbol><symbol id="c" viewBox="-119.1 -50.8 238.1 101.6"><path fill-rule="evenodd" clip-rule="evenodd" fill="#CAE3E8" d="M119.1-50.8h-238.1s28 16.9 40.2 15.3c-14.9 28.1 28 70.5 49.7 33.9-1.1 52.9 78.8 86.8 87.3-4.8 15.3 3.2 19-13.2 3.2-32.8 26.4-1 57.7-11.6 57.7-11.6z"/></symbol><symbol id="d" viewBox="-93.5 -43.8 187 87.6"><path fill-rule="evenodd" clip-rule="evenodd" fill="#CBE3E8" d="M-93.5-43.8h187s-14.3 4.1-24.1 3.2c6.9 9.2 6 32.2-8.5 22.5 10.7 25.8-21 45.6-30.4 16.4-8.3 49-147.2 77.5-92.2-16.3-12.4 2.3-12.7-5.3-8.3-10.6-5.5.7-8.7-4.1-1.6-10.6-6.5-.4-21.9-4.6-21.9-4.6z"/></symbol><symbol id="b" viewBox="-167.6 -47.1 335.2 94.2"><path fill-rule="evenodd" clip-rule="evenodd" fill="#CBE3E8" d="M-167.6-47.1h334.9s6.8 17-41.8 13.8c18 14.7 14.8 22.6-2.5 22.9 2.9 15.6-31 89.5-106.3 41.7-9.8 21.7-49 24.3-46.8-12.7-34.2 6.2-63.4-12-46.1-42.3-30.5 6.8-61.1-4.1-52.5-13.2-27.8 2.1-38.9-10.2-38.9-10.2z"/></symbol></defs><use xlink:href="#a" width="280.9" height="94.2" x="-140.4" y="-47.1" transform="matrix(1.513 0 0 -1.513 936.295 245.691)" overflow="visible"/><use xlink:href="#a" width="280.9" height="94.2" x="-140.4" y="-47.1" transform="matrix(1.513 0 0 -1.513 340.295 535.691)" overflow="visible"/><use xlink:href="#b" width="335.2" height="94.2" x="-167.6" y="-47.1" transform="matrix(.797 0 0 -.797 1475.166 468.527)" overflow="visible"/><use xlink:href="#c" width="238.1" height="101.6" x="-119.1" y="-50.8" transform="matrix(1.657 0 0 -1.657 2271.07 472.131)" overflow="visible"/><use xlink:href="#a" width="280.9" height="94.2" x="-140.4" y="-47.1" transform="matrix(.477 0 0 -.477 1756.931 701.477)" overflow="visible"/><use xlink:href="#a" width="280.9" height="94.2" x="-140.4" y="-47.1" transform="matrix(.477 0 0 -.477 66.931 525.477)" overflow="visible"/><use xlink:href="#b" width="335.2" height="94.2" x="-167.6" y="-47.1" transform="matrix(.254 0 0 -.254 1584.601 684.993)" overflow="visible"/><use xlink:href="#b" width="335.2" height="94.2" x="-167.6" y="-47.1" transform="matrix(.254 0 0 -.254 2375.771 613.956)" overflow="visible"/><use xlink:href="#b" width="335.2" height="94.2" x="-167.6" y="-47.1" transform="matrix(.481 0 0 -.481 1025.633 542.686)" overflow="visible"/><use xlink:href="#d" width="187" height="87.6" x="-93.5" y="-43.8" transform="matrix(.731 0 0 -.731 1705.336 209.023)" overflow="visible"/><use xlink:href="#d" width="187" height="87.6" x="-93.5" y="-43.8" transform="matrix(.731 0 0 -.731 606.66 32.008)" overflow="visible"/><use xlink:href="#c" width="238.1" height="101.6" x="-119.1" y="-50.8" transform="matrix(.483 0 0 -.483 679.569 689.465)" overflow="visible"/></svg>