<!DOCTYPE svg PUBLIC "-//W3C//DTD SVG 1.1//EN" "http://www.w3.org/Graphics/SVG/1.1/DTD/svg11.dtd" [
	<!ENTITY ns_flows "http://ns.adobe.com/Flows/1.0/">
]><svg xmlns="http://www.w3.org/2000/svg" width="1680" height="900" viewBox="0 0 1680 900"><rect fill="#6D6044" width="1680" height="900"/><path fill="#7D6842" d="M1658.3 256l-89.3-1.5-66.9-4.5c-45.4-2.2-90-3-135.4-4.5-45.4-1.5-89.3-7.5-134.6-11.2-4.5 0-8.2-2.2-12.6-3.7 21.6-18.7 49.8-16.5 75.9-18 128.8-7.9 256.7-3.7 384.7-5.5v-30.9c-25.3-.6-50.8-.7-76 .5-198.6 9.7-396.5 11.2-595 15.7-39.4.7-78.8-2.2-119-5.2-33.5-2.2-66.2-1.5-99.7 0-117.5 4.5-235 4.5-352.6 7.5-61 .7-122-5.2-183-5.2-85.2 0-169.8 7.8-254.7 13.6v210.7c13.9-.5 28.1-.8 42-1.8 136.1-9 271.5-4.5 407.6-10.5 43.9-2.2 87-6 130.9-7.5 57.3-2.2 115.3 1.5 172.6-2.2l62.5-2.2 351.1-3.7c171-2.2 342.1-3.6 513.4-1v-127c-7.4-.8-14.7-1.3-21.9-1.9z"/><path fill="#7D6842" d="M1054.5 77.5c-42.4 1.5-88.4-.7-123.5 18 7.3 1.5 13.3 3.7 20.6 3.7 73.8 3.7 145.3 9.7 219.1 11.2 73.9 1.5 146.5 2.2 220.3 4.5 36.3 1.5 72.6 3 109 4.5 48.4 2.2 96.9-.8 145.3 1.5 11.7.6 23 1.2 34.7 1.7v-50.6c-208.4 1.8-415.8-2.4-625.5 5.5z"/><path fill="#7D6842" d="M631.9 117.1c42.4-1.5 88.4.7 123.5-18-7.3-1.5-13.3-3.7-20.6-3.7-73.8-3.7-145.3-9.7-219.1-11.2-73.9-1.5-146.5-2.2-220.3-4.5-36.3-1.5-72.6-3-109-4.5-48.4-2.2-96.9.8-145.3-1.5-11.7-.7-29.4-1.3-41.1-1.7v50.6c208.4-1.8 422.2 2.3 631.9-5.5z"/><path fill="#7D6842" d="M1117.1 588.3c-165.1 5.2-329.4-8.2-495.2 2.2-33.5 2.2-66.2 4.5-99.6 6-174.4 6.3-348.6-.4-522.3 12.5v83.6c192.7 3.3 385.3-7.6 578.8 4.3 3.7.8 7.4 9 5.9 9.7-182.9 23.2-362.8 27-544.2 29.2-13.3.3-27.1 1-40.6 1.8v121.1h1680v-284.5c-187.9 12.4-375.4 8.2-562.8 14.1z"/><path fill="#7D6842" d="M1552.7 427.6c-67.7 3-135.4-.7-203.1 6-46.6 4.5-91 10.5-138.4 19.5-30.1 6-56.4 14.2-82 31.5-15 10.5-9.8 30 8.3 35.2 18.1 5.2 33.9 10.5 51.9 15 45.1 9.7 88 9 132.4 9.7 119.6 3.9 238.5 5.7 358.3 13.5v-137.2c-42.4.9-84.8 4.8-127.4 6.8z"/><polygon fill-rule="evenodd" clip-rule="evenodd" fill="#6D6044" points="1142,638.3 901,636.8 980.3,648.8"/><polygon fill-rule="evenodd" clip-rule="evenodd" fill="#6D6044" points="1152,722.3 1609.9,723.8 1302.7,734.3"/><polygon fill-rule="evenodd" clip-rule="evenodd" fill="#6D6044" points="473,734.3 752.9,735.8 565.1,746.3"/><polygon fill-rule="evenodd" clip-rule="evenodd" fill="#7D6842" points="369,451.3 648.9,452.8 461.1,463.3"/><polygon fill-rule="evenodd" clip-rule="evenodd" fill="#7D6842" points="67,40.3 346.9,41.8 159.1,52.3"/><polygon fill-rule="evenodd" clip-rule="evenodd" fill="#6D6044" points="1502.7,318.8 1392,318.8 1429.4,326.3"/><polygon fill-rule="evenodd" clip-rule="evenodd" fill="#6D6044" points="674.5,290.3 563.7,290.3 601.2,297.8"/><polygon fill-rule="evenodd" clip-rule="evenodd" fill="#7D6842" points="294.4,126.8 406.6,126.8 315.3,132.8"/><path fill="#6D6044" d="M151.6 354.2c54.6-6.2 106.9-6.2 162.7-29.6 1.5-.8 5.7-3.9 4.2-5.4-7.6-8.6-16.8-12.5-25.6-13.2-97.9-14.1-195.4-14.8-292.9-9.4v67.7c50.4.9 101-4.3 151.6-10.1z"/><path fill="#7D6842" d="M225.1 537.6c13.4-2.2 25.3-3 37.9-4.5 20.1-3 38.7-4.5 58.8-6.7 6.7-1.5 13.4-.8 20.1-2.2 37.2-5.2 73.6-8.2 108.6-21 .7-15.7-19.3-16.5-30.5-18.7-48.3-9.7-93.7-9.7-141.3-14.2l-22.3-2.2c-52.8-3.7-105.6-1.5-158.4-4.5-8.2-.8-17.9-1.5-26-1.5-23.3-1-48.6-2.6-71.9-3.7v93.4c67.6-.6 136.5-3.2 205-12.6 6.6-.9 13.3-.1 20-1.6z"/><polygon fill-rule="evenodd" clip-rule="evenodd" fill="#6D6044" points="330.5,502.7 89.6,501.2 168.9,513.2"/><polygon fill-rule="evenodd" clip-rule="evenodd" fill="#7D6842" points="1391.6,39.7 1632.5,41.2 1553.2,29.2"/><polygon fill-rule="evenodd" clip-rule="evenodd" fill="#6D6044" points="1618.5,504.7 1377.6,503.2 1456.9,515.2"/><polygon fill-rule="evenodd" clip-rule="evenodd" fill="#6D6044" points="1269.6,497.7 1339.5,499.2 1316.5,487.2"/></svg>