<!DOCTYPE svg PUBLIC "-//W3C//DTD SVG 1.1//EN" "http://www.w3.org/Graphics/SVG/1.1/DTD/svg11.dtd" [
	<!ENTITY ns_flows "http://ns.adobe.com/Flows/1.0/">
]><svg xmlns="http://www.w3.org/2000/svg" xmlns:xlink="http://www.w3.org/1999/xlink" width="1680" height="333" viewBox="-0.3 -0.1 1680 333" enable-background="new -0.3 -0.1 1680 333"><defs><symbol id="a" viewBox="-840 -166.7 1680 333.4"><path fill="#AFBB90" d="M840 47.3c-25.8-3.4-150 24.2-271 89.2s-145.1 6.2-258.3-43.1c-24.7-15.1-38.7 21.3-86.3 15.1s-54.9-49.9-102-54.3c-47-4.5-149.5 100.3-292.4 81.8-142.9-18.5-119.3-58.8-270-77.3s-142.3 51.5-218.5 57.1c-76.2 5.6-131.1-61.8-181.5-68.5v-214h1680v214z"/><path fill="#E9E8D7" d="M-774.5 75.3c-3.5-1.3-.6 5.6 20.7 17.4s50.4 24.7 87.4 24.7 59.4-16.8 77.3-30.3c9-5.6 7.8-15.7-8.4-11.8-16.2 3.9-29.7 12.9-35.9 3.4-6.2-9.5-3.4-28-26.9-26.9-23.5 1.1-14.6 16.8-21.8 24.1-7.3 7.3-18.5-.6-32.5-9.5-14-9-35.9 0-32.5 8.4 3.5 8.4-16.7 4.5-27.4.5z"/><path fill="#E9E8D7" d="M-276.4 110.6c28.4 10.9 93 31.4 145.7 29.7 52.7-1.7 93.6-17.4 118.2-26.3 24.6-9-1.1-13.4-16.2-12.3-15.1 1.1-35.9 5.6-42-11.8-6.2-17.4-38.1-8.4-53.8 0-15.7 8.4-19 19-39.8 9-20.8-10-63.3-14.6-54.3-1.7s-.6 12.3-20.7 6.7c-20.3-5.6-59-1.7-37.1 6.7z"/><path fill="#E9E8D7" d="M178.5 87.1c3.4 5.4 24.1 21.3 48.2 22.4 24.1 1.1 35.3-4.5 44.8-9s-2.2-6.2-9-5c-6.7 1.1-13.4 6.2-20.2.6-6.7-5.6-2.8-17.4-12.9-12.9s-10.1 9.5-15.7 5-14.9-2.9-16.8 1.7c-2.7 6.7-24-11.7-18.4-2.8z"/><path fill="#E9E8D7" d="M388 136.4c14.7 12.5 52.7 30.3 88 30.3s60.5-11.8 77.3-19c16.8-7.3 17.4-16.2-3.4-12.3-20.7 3.9-35.9-1.7-37.5-12.3-1.6-10.6-40.9-14-38.7 4.5 0 0-19.6-5-15.1 5.6 4.5 10.6-6.2 14-19 3.4-12.9-10.6-26.9-10.1-25.2-2.8 1.6 7.1-40.9-9.7-26.4 2.6z"/></symbol></defs><use xlink:href="#a" width="1680" height="333.4" x="-840" y="-166.7" transform="matrix(1 0 0 -1 839.747 166.65)" overflow="visible"/></svg>