<!DOCTYPE svg PUBLIC "-//W3C//DTD SVG 1.1//EN" "http://www.w3.org/Graphics/SVG/1.1/DTD/svg11.dtd" [
	<!ENTITY ns_flows "http://ns.adobe.com/Flows/1.0/">
]><svg xmlns="http://www.w3.org/2000/svg" xmlns:xlink="http://www.w3.org/1999/xlink" width="3000" height="703" viewBox="0 0 3000 703"><defs><symbol id="d" viewBox="-43 -56.8 86 113.6"><g fill-rule="evenodd" clip-rule="evenodd"><path opacity=".2" fill="#231F20" d="M-4.5-43.2c0 1.7-8.5 3.1-19.1 3.1-10.5 0-19.1-1.4-19.1-3.1 0-1.7 8.5-3.1 19.1-3.1 10.5 0 19.1 1.4 19.1 3.1z"/><polygon fill="#58522B" points="-25.3,35 -39.6,-16 -9.6,-16"/><polygon fill="#AA702F" points="-25,17.9 -26.5,6 -30.4,6 -27.2,4.3 -27.1,-8.3 -33.4,-9.3 -30,-10.7 -30,-43 -24,-43 -25.8,-10.8 -15.3,-5.9 -25.3,-7.5 -25.8,4.8 -19.5,7.4 -25,6.6"/></g><g fill-rule="evenodd" clip-rule="evenodd"><path opacity=".2" fill="#231F20" d="M34.8-53.4c0 1.9-8 3.4-17.8 3.4-9.9 0-17.8-1.5-17.8-3.4s8-3.4 17.8-3.4 17.8 1.5 17.8 3.4z"/><path fill="#676033" d="M14.8 56.8s-35.2-79.9-34.3-79.6c.9.3 62.3 1.8 62.3 1.8l-28 77.8z"/><polygon fill="#AA702F" points="13,37.1 11.6,2 -1.8,2 10,-0.3 10,-11.9 -12.5,-16.9 9.7,-15.3 7.7,-54 11,-54 11,-15.4 28.2,-10.4 13.9,-11.9 11.6,-1.5 22.2,6.8 13.6,3.6"/></g></symbol><symbol id="e" viewBox="-39 -70.2 78 140.4"><path opacity=".2" fill-rule="evenodd" clip-rule="evenodd" fill="#231F20" d="M28.7-65.9c0 2.4-9.9 4.3-22.1 4.3-12.2 0-22.1-1.9-22.1-4.3s9.9-4.3 22.1-4.3c12.2 0 22.1 1.9 22.1 4.3z"/><g fill-rule="evenodd" clip-rule="evenodd"><path fill="#676033" d="M4 70.2s-43.5-98.8-42.4-98.4c1.1.4 77 2.2 77 2.2l-34.6 96.2z"/><polygon fill="#AA702F" points="1.8,45.6 0,2 -16.5,2 -2,-0.4 -2,-14.7 -29.7,-20.9 -2.3,-19.1 -4.8,-67 -1,-67 -1,-19.1 20.4,-12.8 2.9,-14.7 0,-1.9 13.1,8.4 2.5,4.3"/></g></symbol><symbol id="f" viewBox="-66 -70.2 132 140.4"><g fill-rule="evenodd" clip-rule="evenodd"><path opacity=".2" fill="#231F20" d="M-33-6c0 1.1-4.8 2.1-10.6 2.1-5.9 0-10.6-.9-10.6-2.1 0-1.1 4.8-2.1 10.6-2.1 5.9.1 10.6 1 10.6 2.1z"/><path fill="#58522B" d="M-44.9 59.5s-21-47.5-20.4-47.4c.5.2 37 1.1 37 1.1l-16.6 46.3z"/><polygon fill="#AA702F" points="-45.9,47.9 -46.8,27 -54.7,27 -48,25.6 -48,18.7 -61.2,15.7 -47.9,16.8 -49.1,-6 -47,-6 -47,16.6 -36.8,19.6 -45.3,18.7 -46.8,24.9 -40.5,29.8 -45.6,27.9"/></g><g fill-rule="evenodd" clip-rule="evenodd"><path opacity=".2" fill="#231F20" d="M65.3-56.8c0 2.3-11.8 4.2-26.4 4.2s-26.4-1.9-26.4-4.2 11.9-4.2 26.4-4.2 26.4 1.9 26.4 4.2z"/><polygon fill="#58522B" points="36.6,51.4 16.9,-19 58.3,-19"/><polygon fill="#AA702F" points="37,27.6 34.9,11 29.6,11 34,8.8 34.2,-8.7 25.4,-10 30,-11.8 30,-56 38.4,-56 35.9,-11.8 50.4,-5.2 36.6,-7.4 35.9,9.5 44.6,13.2 37,12.1"/></g><g fill-rule="evenodd" clip-rule="evenodd"><path opacity=".2" fill="#231F20" d="M14.7-65.9c0 2.4-9.9 4.3-22.1 4.3-12.2 0-22.1-1.9-22.1-4.3s9.9-4.3 22.1-4.3c12.3 0 22.1 1.9 22.1 4.3z"/><path fill="#676033" d="M-10 70.2s-43.5-98.8-42.4-98.4l77 2.2-34.6 96.2z"/><polygon fill="#AA702F" points="-12.2,45.6 -14,2 -30.5,2 -16,-0.4 -16,-14.7 -43.7,-20.9 -16.3,-19.1 -18.8,-67 -15,-67 -15,-19.1 6.4,-12.8 -11.1,-14.7 -14,-1.9 -0.9,8.4 -11.5,4.3"/></g></symbol></defs><linearGradient id="a" gradientUnits="userSpaceOnUse" x1="2895.014" y1="288" x2="2895.014" y2="124.001"><stop offset="0" stop-color="#AAAE6C"/><stop offset=".663" stop-color="#90914F"/></linearGradient><path fill-rule="evenodd" clip-rule="evenodd" fill="url(#a)" d="M2915.9 232h-8.2l-11.6-11.8 13-13.2h2.9l3.9 25zm-21-28v-9.3l10.8 9.3h-10.8zm12.2 3l-12.2 11.8v-11.8h12.2zm-13.2-3h-9.3l9.3-9.3v9.3zm0 3v11.8l-10.8-11.8h10.8zm1 15.1l10.8 9.9h-10.8v-9.9zm-1 9.9h-9.3l9.3-10v10zm17.6-28h-3.8l-11.5-11.1 11.7-11.5 3.6 22.6zm-8.6-53l4.1 28.7-12.2 11.8v-40.5h8.1zm-9 0v40.5l-11.4-11.8 4.9-28.7h6.5zm-11.5 30.5l11.7 11.3-11.5 11.2h-3.8l3.6-22.5zm-4.2 25.5h2.9l13 13.2-11.5 11.8h-8.2l3.8-25zm15.7 81v-53h-20.2l-8.4 53-2.3-.8 8.6-52.2h-6.6v-3h7.3l3.9-25h-5.1v-3h5.7l4-24.5-.3-.2.4-.6 4.5-27.8h-5.2v-3h14v-6h-2v-6h2v-5h-2v-7h7v7h-4v5h4v6h-4v6h16v3h-5.8l4.5 27.8.4.7-.3.2 4 24.4h6.2v3h-5.7l3.9 25h7.8v3h-7.1l8.4 52h-2.1l-8.4-52h-21.7v53h-1.4"/><linearGradient id="b" gradientUnits="userSpaceOnUse" x1="1004.033" y1="238" x2="1004.033" y2="87.201"><stop offset="0" stop-color="#AAAE6C"/><stop offset=".663" stop-color="#90914F"/></linearGradient><path fill-rule="evenodd" clip-rule="evenodd" fill="url(#b)" d="M1000.6 238l-8-110.1 9.4 19.5 3-1.5-10.4-21.9-.9.4-1.6-3.3-.1-1.9 4.9 1.7-.4 1 22.8 8.1 1.1-3.2-22.8-8.1-.3.4-5-2.2h56.6v-7.6l-28.3 7.6h-28.2l4.6-2.1.5 1.1 21.8-10.4-1.4-3-21.9 10.5.4.9-5.6 2.7 2-5.8 1 .4 8.1-22.8-3.2-1.1-8.1 22.8.9.3-2 5.8-2.7-5.5 1-.5-10.4-21.8-3 1.4 10.4 21.8.9-.4 2.7 5.5-5.8-2 .4-1-22.8-8.1-1.1 3.2 22.8 8.1.3-.9 5.8 2-5.5 2.7-.5-1-21.7 10.3 1.4 3 21.8-10.4-.4-.9 5.6-2.7-2 5.8-1-.4-8.1 22.8 3.2 1.1 7.8-21.8-2.6 111.5h14.6zm-11.7-65h5.7l2.5 34h-8.9l.7-34zm0-1l1.2-52 .7 1.5 3.7 50.5h-5.6zm-1-46.7l.8-2.2-.1 2.5-.7-.3zm4.7-.3l-.2.1v-.5l.2.4z"/><linearGradient id="c" gradientUnits="userSpaceOnUse" x1="1094.802" y1="261" x2="1094.802" y2="128.55"><stop offset="0" stop-color="#AAAE6C"/><stop offset=".663" stop-color="#90914F"/></linearGradient><path fill-rule="evenodd" clip-rule="evenodd" fill="url(#c)" d="M1092.3 261l-7.1-96.9 8.3 17.4 2.7-1.3-9.2-19.2-.8.4-1.4-2.9-.1-1.7 4.3 1.5-.3.9 20.1 7.1 1-2.8-20.1-7.1-.3.5-4.4-1.9h49v-6.9l-24 5.9h-25l4-1.5.4 1.1 19.2-9-1.3-2.6-19.2 9.2.4.8-4.9 2.4 1.8-5.1.9.3 7.1-20.1-2.8-1-7.1 20.1.8.3-1.8 5.2-2.4-4.9.9-.4-9.2-19.2-2.7 1.3 9.2 19.2.8-.4 2.4 4.9-5.1-1.8.3-.9-20.1-7.1-1 2.8 20.1 7.1.3-.8 5.2 1.8-4.9 2.4-.4-.9-19.2 9.2 1.3 2.7 19.2-9.2-.4-.8 4.9-2.4-1.8 5.1-.9-.3-7.1 20.1 2.8 1 6.9-19.5-2.2 98h12.9zm-10.4-57h5l2.2 30h-7.9l.7-30zm0-2l1-45.2.6 1 3.2 44.2h-4.8zm-.9-39.9l.7-1.9v2.2l-.7-.3zm-.4 98.9l.6-26h7.9l1.9 26h-10.4zm4.6-99.1l-.2.1v-.5l.2.4z"/><path fill-rule="evenodd" clip-rule="evenodd" fill="#AAAE6C" d="M0 266.8c105.6 4.9 686.2 2.7 1563.3-19.9 755.1-19.5 1270.3 5.8 1436.6 19.9v436.2h-2999.9v-436.2z"/><path fill-rule="evenodd" clip-rule="evenodd" fill="#97984C" d="M2999.9 290.2c-105.4 6.2-675.8 15.2-1550.8-13.4-753.5-24.6-1283.2-4.5-1449.1 13.4v412.8h2999.9v-412.8z"/><path fill-rule="evenodd" clip-rule="evenodd" fill="#BBB661" d="M0 343.9c105-10.7 393.6-14.6 590.9-13.6 197.3 1 647.2 11.7 764.8 10.7 117.6-1 1023.3-1 1219.6 1l196.3 1.9h228.3v359.1h-2999.9v-359.1z"/><polygon opacity=".2" fill="#231F20" points="905.9,314 889.4,317.1 887.5,332.7 1076,332.2 1071.6,316.4"/><rect x="905.9" y="197" fill="#ED9587" width="147" height="120"/><rect x="905.9" y="233" fill="#E8806B" width="147" height="84"/><rect x="914.9" y="194" fill="#231F20" width="17" height="39"/><rect x="951.9" y="194" fill="#231F20" width="18" height="39"/><rect x="988.9" y="194" fill="#231F20" width="18" height="39"/><rect x="1025.9" y="194" fill="#231F20" width="18" height="39"/><rect x="912.9" y="247" fill="#FFF6C8" width="25" height="40"/><rect x="916.9" y="251" fill="#204445" width="17" height="32"/><rect x="916.9" y="251" fill="#396770" width="9" height="32"/><rect x="1021.9" y="247" fill="#FFF6C8" width="25" height="40"/><rect x="1024.9" y="251" fill="#204445" width="18" height="32"/><rect x="1024.9" y="251" fill="#396770" width="8" height="32"/><rect x="942.9" y="242" fill="#204445" width="73" height="75"/><rect x="947.9" y="247" fill="#FFF6C8" width="62" height="70"/><rect x="977.9" y="247" opacity=".2" fill="#231F20" width="3" height="70"/><rect x="953.9" y="253" fill="#204445" width="17" height="29"/><polygon fill="#396770" points="960.6,282 953.9,282 953.9,253 970.6,253"/><rect x="986.9" y="253" fill="#204445" width="17" height="29"/><polygon fill="#396770" points="993.9,282 986.9,282 986.9,253 1003.9,253"/><rect x="899.9" y="312" fill="#79542C" width="158" height="6"/><rect x="895.9" y="317" fill="#4F473C" width="166" height="8"/><polygon opacity=".2" fill="#231F20" points="1052.9,255 905.9,244.9 905.9,233 1052.9,233"/><rect x="895.9" y="226" fill="#4F473C" width="166" height="11"/><polygon opacity=".2" fill="#231F20" points="1052.9,215.6 905.9,205.6 905.9,195 1052.9,195"/><rect x="899.9" y="186" fill="#4F473C" width="160" height="13"/><polygon opacity=".3" fill="#979337" points="1053.1,237.1 1061.8,237.1 1061.8,225.7 1053.1,225.7 1053.1,215.6 1053.1,199.1 1059.1,199.1 1059.1,185.7 900.4,185.7 900.4,199.1 906.4,199.1 906.4,205.6 906.4,225.7 896.4,225.7 896.4,237.1 906.4,237.1 906.4,244.9 906.4,312.4 900.4,312.4 900.4,317.1 896.4,317.1 896.4,325.1 1061.8,325.1 1061.8,317.1 1057.8,317.1 1057.8,312.4 1053.1,312.4 1053.1,255"/><path opacity=".2" fill="#231F20" d="M1917.7 309.3l-13.4 3.6 4.1 17.2 31.8-1.8 6.7 6.2 54.9-1v-6.5h34s2.8-17.6 1.7-17.9c-1-.3-23.6-3-23.6-3l-96.2 3.2z"/><rect x="1913.9" y="117" fill="#ECE3C2" width="109" height="205"/><rect x="1913.9" y="233" fill="#DFD3AB" width="109" height="89"/><polygon fill="#DFD3AB" points="2022.9,117 1913.9,117 1913.9,126.2 2022.9,147"/><polygon fill="#CB5F4D" points="2037.9,111 1905.1,111 1898.9,111 1898.9,117 2037.9,117"/><polygon fill="#E8806B" points="1920.3,87 1911.4,111 2024.7,111 2013.7,87"/><rect x="1926.9" y="94" fill="#B36849" width="31" height="12"/><rect x="1975.9" y="94" fill="#B36849" width="30" height="12"/><rect x="1926.9" y="100" opacity=".2" fill="#231F20" width="31" height="6"/><rect x="1975.9" y="100" opacity=".2" fill="#231F20" width="30" height="6"/><rect x="1947.9" y="148" fill="#CBC78E" width="41" height="38"/><rect x="1944.9" y="246" fill="#EDF0DF" width="23" height="80"/><rect x="1967.9" y="246" fill="#E6E5DC" width="25" height="80"/><rect x="1918.9" y="246" fill="#5B414A" width="20" height="62"/><rect x="1929.9" y="246" opacity=".2" fill="#231F20" width="9" height="62"/><rect x="1998.9" y="246" fill="#5B414A" width="17" height="62"/><rect x="2007.9" y="246" opacity=".2" fill="#231F20" width="8" height="62"/><rect x="1952.9" y="152" fill="#B36849" width="31" height="34"/><rect x="1967.9" y="152" opacity=".2" fill="#231F20" width="16" height="34"/><path fill="#B36849" d="M1935.9 158.8c0-2.3-1.6-4.8-3.6-4.8h-1.8c-2 0-3.6 2.5-3.6 4.8v14.2h9v-14.2z"/><path fill="#B36849" d="M2007.9 158.8c0-2.3-1.2-4.8-3.2-4.8h-1.8c-2 0-3 2.5-3 4.8v14.2h8v-14.2z"/><polygon fill="#DFD3AB" points="2009.5,216 1947.9,216 1937.4,192 1999,192"/><rect x="1933.9" y="186" fill="#EDF0DF" width="67" height="23"/><rect x="1947.9" y="251" fill="#5B414A" width="16" height="54"/><rect x="1971.9" y="251" fill="#403B32" width="17" height="54"/><rect x="1971.9" y="251" fill="#5B414A" width="17" height="54"/><polygon fill="#E8806B" points="1913.4,223 2023.6,223 2044.3,252 1891.9,252"/><polygon opacity=".3" fill="#979337" points="2022.8,251.7 2044.3,251.7 2023.6,222.4 2022.8,222.4 2022.8,147 2022.8,117 2036.8,117 2036.8,111.7 2024.7,111.7 2013.7,86.3 1920.3,86.3 1911.4,111.7 1905.1,111.7 1899.4,111.7 1899.4,117 1913.4,117 1913.4,126.2 1913.4,222.4 1913.4,222.4 1891.9,251.7 1913.4,251.7 1913.4,322.4 1944.1,322.4 1944.1,326.4 1968.1,326.4 1992.1,326.4 1992.1,322.4 2022.8,322.4"/><path fill-rule="evenodd" clip-rule="evenodd" fill="#A3A38B" d="M2999.9 455c-105-10.7-369.5-6.9-566.8-6-197.3 1-647.2 4-764.8 3.1-117.6-1-1024.3-3.1-1220.6-1.1-196.3 1.9-195.3 4-195.3 4h-252.4v248h2999.9v-248z"/><path fill-rule="evenodd" clip-rule="evenodd" fill="#9F9D88" d="M2999.9 518.7c-105-10.3-372.5-14.1-569.8-13.2-197.3.9-647.3 13.6-764.8 10.3-145.6-4-1023.3-.9-1219.6.9l-196.3 1.9h-249.4v184.4h2999.9v-184.3z"/><use xlink:href="#d" width="86" height="113.6" x="-43" y="-56.8" transform="matrix(.943 0 0 -.943 1146.919 306.861)" overflow="visible"/><use xlink:href="#e" width="78" height="140.4" x="-39" y="-70.2" transform="matrix(1.029 0 0 -1.029 1086.955 294.026)" overflow="visible"/><use xlink:href="#d" width="86" height="113.6" x="-43" y="-56.8" transform="matrix(.591 0 0 -.591 434.104 278.516)" overflow="visible"/><use xlink:href="#e" width="78" height="140.4" x="-39" y="-70.2" transform="matrix(.645 0 0 -.645 396.529 270.475)" overflow="visible"/><use xlink:href="#f" width="132" height="140.4" x="-66" y="-70.2" transform="matrix(-1.416 0 0 -1.416 2061.401 334.429)" overflow="visible"/><use xlink:href="#d" width="86" height="113.6" x="-43" y="-56.8" transform="matrix(.853 0 0 -.853 849.362 274.027)" overflow="visible"/><use xlink:href="#e" width="78" height="140.4" x="-39" y="-70.2" transform="matrix(.931 0 0 -.931 795.146 262.424)" overflow="visible"/><use xlink:href="#f" width="132" height="140.4" x="-66" y="-70.2" transform="matrix(1.416 0 0 -1.416 2830.351 301.083)" overflow="visible"/><polygon opacity=".07" fill="#231F20" points="469,305.4 448.4,315.5 457,341.6 767.4,338.6 761.5,313.2 742.4,297.1"/><rect x="467.9" y="219" fill="#E8806B" width="279" height="99"/><rect x="460.9" y="317" fill="#4F473C" width="292" height="9"/><rect x="498.9" y="184" fill="#ECE3C2" width="217" height="35"/><rect x="498.9" y="209" fill="#DFD3AB" width="217" height="10"/><rect x="525.9" y="165" fill="#E8806B" width="163" height="19"/><rect x="486.9" y="262" fill="#D67666" width="58" height="42"/><rect x="481.9" y="255" fill="#FFF6C8" width="68" height="42"/><polygon opacity=".2" fill="#231F20" points="503,299 481.9,299 481.9,255 537.4,255"/><rect x="481.9" y="255" fill="#4F473C" width="10" height="44"/><rect x="538.9" y="255" fill="#4F473C" width="11" height="44"/><rect x="491.9" y="290" fill="#B36849" width="47" height="9"/><rect x="577.9" y="262" fill="#D67666" width="59" height="42"/><rect x="573.9" y="255" fill="#FFF6C8" width="68" height="42"/><polygon opacity=".2" fill="#231F20" points="594.8,299 573.9,299 573.9,255 629.3,255"/><rect x="573.9" y="255" fill="#4F473C" width="10" height="44"/><rect x="629.9" y="255" fill="#4F473C" width="12" height="44"/><rect x="583.9" y="290" fill="#B36849" width="46" height="9"/><rect x="669.9" y="262" fill="#D67666" width="58" height="42"/><rect x="665.9" y="255" fill="#FFF6C8" width="66" height="42"/><polygon opacity=".2" fill="#231F20" points="686.7,299 665.9,299 665.9,255 721.1,255"/><rect x="665.9" y="255" fill="#4F473C" width="10" height="44"/><rect x="722.9" y="255" fill="#4F473C" width="9" height="44"/><rect x="675.9" y="290" fill="#B36849" width="47" height="9"/><path fill="#EDF0DF" d="M739.2 251h-77.7l-9.9-28h71.4l16.2 28z"/><rect x="661.9" y="251" fill="#D3E3CF" width="77" height="11"/><path fill="#EDF0DF" d="M647.7 251h-80.4l8.8-28h62.5l9.1 28z"/><rect x="565.9" y="251" fill="#D3E3CF" width="82" height="11"/><path fill="#EDF0DF" d="M473.2 251h77.7l9.9-28h-71.4l-16.2 28z"/><rect x="471.9" y="251" fill="#D3E3CF" width="80" height="11"/><path fill="#DFD3AB" d="M580 201.5c0 2.1 1.7 2.5 3.9 2.5h5.6c2.1 0 3.9-.4 3.9-2.5s-1.7-2.5-3.9-2.5h-5.6c-2.1 0-3.9.4-3.9 2.5z"/><path fill="#DFD3AB" d="M617.5 192.5c0 2.1 1.7 3.5 3.9 3.5h5.6c2.1 0 3.9-1.4 3.9-3.5s-1.7-3.5-3.9-3.5h-5.6c-2.1 0-3.9 1.4-3.9 3.5z"/><path fill="#DFD3AB" d="M698.9 199.9c0-2.1-1.7-3.9-3.9-3.9h-5.3c-2.1 0-3.9 1.7-3.9 3.9v1.3c0 2.1 1.7 3.9 3.9 3.9h5.3c2.1 0 3.9-1.7 3.9-3.9v-1.3z"/><path fill="#DFD3AB" d="M684.9 194.9c0-2.1-1.7-3.9-3.9-3.9h-5.3c-2.1 0-3.9 1.7-3.9 3.9v1.3c0 2.1 1.7 3.9 3.9 3.9h5.3c2.1 0 3.9-1.7 3.9-3.9v-1.3z"/><path fill="#DFD3AB" d="M545.9 199.7c0-2-2.1-3.7-4.3-3.7h-5.6c-2.2 0-4.1 1.6-4.1 3.7v.3c0 2 1.9 3 4.1 3h5.6c2.2 0 4.3-1 4.3-3v-.3z"/><path fill="#DFD3AB" d="M528.9 194.9c0-2.1-1.7-3.9-3.9-3.9h-5.3c-2.1 0-3.9 1.7-3.9 3.9v1.3c0 2.1 1.7 3.9 3.9 3.9h5.3c2.1 0 3.9-1.7 3.9-3.9v-1.3z"/><polygon opacity=".4" fill="#979337" points="746.9,219 715.9,219 715.9,208.8 715.9,184 688.9,184 688.9,165 525.9,165 525.9,184 498.9,184 498.9,208.8 498.9,219 467.9,219 467.9,317 460.9,317 460.9,326 752.9,326 752.9,317 746.9,317"/><path opacity=".07" fill="#231F20" d="M2160.3 298.6l-17.2 1.3 2.7 19.5 99.7 1.7 6.7 13.1 116.7-2-7.1-11.5 107.2.3-1-16.8s-30.3-10.8-31.3-10.8c-1 .2-276.4 5.2-276.4 5.2z"/><rect x="2152.9" y="240" fill="#DFD3AB" width="125" height="71"/><rect x="2163.9" y="233" fill="#EDF0DF" width="41" height="45"/><rect x="2213.9" y="233" fill="#EDF0DF" width="41" height="45"/><rect x="2218.9" y="255" fill="#204445" width="15" height="16"/><rect x="2235.9" y="255" fill="#204445" width="14" height="16"/><rect x="2218.9" y="237" fill="#204445" width="15" height="16"/><rect x="2235.9" y="237" fill="#204445" width="14" height="16"/><polygon opacity=".2" fill="#231F20" points="2218.9,271 2223.4,271 2232.9,255 2218.9,255"/><rect x="2218.9" y="237" opacity=".2" fill="#231F20" width="15" height="16"/><polygon opacity=".2" fill="#231F20" points="2235.9,237 2235.9,251.1 2243.6,237"/><rect x="2169.9" y="255" fill="#204445" width="14" height="16"/><rect x="2184.9" y="255" fill="#204445" width="14" height="16"/><rect x="2169.9" y="237" fill="#204445" width="14" height="16"/><rect x="2184.9" y="237" fill="#204445" width="14" height="16"/><polygon opacity=".2" fill="#231F20" points="2169.9,271 2173.2,271 2182.6,255 2169.9,255"/><rect x="2169.9" y="237" opacity=".2" fill="#231F20" width="14" height="16"/><polygon opacity=".2" fill="#231F20" points="2184.9,237 2184.9,251.1 2193.3,237"/><polygon fill="#8D6633" points="2277.9,240 2142.1,240 2173.3,175 2277.9,175"/><path opacity=".2" fill="#231F20" d="M2169.5 218c0 1.3-1 2-2.3 2h-4c-1.3 0-2.3-.7-2.3-2s1-2 2.3-2h4c1.2 0 2.3.7 2.3 2z"/><path opacity=".2" fill="#231F20" d="M2180.7 230c0 1.5-1.2 3-2.6 3h-3.8c-1.4 0-2.6-1.5-2.6-3 0-1.4 1.2-3 2.6-3h3.8c1.4 0 2.6 1.6 2.6 3z"/><path opacity=".2" fill="#231F20" d="M2198.2 198.5c0 1.4-1.2 2.5-2.6 2.5h-3.8c-1.4 0-2.6-1.1-2.6-2.5s1.2-2.5 2.6-2.5h3.8c1.4 0 2.6 1.1 2.6 2.5z"/><path opacity=".2" fill="#231F20" d="M2204.3 192c0 1.5-1.2 3-2.6 3h-3.8c-1.4 0-2.6-1.5-2.6-3 0-1.4 1.2-3 2.6-3h3.8c1.4 0 2.6 1.6 2.6 3z"/><path opacity=".2" fill="#231F20" d="M2224.9 219.7c0 1.3-1 2.3-2.3 2.3h-4.3c-1.3 0-2.3-1-2.3-2.3v-.3c0-1.3 1-2.3 2.3-2.3h4.3c1.3 0 2.3 1 2.3 2.3v.3z"/><path opacity=".2" fill="#231F20" d="M2242.4 205.5c0 1.3-1 2.5-2.3 2.5h-4c-1.3 0-2.3-1.2-2.3-2.5s1-2.5 2.3-2.5h4c1.3 0 2.3 1.2 2.3 2.5z"/><rect x="2326.9" y="240" fill="#DFD3AB" width="127" height="71"/><rect x="2400.9" y="233" fill="#EDF0DF" width="41" height="45"/><rect x="2349.9" y="233" fill="#EDF0DF" width="42" height="45"/><rect x="2371.9" y="255" fill="#204445" width="13" height="16"/><rect x="2356.9" y="255" fill="#204445" width="13" height="16"/><rect x="2371.9" y="237" fill="#204445" width="13" height="16"/><rect x="2356.9" y="237" fill="#204445" width="13" height="16"/><polygon opacity=".2" fill="#231F20" points="2384.9,271 2382,271 2372.6,255 2384.9,255"/><rect x="2371.9" y="237" opacity=".2" fill="#231F20" width="13" height="16"/><polygon opacity=".2" fill="#231F20" points="2369.9,237 2369.9,251.1 2361.8,237"/><rect x="2421.9" y="255" fill="#204445" width="13" height="16"/><rect x="2407.9" y="255" fill="#204445" width="12" height="16"/><rect x="2421.9" y="237" fill="#204445" width="13" height="16"/><rect x="2407.9" y="237" fill="#204445" width="12" height="16"/><polygon opacity=".2" fill="#231F20" points="2434.9,271 2432.3,271 2422.9,255 2434.9,255"/><rect x="2421.9" y="237" opacity=".2" fill="#231F20" width="13" height="16"/><polygon opacity=".2" fill="#231F20" points="2419.9,237 2419.9,251.1 2412.1,237"/><polygon fill="#8D6633" points="2326.9,240 2463.3,240 2432.2,175 2326.9,175"/><path opacity=".2" fill="#231F20" d="M2443.9 218.3c0-1.3-1-2.3-2.3-2.3h-4.3c-1.3 0-2.3 1-2.3 2.3v.3c0 1.3 1 2.3 2.3 2.3h4.3c1.3 0 2.3-1 2.3-2.3v-.3z"/><path opacity=".2" fill="#231F20" d="M2433.9 229.3c0-1.3-1-2.3-2.3-2.3h-4.3c-1.3 0-2.3 1-2.3 2.3v.3c0 1.3 1 2.3 2.3 2.3h4.3c1.3 0 2.3-1 2.3-2.3v-.3z"/><path opacity=".2" fill="#231F20" d="M2407.2 198.5c0 1.4 1.2 2.5 2.6 2.5h3.8c1.5 0 2.6-1.1 2.6-2.5s-1.2-2.5-2.6-2.5h-3.8c-1.4 0-2.6 1.1-2.6 2.5z"/><path opacity=".2" fill="#231F20" d="M2409.9 192.1c0-1.9-.7-3.1-2.2-3.1h-3.6c-1.4 0-2.3 1.3-2.3 3.1v.2c0 1.9.8 3.7 2.3 3.7h3.6c1.4 0 2.2-1.9 2.2-3.7v-.2z"/><path opacity=".2" fill="#231F20" d="M2387.9 219.7c0-1.5-.9-2.7-2.4-2.7h-3.4c-1.4 0-2.3 1.3-2.3 2.7v.4c0 1.5.8 2.8 2.3 2.8h3.4c1.4 0 2.4-1.4 2.4-2.8v-.4z"/><path opacity=".2" fill="#231F20" d="M2369.9 205.3c0-1.3-1-2.3-2.3-2.3h-4.3c-1.3 0-2.3 1-2.3 2.3v.3c0 1.3 1 2.3 2.3 2.3h4.3c1.3 0 2.3-1 2.3-2.3v-.3z"/><path opacity=".2" fill="#231F20" d="M2327.9 193.7c0 1.3-1 2.3-2.3 2.3h-4.3c-1.3 0-2.3-1-2.3-2.3v-.3c0-1.3 1-2.3 2.3-2.3h4.3c1.3 0 2.3 1 2.3 2.3v.3z"/><rect x="2265.9" y="203" fill="#ECE3C2" width="74" height="105"/><polygon fill="#CCC19D" points="2265.9,203 2339.9,203 2339.9,224 2265.9,216.2"/><rect x="2281.9" y="230" fill="#204445" width="41" height="78"/><rect x="2281.9" y="230" opacity=".2" fill="#231F20" width="41" height="65"/><polyline fill="#A3763B" points="2254.7,209.8 2275.3,173.5 2302.7,125.1 2350.7,209.8"/><path opacity=".2" fill="#231F20" d="M2325.9 201.9c0 1.5-1.2 2.1-2.7 2.1h-3.4c-1.4 0-2.9-.6-2.9-2.1v-.4c0-1.5 1.5-2.5 2.9-2.5h3.4c1.4 0 2.7 1.1 2.7 2.5v.4z"/><path opacity=".2" fill="#231F20" d="M2288.9 186.4c0 1.3-1.2 2.6-2.5 2.6h-4.2c-1.3 0-2.4-1.3-2.4-2.6v-.2c0-1.3 1.1-2.2 2.4-2.2h4.2c1.3 0 2.5.9 2.5 2.2v.2z"/><path opacity=".2" fill="#231F20" d="M2294.9 199.7c0 1.3-1 2.3-2.3 2.3h-4.3c-1.3 0-2.3-1-2.3-2.3v-.3c0-1.3 1-2.3 2.3-2.3h4.3c1.3 0 2.3 1 2.3 2.3v.3z"/><path opacity=".2" fill="#231F20" d="M2310.9 150.7c0 1.3-1 2.3-2.3 2.3h-4.3c-1.3 0-2.3-1-2.3-2.3v-.3c0-1.3 1-2.3 2.3-2.3h4.3c1.3 0 2.3 1 2.3 2.3v.3z"/><rect x="2255.9" y="306" fill="#4F473C" width="94" height="15"/><rect x="2277.9" y="227" fill="#EDF0DF" width="49" height="8"/><polygon fill="#ECE3C2" points="2311.9,191 2293.9,191 2293.9,166.8 2302.8,159.7 2311.9,166.8"/><polygon fill="#204445" points="2308.9,188 2295.9,188 2295.9,170.9 2302.3,166.2 2308.9,170.9"/><polygon opacity=".4" fill="#979337" points="2330.8,175 2302.7,125.3 2275.3,173.8 2274.7,175 2173.3,175 2142.1,240 2152.9,240 2152.9,311 2255.9,311 2255.9,321 2349.9,321 2349.9,311 2453.9,311 2453.9,240 2463.3,240 2432.2,175"/><polygon opacity=".07" fill="#231F20" points="2510.6,298.9 2492.4,302.3 2490.4,319.4 2696.4,318.8 2691.6,301.5"/><rect x="2510.9" y="171" fill="#D3E3CF" width="160" height="132"/><rect x="2510.9" y="210" fill="#81AFA2" width="160" height="93"/><rect x="2518.9" y="168" fill="#81AFA2" width="20" height="43"/><rect x="2561.9" y="168" fill="#81AFA2" width="18" height="43"/><rect x="2601.9" y="168" fill="#81AFA2" width="19" height="43"/><rect x="2642.9" y="168" fill="#81AFA2" width="19" height="43"/><rect x="2516.9" y="226" fill="#D3E3CF" width="29" height="44"/><rect x="2521.9" y="230" fill="#43523F" width="19" height="35"/><rect x="2521.9" y="230" opacity=".2" fill="#231F20" width="10" height="35"/><rect x="2636.9" y="226" fill="#D3E3CF" width="28" height="44"/><rect x="2639.9" y="230" fill="#43523F" width="21" height="35"/><rect x="2639.9" y="230" opacity=".2" fill="#231F20" width="10" height="35"/><rect x="2552.9" y="220" fill="#D3E3CF" width="77" height="83"/><rect x="2556.9" y="226" fill="#EDF0DF" width="67" height="77"/><rect x="2588.9" y="226" fill="#D3E3CF" width="4" height="77"/><rect x="2562.9" y="233" fill="#43523F" width="19" height="31"/><polygon opacity=".2" fill="#231F20" points="2570.3,264 2562.9,264 2562.9,233 2581.3,233"/><rect x="2599.9" y="233" fill="#43523F" width="17" height="31"/><polygon opacity=".2" fill="#231F20" points="2606.7,264 2599.9,264 2599.9,233 2617.6,233"/><rect x="2504.9" y="297" fill="#79542C" width="172" height="8"/><rect x="2500.9" y="303" fill="#8D6633" width="179" height="8"/><polygon opacity=".2" fill="#231F20" points="2670.9,234.4 2510.9,223.4 2510.9,211 2670.9,211"/><rect x="2500.9" y="202" fill="#8D6633" width="179" height="12"/><polygon opacity=".2" fill="#231F20" points="2670.9,191.4 2510.9,180.4 2510.9,168 2670.9,168"/><rect x="2504.9" y="158" fill="#8D6633" width="173" height="15"/><polygon opacity=".4" fill="#979337" points="2670.9,191.4 2670.9,173 2677.9,173 2677.9,158 2504.9,158 2504.9,173 2510.9,173 2510.9,180.4 2510.9,202 2500.9,202 2500.9,214 2510.9,214 2510.9,223.4 2510.9,297 2504.9,297 2504.9,303 2500.9,303 2500.9,311 2679.9,311 2679.9,303 2676.9,303 2676.9,297 2670.9,297 2670.9,234.4 2670.9,214 2679.9,214 2679.9,202 2670.9,202"/><polygon opacity=".07" fill="#231F20" points="272.1,315.1 246,323.5 244.6,345.7 413.1,349.8 420.4,332.4 397.4,317.3"/><rect x="276.9" y="29" fill="#CDBB8B" width="105" height="278"/><polygon fill="#CCC19D" points="276.9,125.3 330.1,78.4 381.9,125.3 381.9,155.6 276.9,144.3"/><polygon fill="#ECE3C2" points="276.9,125.3 330.1,78.4 381.9,125.3 381.9,317 276.9,317"/><rect x="305.9" y="233" fill="#B36849" width="44" height="84"/><rect x="305.9" y="233" opacity=".2" fill="#231F20" width="44" height="69"/><rect x="257.9" y="321" fill="#6D6044" width="142" height="17"/><rect x="265.9" y="313" fill="#7F7157" width="123" height="8"/><rect x="302.9" y="232" fill="#EDF0DF" width="51" height="8"/><polygon fill="#79542C" points="336.5,67.8 256.3,136.1 260.7,141.1 340.9,72.8"/><polygon fill="#A3763B" points="321.3,67.8 401.5,136.1 397.1,141.1 316.9,72.8"/><rect x="307.9" y="137" fill="#CBC78E" width="41" height="54"/><rect x="311.9" y="141" fill="#B36849" width="33" height="50"/><rect x="327.9" y="141" opacity=".2" fill="#231F20" width="17" height="50"/><path fill="#B36849" d="M295.9 163.1c0-2.3-1.5-5.1-3.5-5.1h-1.8c-2 0-3.7 2.8-3.7 5.1v15.9h9v-15.9z"/><path fill="#B36849" d="M368.9 163.1c0-2.3-1.5-5.1-3.5-5.1h-1.8c-2 0-3.7 2.8-3.7 5.1v15.9h9v-15.9z"/><polygon fill="#DFD3AB" points="370.3,221 308.1,221 297.5,197 359.7,197"/><rect x="294.9" y="191" fill="#EDF0DF" width="67" height="23"/><polygon fill="#B36849" points="337.9,125 318.9,125 318.9,105.9 328.3,100.3 337.9,105.9"/><polygon opacity=".2" fill="#231F20" points="328.9,125 337.9,125 337.9,105.9 328.9,100.4"/><polygon fill="#8D6633" points="390.9,23 271,23 264.9,23 264.9,29 390.9,29"/><polygon fill="#A3763B" points="284.9,0 276.8,23 381,23 370.8,0"/><rect x="292.9" y="8" fill="#6D6044" width="26" height="12"/><rect x="336.9" y="8" fill="#6D6044" width="27" height="12"/><rect x="292.9" y="14" opacity=".2" fill="#231F20" width="26" height="6"/><rect x="336.9" y="14" opacity=".2" fill="#231F20" width="27" height="6"/><path opacity=".5" fill="#ECE3C2" d="M297.7 51c0 1.5-1.2 3-2.8 3h-4c-1.5 0-2.8-1.5-2.8-3s1.2-3 2.8-3h4c1.6 0 2.8 1.5 2.8 3z"/><path opacity=".5" fill="#ECE3C2" d="M304.9 59.2c0 1.5-1.2 2.8-2.8 2.8h-4.4c-1.5 0-2.8-1.2-2.8-2.8v-.4c0-1.5 1.2-2.8 2.8-2.8h4.4c1.5 0 2.8 1.2 2.8 2.8v.4z"/><path opacity=".5" fill="#ECE3C2" d="M295 84.5c0 1.5-1.2 2.5-2.8 2.5h-4c-1.5 0-2.8-1-2.8-2.5s1.2-2.5 2.8-2.5h4c1.5 0 2.8 1 2.8 2.5z"/><path opacity=".5" fill="#ECE3C2" d="M373.9 87.2c0 1.5-1.2 2.8-2.8 2.8h-4.4c-1.5 0-2.8-1.2-2.8-2.8v-.4c0-1.5 1.2-2.8 2.8-2.8h4.4c1.5 0 2.8 1.2 2.8 2.8v.4z"/><path opacity=".5" fill="#ECE3C2" d="M327.6 45c0 1.5-1.2 3-2.8 3h-4c-1.5 0-2.8-1.5-2.8-3s1.2-3 2.8-3h4c1.5 0 2.8 1.5 2.8 3z"/><path fill="#E1D6BD" d="M296.1 141c0 1.5-1.2 3-2.8 3h-4c-1.5 0-2.8-1.5-2.8-3s1.2-3 2.8-3h4c1.5 0 2.8 1.5 2.8 3z"/><path fill="#E1D6BD" d="M302.1 253.5c0 1.5-1.2 2.5-2.8 2.5h-4c-1.5 0-2.8-1-2.8-2.5s1.2-2.5 2.8-2.5h4c1.6 0 2.8 1 2.8 2.5z"/><path fill="#E1D6BD" d="M294.9 276.2c0 1.5-1.2 2.8-2.8 2.8h-4.4c-1.5 0-2.8-1.2-2.8-2.8v-.4c0-1.5 1.2-2.8 2.8-2.8h4.4c1.5 0 2.8 1.2 2.8 2.8v.4z"/><path fill="#E1D6BD" d="M373.8 243.5c0 1.5-1.2 3.5-2.8 3.5h-4c-1.5 0-2.8-2-2.8-3.5s1.2-3.5 2.8-3.5h4c1.5 0 2.8 2 2.8 3.5z"/><path fill="#E1D6BD" d="M376.8 305c0 1.5-1.2 3-2.8 3h-4c-1.5 0-2.8-1.5-2.8-3s1.2-3 2.8-3h4c1.6 0 2.8 1.5 2.8 3z"/><path fill="#E1D6BD" d="M368.3 294c0 1.5-1.2 3-2.8 3h-4c-1.5 0-2.8-1.5-2.8-3s1.2-3 2.8-3h4c1.5 0 2.8 1.5 2.8 3z"/><path fill="#E1D6BD" d="M359.9 122.7c0 1.5-1.2 2.3-2.7 2.3h-4c-1.5 0-3.3-.7-3.3-2.3v-.4c0-1.5 1.8-3.3 3.3-3.3h4c1.5 0 2.7 1.8 2.7 3.3v.4z"/><path fill="#E1D6BD" d="M366.9 135.9c0 1.5-1 3.1-2.5 3.1h-4c-1.5 0-1.5-1.6-1.5-3.1v-.4c0-1.5-.1-2.5 1.5-2.5h4c1.5 0 2.5.9 2.5 2.5v.4z"/><path opacity=".5" fill="#ECE3C2" d="M363.9 42.8c0 1.5-.4 3.2-1.9 3.2h-4c-1.5 0-3.1-1.6-3.1-3.2v-.4c0-1.5 1.6-2.4 3.1-2.4h4c1.5 0 1.9.9 1.9 2.4v.4z"/><path opacity=".5" fill="#ECE3C2" d="M357.9 57.1c0 1.6-1.3 2.9-2.9 2.9h-4.2c-1.6 0-2.9-1.3-2.9-2.9v-.2c0-1.6 1.3-2.9 2.9-2.9h4.2c1.6 0 2.9 1.3 2.9 2.9v.2z"/><polygon opacity=".4" fill="#979337" points="381.9,155.6 381.9,155.6 381.9,127.4 397.5,141.1 402.1,136.1 381.9,118.7 381.9,29 276.9,29 276.9,119.3 256.7,136.1 261.2,141.1 276.9,127.9 276.9,306.9 276.9,313 265.9,313 265.9,321 257.9,321 257.9,338 399.9,338 399.9,321 388.9,321 388.9,313 381.9,313 381.9,306.9"/><polygon opacity=".4" fill="#979337" points="390.9,23 381,23 370.8,0 284.9,0 276.8,23 271,23 264.9,23 264.9,29 390.9,29"/></svg>