<!DOCTYPE svg PUBLIC "-//W3C//DTD SVG 1.1//EN" "http://www.w3.org/Graphics/SVG/1.1/DTD/svg11.dtd" [
	<!ENTITY ns_flows "http://ns.adobe.com/Flows/1.0/">
]><svg xmlns="http://www.w3.org/2000/svg" width="946" height="655" viewBox="0 0 946 655"><polygon fill-rule="evenodd" clip-rule="evenodd" fill="#A3A38B" points="213.1,621.7 820.9,621.7 719.6,576.1 324.5,576.1"/><path opacity=".07" fill="#231F20" d="M224.7 532l-40 34.5-12.4 50.2 193.4 5.9s30.5 33.5 27.6 32l283-5.3c-2.9-1.5-12.5-33.2-12.5-33.2l193.5-2.2-5.8-45.3-80-36.6h-546.8z"/><polygon fill="#677A64" points="639.6,404.8 655.7,428.9 657.6,428.9 639.6,401.8 621.8,428.9 623.7,428.9"/><rect x="598.5" y="430.8" opacity=".15" fill="#231F20" width="82.9" height="40"/><rect x="595.8" y="426.9" fill="#EEE5C3" width="87.8" height="40"/><rect x="602" y="433" fill="#F15A34" width="75.4" height="27.9"/><path fill="#fff" d="M620.3 455.7c-1.7.5-3.1-.2-4.5-1.3-3.1-.8-5.1-4-5-7.7.1-4.1 2.5-7.7 4.6-8.8.6-.3 1.3-.4 2.1 0 .1.1.3.2.4.2 5.5-.1 7.7 4.8 7.7 8.9-.1 5.4-3 7.9-5.3 8.7zm-1.9-14.4c-3.8 2.4-4.1 8.2-2 10.7 2.6.6 5.1-2.1 5.1-5.7 0-2.4-1.3-4.4-3.1-5z"/><path fill="#fff" d="M632.2 455.7c0 .2 0 .3-.3.4-.4.1-.9 0-1.3-.1l-1.4-.4c-.6-.1-.9-.7-1-1.5-.3-2.5-.3-7.4 0-12.2-.2-.1-.3-.3-.5-.6-.3-.5-.5-.8-.9-1.3-.3-.3-.3-.6-.4-1.3-.1-.3 0-.5.3-.6 2-.4 4.1-1.3 6.6-1.3 2.3.1 3.8.5 4.8 3.1 1.1 1.3 2 2.6 1.7 4.5-.2 2-2.2 5-5.5 6.1-.9.3-1.4.2-1.9-.3l-.3-.2c0 2.1-.1 4 .1 5.7zm4.6-14.2c-.8-.4-2.9-.4-4.3.1 0 1.3-.1 3.2-.2 5.4 2.3-1 5-3.9 4.5-5.5z"/><path fill="#fff" d="M650.5 445.3c.4.1.4.1.6.5.2.5.2.9.3 1.2.1.3.3.4.3.7 0 .2.1.4 0 .6-.1.3-.1.4-.4.5-1.2.2-3.2.5-5.2.5l-.1 2.2c1.4-.2 3.9-.4 5.2-.2.5.1.6.1.8.5.2.4.2.8.3 1.2.1.4.3.5.3.8 0 .3 0 .4-.1.6 0 .1-.1.2-.4.3-2.6.3-5 .9-6.8 1.3-.9.2-1.3.1-1.7-.3-.1-.2-.3-.4-.5-.7h-.5c-.5 0-.7-.2-.7-.6-.5-4.3.3-9.7.4-13.1-.3-.6-.4-1.3-.7-2-.2-.5-.2-.7.3-.7 1.7-.1 5.5-.7 7.8-.5 1.1.1 1.7.4 1.9 1.1l.7 1.4c.3.5.3.9.3 1.2 0 .3-.1.3-.6.3-1.8-.1-4.2.3-6.2.4.1 1 .1 2.2.1 3.3 1.6-.6 3.3-.7 4.6-.5z"/><path fill="#fff" d="M659.9 456c0 .3 0 .5-.5.5-.5.1-1 0-1.6-.2-.5-.2-1.1-.2-1.7-.4-.6-.1-.8-.3-.9-.9-.6-5-.1-11 .2-16.3 0-.5.2-.5.9-.7.6-.1.9-.1 1.3-.1s.9.3 1.4.3c.5.1.8.1 1 .7 1 2.4 2.4 7 4.2 10.5-.1-4.1.2-9.2.2-12 0-.3 0-.5.3-.5.3-.1.8-.1 1.1.1.3.2.5.4.8.5.5.3.7.6.7 1.5.1 3.5.5 11.3 0 15.3-.1.5-.2.6-.8 1-.6.4-1 .4-1.4.3-.4-.1-.9-.2-1.5-.2-.5 0-.8.1-1.1-.5-1.5-2.4-2.3-4.7-3.2-6.7.3 2.7.6 6 .6 7.8z"/><rect x="208" y="273" fill="#E8806B" width="597" height="315"/><rect x="208" y="273" fill="#D88461" width="597" height="315"/><rect x="431" y="309" fill="#395443" width="154" height="254"/><rect x="431" y="309" fill="#344A39" width="154" height="153"/><rect x="257.9" y="309.7" fill="#EAE2AA" width="163.3" height="190.7"/><rect x="593.4" y="309.7" fill="#EAE2AA" width="163.3" height="190.7"/><rect x="270" y="410" fill="#395443" width="65" height="77"/><rect x="343" y="410" fill="#395443" width="66" height="77"/><rect x="270" y="322" fill="#F68A5E" width="65" height="78"/><rect x="343" y="322" fill="#395443" width="66" height="78"/><polygon fill="#344A39" points="270,487 287.5,487 332.8,410 270,410"/><rect x="270" y="322" fill="#204445" width="65" height="78"/><rect x="270" y="322" fill="#344A39" width="65" height="78"/><polygon fill="#344A39" points="343,322 343,389.8 384.7,322"/><rect x="605" y="410" fill="#395443" width="66" height="77"/><rect x="680" y="410" fill="#395443" width="66" height="77"/><rect x="605" y="322" fill="#F68A5E" width="66" height="78"/><rect x="680" y="322" fill="#395443" width="66" height="78"/><polygon fill="#344A39" points="605,487 622,487 667.3,410 605,410"/><rect x="605" y="322" fill="#204445" width="66" height="78"/><rect x="605" y="322" fill="#204445" width="66" height="78"/><rect x="605" y="322" fill="#344A39" width="66" height="78"/><polygon fill="#344A39" points="680,322 680,389.8 719.2,322"/><rect x="247" y="29" fill="#DC9476" width="519" height="92"/><polygon fill="#BB8065" points="247,29 766,29 766,80.3 247,50.2"/><rect x="222" fill="#5E563B" width="572" height="29"/><path opacity=".2" fill="#231F20" d="M805.9 309.4h-597.5000000000001v85.6c14.7-2.4 26.4-13.9 29-28.6 2.9 16.5 17.2 29 34.5 29h8.8c17.3 0 31.7-12.6 34.5-29 2.9 16.5 17.2 29 34.5 29h8.8c17.3 0 31.7-12.6 34.5-29 2.9 16.5 17.2 29 34.5 29h8.8c17.3 0 31.7-12.6 34.5-29 2.9 16.5 17.2 29 34.5 29h8.8c17.3 0 31.7-12.6 34.5-29.1 2.9 16.5 17.2 29.1 34.5 29.1h8.8c17.3 0 31.7-12.6 34.5-29 2.9 16.5 17.2 29 34.5 29h8.8c17.3 0 31.7-12.6 34.5-29 2.9 16.5 17.2 29 34.5 29h8.8c17.3 0 31.7-12.6 34.5-29 2.2 13 11.6 23.5 23.9 27.4v-84.4z"/><polygon fill="#C1BE7E" points="248.5,104 767.1,104 843.3,287 172.3,287"/><polygon fill="#DCDDBE" points="780.5,134 235.1,134 221.1,169 794.5,169"/><polygon fill="#DCDDBE" points="203.2,212 189.2,248 826.4,248 812.4,212"/><rect x="392" y="553" fill="#7F612F" width="232" height="48"/><path fill="#DCDDBE" d="M791.7 287h-617.7v31.8c0 12.8 8.8 25.2 21.6 25.2h5.8c11.5 0 21-8.3 22.9-19.2 1.9 10.9 11.4 19.2 22.9 19.2h5.8c11.5 0 21-8.3 22.9-19.2 1.9 10.9 11.4 19.2 22.9 19.2h5.8c11.5 0 21-8.3 22.9-19.2 1.9 10.9 11.4 19.2 22.9 19.2h5.8c11.5 0 21-8.3 22.9-19.2 1.9 10.9 11.4 19.2 22.9 19.2h5.8c11.5 0 21-8.3 22.9-19.2 1.9 10.9 11.4 19.2 22.9 19.2h5.8c11.5 0 21-8.3 22.9-19.2 1.9 10.9 11.4 19.2 22.9 19.2h5.8c11.5 0 21-8.3 22.9-19.3 1.9 10.9 11.4 19.3 22.9 19.3h5.8c11.5 0 21-8.3 22.9-19.2 1.5 10.9 11 19.2 22.5 19.2h5.8c11.5 0 21-8.3 22.9-19.2 1.9 10.9 11.4 19.2 22.9 19.2h5.8c11.5 0 21-8.3 22.9-19.2 1.9 10.9 11.4 19.2 22.9 19.2h5.8c11.5 0 21-8.3 22.9-19.2 1.9 10.9 11.4 19.2 22.9 19.2h5.8c11.5 0 21-8.3 22.9-19.2 1.9 10.9 11.4 19.2 22.9 19.2h5.8c12.8 0 25.1-12.4 25.1-25.2v-31.8h-53.6z"/><polygon fill="#677A64" points="639.3,404.8 655.4,428.9 657.3,428.9 639.3,401.8 621.5,428.9 623.4,428.9"/><rect x="598.2" y="430.8" opacity=".15" fill="#231F20" width="82.9" height="40"/><rect x="595.5" y="426.9" fill="#EEE5C3" width="87.8" height="40"/><rect x="601.7" y="433" fill="#F15A34" width="75.4" height="27.9"/><path fill="#fff" d="M620 455.7c-1.7.5-3.1-.2-4.5-1.3-3.1-.8-5.1-4-5-7.7.1-4.1 2.5-7.7 4.6-8.8.6-.3 1.3-.4 2.1 0 .1.1.3.2.4.2 5.5-.1 7.7 4.8 7.7 8.9 0 5.4-3 7.9-5.3 8.7zm-1.9-14.4c-3.8 2.4-4.1 8.2-2 10.7 2.6.6 5.1-2.1 5.1-5.7 0-2.4-1.3-4.4-3.1-5z"/><path fill="#fff" d="M631.9 455.7c0 .2 0 .3-.3.4-.4.1-.9 0-1.3-.1l-1.4-.4c-.6-.1-.9-.7-1-1.5-.3-2.5-.3-7.4 0-12.2-.2-.1-.3-.3-.5-.6-.3-.5-.5-.8-.9-1.3-.3-.3-.3-.6-.4-1.3-.1-.3 0-.5.3-.6 2-.4 4.1-1.3 6.6-1.3 2.3.1 3.8.5 4.8 3.1 1.1 1.3 2 2.6 1.7 4.5-.2 2-2.2 5-5.5 6.1-.9.3-1.4.2-1.9-.3l-.3-.2c0 2.1-.1 4 .1 5.7zm4.6-14.2c-.8-.4-2.9-.4-4.3.1 0 1.3-.1 3.2-.2 5.4 2.3-1 5-3.9 4.5-5.5z"/><path fill="#fff" d="M650.2 445.3c.4.1.4.1.6.5.2.5.2.9.3 1.2.1.3.3.4.3.7 0 .2.1.4 0 .6-.1.3-.1.4-.4.5-1.2.2-3.2.5-5.2.5l-.1 2.2c1.4-.2 3.9-.4 5.2-.2.5.1.6.1.8.5.2.4.2.8.3 1.2.1.4.3.5.3.8 0 .3 0 .4-.1.6 0 .1-.1.2-.4.3-2.6.3-5 .9-6.8 1.3-.9.2-1.3.1-1.7-.3-.1-.2-.3-.4-.5-.7h-.5c-.5 0-.7-.2-.7-.6-.5-4.3.3-9.7.4-13.1-.3-.6-.4-1.3-.7-2-.2-.5-.2-.7.3-.7 1.7-.1 5.5-.7 7.8-.5 1.1.1 1.7.4 1.9 1.1l.7 1.4c.3.5.3.9.3 1.2 0 .3-.1.3-.6.3-1.8-.1-4.2.3-6.2.4.1 1 .1 2.2.1 3.3 1.6-.6 3.3-.7 4.6-.5z"/><path fill="#fff" d="M659.6 456c0 .3 0 .5-.5.5-.5.1-1 0-1.6-.2-.5-.2-1.1-.2-1.7-.4-.6-.1-.8-.3-.9-.9-.6-5-.1-11 .2-16.3 0-.5.2-.5.9-.7.6-.1.9-.1 1.3-.1s.9.3 1.4.3c.5.1.8.1 1 .7 1 2.4 2.4 7 4.2 10.5-.1-4.1.2-9.2.2-12 0-.3 0-.5.3-.5.3-.1.8-.1 1.1.1.3.2.5.4.8.5.5.3.7.6.7 1.5.1 3.5.5 11.3 0 15.3-.1.5-.2.6-.8 1-.6.4-1 .4-1.4.3-.4-.1-.9-.2-1.5-.2-.5 0-.8.1-1.1-.5-1.5-2.4-2.3-4.7-3.2-6.7.3 2.7.6 6 .6 7.8z"/><path fill="#EDF0DF" d="M833.8 307c.7 0 1-.9.1-.9-.6 0-.9.9-.1.9z"/><ellipse opacity=".07" fill="#231F20" cx="137.4" cy="631.2" rx="55.1" ry="3.8"/><ellipse opacity=".07" fill="#231F20" cx="42" cy="629.1" rx="42" ry="3.6"/><path fill="#CAA558" d="M207.2 470.8c0 1.3-.1 2.1-.1 2.1l.1-2.1z"/><ellipse opacity=".2" fill="#231F20" cx="862.9" cy="633.5" rx="51" ry="2.7"/><path fill="#FFE2B7" d="M865.3 618.2l-.5 9.2s1.5.7 4.5.8c3 .2 4-.2 4-.2s-1.3-6.2-1-8.8c.4-2.7-7-1-7-1z"/><path opacity=".2" fill="#231F20" d="M872.7 624.4c-.3-1.8-.5-3.9-.3-5.2.3-2.7-7-1-7-1l-.3 5.7c2.4.9 5 1.1 7.6.5z"/><path fill="#FFE2B7" d="M883 615.5l2.5 7s1.5.7 3.7-.2l2.2-.8-2.7-8.2-5.7 2.2z"/><path opacity=".2" fill="#231F20" d="M890.7 619.6l-2-6.3-5.7 2.2 1.4 4c2.1.1 4.3.3 6.3.1z"/><path fill="#453C4B" d="M864.5 625.9s8.5 2.3 8.8 2.2c.3-.2.8.8.8.8l-.3 4.5-8.5 1s.5-2-.5-1.3-1.3 1.5-1.3 1.5l-25.2.3s-1-3 2.8-4.3c3.8-1.3 22.2-4.7 22.2-4.7h1.2z"/><path fill="#453C4B" d="M866.7 633.4h18.7l1-2.7 1.3 2.2 8.3-3.3-4.7-8s-3.7.8-5.8 1c-2.2.2-1.2 1.2-2 1.5-.8.3-5.5 4-12.2 5-6.7 1-7 2.2-7 2.2l2.4 2.1z"/><ellipse fill="#A1A16C" cx="895.5" cy="531.9" rx="8.1" ry="7.6"/><path fill="#548962" d="M909.9 535.1c-.2-.4.7-7.9 4.1-10.8 3.4-2.9 4.2-.2 5.1-2.2.9-2 3.2-5.6 6.7-5.7 3.4-.1 2.8.7 4.7-.8 1.9-1.4 5.1-2.8 8-1.9s2.3 1.3 5.1 1.2c2.8-.1 2.7.6 1.3.9-1.3.3-2.7-.4-4.3 1-1.7 1.4-4 3.8-6.9 3.6-2.9-.2-3.1-1-5 2.4s-4.7 3.3-6.3 4.3c-1.7 1-1.6.3-3.7 2.6-2.1 2.3-5 14.1-8.8 5.4z"/><path fill="#548962" d="M899.4 533.4c.3.1 2.4 1.8 5.8-2.2 3.3-4 1.1-3.1 2.6-6.1 1.4-3 6.4-2.6 8.6-6s-3-1.7-.6-3.7 11.7-3.4 13.2-6-3-.3-2.7-1.6c.3-1.2 3.6-2.4 7.9-4.2 4.3-1.8.1-1 1.4-2 1.3-1 4.2-2.2 5.2-2.4 1-.2-2.4.3-5.3 1.1s-8.7 2.8-10.8 3.2c-2.1.4-3.6 3.4-5.4 3.7-1.9.2-4.4.3-6.1 3.7-1.7 3.3-.6 2.6-3.8 4.4-3.2 1.9-4.7 1.6-5.2 5.3-.6 3.8-1.8 2.4-3.8 5.1-2 2.7-3.4 6.6-1 7.7z"/><path fill="#548962" d="M891.9 530.8s2 2 4.7-1.9 3.1-4.2 2.2-6.1c-.9-1.9-.4-3.7 3.1-6.7 3.6-3 2.6-3.4 1.8-4.3-.8-.9-1.3-2.2 3.8-5.3 5.1-3.1 5-3.9 3.6-4-1.4-.1-3-.9 1.3-3.7 4.3-2.8 2.1-1.6 1.6-2.7-.6-1.1-2.8-1.6.7-3.7 3.4-2.1-.6-1.3-2-.1s-4.2 4.3-5.4 4.2c-1.2-.1-2.9.6-3.2 2.8-.3 2.2-.1 4-2.2 3.8-2.1-.2-5 .4-4 3.3s3 4.6.6 5.3c-2.4.8-7.6 2.7-6.1 5.1 1.4 2.4 2 2 0 5-2.3 3.1-3.7 7.2-.5 9z"/><path fill="#9D4E6F" d="M907.5 546.9c-.3.8 6.2-29.6 32.9-31.6 0 0-21.9 0-32.9 31.6z"/><path fill="#9D4E6F" d="M897.7 542.1s8.7-33.9 34.9-39.6h.2c0-.1-22.9 4.7-35.1 39.6z"/><path fill="#9D4E6F" d="M911.2 496s-15.6 17.2-17.7 30.6c-2.1 13.3.4 20.5.4 20.5s-7.8-22.6 17.3-51.1z"/><path fill="#5F5033" d="M889.9 562.1s6 1.2 12.8.1c6.8-1.1 10.7-2.8 10.7-2.8l3.2-29.5-27.9 3-.3 28.9 1.5.3z"/><polygon fill="#3F3A31" points="889.6,532.7 918.7,529.8 917.3,535.7 889.1,538.8"/><path fill="#5F5033" d="M890.3 513.4s2.6-.9 4.8-.6c2.2.3 4.2 5.8 5.3 12.9l1.1 7.1 1.4-1s-1.7-13.6-3.6-17.1c-1.9-3.6-3.1-4.3-6.6-4-3.4.3-3.9.8-3.9.8l.2 2.1 1.3-.2z"/><polygon fill="#FFE2B7" points="899.9,449.3 902.1,466 895.4,516 890.6,516 886.8,512.7 893,471.1 890.3,451.1"/><path opacity=".2" fill="#231F20" d="M899.9 449.3l-9.6 1.8 1.4 10.1 9.6-1.6-1.4-10.3z"/><path fill="#302833" d="M864.2 484.8c-.2.5-2.2 71.7-2.2 71.7l1 62.9s2.3 3.8 7.8 2.8 6.2-2 6-2.8c-.2-.8-1-63.9-1-63.9l3.3 61.2s3.8 1.7 8.8.7c5-1 7.2-2.7 7.2-2.7s-6.7-58.5-6.3-66.7c.3-8.2 2-35 2.7-41l.8-22.2h-28.1z"/><path opacity=".2" fill="#231F20" d="M892.1 497.6c.2-6.3.3-12.8.3-12.8h-28.2c0 .1-.2 4.2-.4 10.4 9.2 1.4 18.8 2.6 28.3 2.4z"/><path fill="#FFE2B7" d="M865.4 356.8s-14.7-1.1-14.7 18.9c0 .7-.2 7.9-.2 7.8 0 0 1.8.1 1.9.4 2.8 10.3 3 11.8 3 11.8s1.6 1.1 7.1-.2c5.6-1.3 6.7-1.3 6.7-1.3l2 8.7 8.2-5.1-3.3-15.1s4-13.1.4-21.6c.1-.1-2.4-4.7-11.1-4.3z"/><path opacity=".2" fill="#231F20" d="M869.9 397.3l1.3 5.5 8.2-5.1-.9-4c-2.8 1.2-5.7 2.4-8.6 3.6z"/><path opacity=".2" fill="#231F20" d="M877.7 365.4c-.2-1.5-.6-3-1.2-4.4 0 0-2.4-4.7-11.1-4.2 0 0-11.7-.9-14.2 13.3 9.1-.1 17.7-2.5 26.5-4.7z"/><path fill="#FFE2B7" d="M848.7 460.6l-2.8 3-11.9-26.8s1.2-5.5.5-8-1.7 1.3-4.7 1.5c-3 .2-5 1-6-.8s-1.5-4.5-2.5-4.5-2.3-.7-1.5 1.5c.8 2.2 2.3 7.2 3.3 8.3 1 1.2 2.3.5 3.5 2.3 1.2 1.8 12.7 37.7 13.8 39.5s3.5 2.2 4.7 1.8c1.2-.3 11.5-12.8 11.5-12.8l1.7-1.7-9.6-3.3z"/><path opacity=".2" fill="#231F20" d="M858.3 464l-9.7-3.3-2.8 3-.6-1.5c-.6 4.8.1 9.9 3.7 12.6 3.4-3.8 7.8-9.2 7.8-9.2l1.6-1.6z"/><path fill="#E1AF55" d="M865 362.4l2 14.4s1.6-4.9 2.9-3.8c1.3 1.1-.2 6.4-.2 6.4l7.1 4.4s1-2.1 2.2-3.6c.9-1.1-.4-20.5-.4-20.5l-13.6 2.7z"/><path opacity=".2" fill="#231F20" d="M878.6 359.9l-13.6 2.4.8 5.7c4.4-.1 8.9-.8 13.2-1.9-.3-3.4-.4-6.2-.4-6.2z"/><path fill="#E1AF55" d="M853.1 372.7s3.3-.5 5.3.7c0-.1-3.8-3.7-5.3-.7z"/><path fill="#4E614B" d="M868.2 402.3l-1.2-2s3.7-2.3 9-4.2c5.3-1.8 7.3-2.3 7.3-2.3l1.5 3.7s6.2 2.7 10.8 21.3c4.7 18.7 7 26.5 7 26.5l.7 4.2-10 2.7s-1.3 9.7.7 21.2 2.7 14 2.7 14-3 8.5-17.8 7.2l-18.3-5.2 2.2-28.3-3.3 3.8s-3.7-.2-6.8-2.2c-3.2-2-2.8-3.3-2.8-3.3s9.6-21.5 15.5-46c2.2-10.5 2.8-11.1 2.8-11.1z"/><path fill="#3F523E" d="M893.4 447.9s2.1.2 3.8-.2c1.9-.4 6.1-2 6.1-2l.6 6.3s-3.1 1.7-7 2.7l-3.9 1 .4-7.8z"/><path fill="#FFE2B7" d="M894.4 517.2h.7s1.9-2.7 1.9-5.6c0-2.9-.6-3.2-1.2-2.9-.7.3-1.3 2.6-1.8 5.2-.4 2.7-.1 3.3.4 3.3z"/><path fill="#FFE2B7" d="M891.3 516.9c.6 0 .8.7 1.3.1.6-.6 1.2-4.3 1.2-6.2 0-1.9 0-2-.9-1.9-.9.1-1.4 2.3-1.4 2.3l-.2 5.7z"/><ellipse transform="matrix(-.172 -.985 .985 -.172 559.03 1309.748)" fill="#548962" cx="830.2" cy="419.8" rx="12.1" ry="10.4"/><path fill="#876F54" d="M839.6 369.9s11.6-1.3 25.1-3.3c13.6-2 13.8-2.9 13.8-2.9s5.3-14.2-7.6-14.4c-12.8-.3-29.2 10.4-31.3 20.6z"/><path fill="#CBB199" d="M854.5 388.1s4-.3 8.3-1.8l-4.7 3c.1 0 .7-1.2-3.6-1.2z"/><path fill="#E1AF55" d="M853.9 376.1c0-.6.5-1.1 1.1-1.1.6 0 1.1.5 1.1 1.1v1.5c0 .6-.5 1.1-1.1 1.1-.6 0-1.1-.5-1.1-1.1v-1.5z"/><path opacity=".4" fill="#304130" d="M874.1 439.1s-5.4 11.2-15 23.8l2.1-.1s11.5-16.8 12.9-23.7z"/><path fill="#3F523E" d="M849.6 456.8c-.2.5 2.8 1.8 5.7 2.9 6.4 2.3 7.2 1.6 7.2 1.6s-5.2 6.1-6.1 6.1c-.8 0-2.9-.3-7.4-1.8s-3-3.4-3-3.4l3.6-5.4z"/><path fill="#EEE5C3" d="M32.2 511.6c-.1 0-2-1.3-2.5.4-.5 1.6.8 6.1 2 5.8 1.2-.4.5-6.2.5-6.2z"/><path fill="#EEE5C3" d="M38.8 522.4c.5 0 1.4-.7.5-.7-.5 0-1.3.7-.5.7z"/><path fill="#EEE5C3" d="M31.2 602.3v17.9s1.1 2 3.2 1.9c2.1-.1 2.2-.8 2.2-1.2v-.9l.4-17.8h-5.8z"/><path opacity=".2" fill="#231F20" d="M31.2 602.3v6.1c1.9.3 3.8.7 5.7.9l.2-7h-5.9z"/><path fill="#EEE5C3" d="M57.9 600.3l1.7 17.8s-.9 2.1-3 2.2c-2.1.1-2.3-.6-2.3-1 0-.3-.1-.9-.1-.9l-2.1-17.7 5.8-.4z"/><path opacity=".2" fill="#231F20" d="M57.9 600.3l-5.9.6 1 8.2c2 0 3.8-.4 5.6-.9l-.7-7.9z"/><path fill="#676033" d="M38.9 620.4v7.4l-5.4.8s.1-1.9-.9-1.6c-1 .3-.8 1.6-.8 1.6l-16.3 1.2s-.9-2 0-2.9c.9-.9 14.9-7.1 14.9-7.1s6.9-.9 8.5.6z"/><path fill="#676033" d="M54.3 619.4l.8 6.9h2.9s.2-2.3.9-1.6c.7.7.7 1.2.7 1.2l15.6-.4s1.4-3-3.3-4c-4.8-1-12.3-4.9-12.3-4.9s-.6 2-3 2.4l-2.3.4z"/><path fill="#B7C0B4" d="M27.3 580.8c-.1.6.8 24.9.8 24.9s1.2 1 6.8 1.3c5.6.3 9.2 0 9.2 0l1.3-11.9 2.9 12s5.2 0 8.4-.9 7.6-2.1 7.6-2.1l-6-23.3h-31z"/><path opacity=".2" fill="#231F20" d="M61.2 591.8l-2.8-11h-31c0 .2.1 4.7.3 9.8 11 1.7 22.3 2.3 33.5 1.2z"/><path fill="#EEE5C3" d="M70.1 549l6.8 2.8 5.7-14.2s-.1-6.5 2.4-6.2l2.6.3s.3.2-.5.9l-.8.7s-.5 5.5-1.2 6.2c-.8.7 2.6 3.5 2.6 3.5l-2.6 1.2-5.4 14.5-11.9-3.6 2.3-6.1z"/><path opacity=".2" fill="#231F20" d="M70.1 549l-2.4 6.3 4.8 1.5c.5-2 .9-4.1 1.5-6.1l-3.9-1.7z"/><path fill="#EEE5C3" d="M19.6 553.8c-.6.6-4.3 19.4-4.3 19.4l1.8 15.7s-.9-.3-.3 4.2c.6 4.5 1.6 7.6 1.9 8 .4.4.5 0 .8.1.3 0-.7-2.8-.7-3.4s-.3-1.3 0-1.4c.3 0 1.3 4.2 1.6 4.5s1.1 0 1-.3c-.1-.3-1.3-4.2-1.4-4.6 0-.5.4-.3.4-.3s1.2 4.1 1.5 4.7c.3.6.8.1.8.1l-1.2-5.1s1.2 2.2 1.6 3.6c.4 1.4.4 1 .4 1s.7.1.7-.3-.9-3.5-1.4-4.8c-.5-1.3-1-3.1-.6-3.1s1.1 2 1.1 2 .4.8.7.6c.3-.2-.3-2.5-1.4-4l-1.1-1.5-.9-14 4.3-16.4-5.3-4.7z"/><path opacity=".2" fill="#231F20" d="M19.6 553.8c-.4.4-2.3 9.4-3.4 15 1.7.9 3.5 1.7 5.4 2.2l3.3-12.6-5.3-4.6z"/><path fill="#856566" d="M21.1 545.5c.6 0 17-4.8 17-4.8h6.3l15 2.7 13.1 4.9-4.7 12.6-7.9-1.5 1 26.8s-8.6 4.1-17.2 3.4c-8.6-.7-17.6-1.4-17.6-1.4l-1.4-19.2-10.3-3.2 6.7-20.3z"/><path fill="#548962" d="M200.4 424.2s-1.1 1.4-4.5-.5-1.9-4.4-6-3.1c-4.1 1.3-6.7 3.6-8.8 1.4-2.2-2.3-.7-2.4-3.9.5s-2.9 2-7 1.2-4.8-.2-5.8 1.2-.9-1.4.6-2.4c1.4-1 5-6.9 9.8-7.2s3 1.9 4.7.8c1.7-1.1 3.7-3.2 8.8-1.6s2.1 2.4 4 2.7c1.6.4 10.8 1.7 8.1 7z"/><path fill="#548962" d="M201.4 419.6s-4.9-.6-5.7-6.2c-.8-5.6 2.8-1.6 2.2-5.3-.6-3.7-3.3-6.8.6-8.9 3.9-2.1 2.4-1.1 2.3-4.9s.6-4.4 3.4-5.9c2.8-1.4 4.6-3.4 6.3-3.6s-.4 2.1-1.2 3.3c-.8 1.2.5 5.8-1.9 7.4-2.4 1.7-4.3 2.1-4 3.6.3 1.4 2.6 4.4.5 6.8-2.1 2.3-4.4 3.3-3.1 4.6 1.3 1.3 6.1 2.9 4.3 5.6-1.9 2.7-3.7 3.5-3.7 3.5z"/><path fill="#548962" d="M171 397.8s1.3-2.1 5.3-2.9c4-.9 2.9 1 5.9.6 2.9-.4 4.5-2 6.9.4 2.4 2.4 2.6 3.1 4.7 3 2.1-.1 6.8-.1 7.3 3.5.6 3.5.3 5 2.9 7s5 5.6 2.4 8c-2.6 2.4-4.2 2.4-4.2 2.4s-8-5.6-7.2-8.6c.7-3 2.9-4.4-1.7-5.9-4.6-1.4-2.4-3.2-3.1-4.2-.7-1-4.6 1.7-7 .5-2.4-1.2-.1-2.3-2.8-2.6-2.7-.2-5.9 1.9-7.7.4-1.8-1.5-2.6.4-4.1 1.7.1-.2-.2-1.3 2.4-3.3z"/><path fill="#FFE2B7" d="M109 568.7c-.5.5-4.7 55.5-4.7 55.5s-.8 3.8 0 5.2l32.5.8s-.7-3.2-3.8-4-20.8-2.7-21.3-7.8l7.7-48.9-10.4-.8z"/><path opacity=".2" fill="#231F20" d="M119.3 569.5l-10.3-.8c-.1.1-.5 3.5-.9 8.4 3.2.4 6.4.9 9.6 1.5.9-5.4 1.6-9.1 1.6-9.1z"/><path fill="#FFE2B7" d="M137.6 568.7c-.5.3 4.7 55.9 4.7 55.9s-1.7 5.5-.7 5.8c1 .2 8 .4 10.2 0 2.2-.4 4.8.3 4.8.3l17.8-1s1.5-4.2-10.5-5.5c-12-1.3-16.2 3-16.3-15.5-.2-18.5-.5-45.4-.5-45.4l-9.5 5.4z"/><path opacity=".2" fill="#231F20" d="M147.1 563.2l-9.5 5.5c-.1.1.1 4.1.6 10 3-.2 6-.5 9.1-.7-.1-8.6-.2-14.8-.2-14.8z"/><path fill="#CAA558" d="M146.5 400.9s-2.1 4 0 5.8c2.1 1.7 2.1 2.9 2.9 4.9.8 2 2.1 1.2 3.5 1 1.4-.2-.2 2.6-9.5 2.5s-10.3 1.6-10.7-3.4c-.4-5 0-9.3 0-9.3l13.8-1.5z"/><path fill="#B7C0B4" d="M110.8 485c0 .5-7.3 87.7-7.3 87.7s13 4.2 30.3 3.5c17.3-.7 27-6.7 27-6.7s-13.2-88.7-13.7-88.4c-.5.4-36.3 3.9-36.3 3.9z"/><path fill="#B7C0B4" d="M110.8 485c0 .5-7.3 87.7-7.3 87.7s13 4.2 30.3 3.5c17.3-.7 27-6.7 27-6.7s-13.2-88.7-13.7-88.4c-.5.4-36.3 3.9-36.3 3.9z"/><path fill="#B7C0B4" d="M147.7 482.6c-.5.3-36.3 3.8-36.3 3.8 0 .4-3.7 44-5.8 69.6.4 5.2 1.6 10.1 4.3 14.2 8 11.3 27.3 2.7 42 3.3-14.7-.7-34 8-42-3.3-2.7-4.2-3.8-9-4.3-14.2-.9 10.6-1.5 18.1-1.5 18.1s13 4.2 30.3 3.5c17.3-.7 27-6.7 27-6.7s-13.2-88.7-13.7-88.3z"/><path fill="#81AFA1" d="M126.3 411.9s-16.5.7-24.2 3.1c0 0 2.7 22.6 3.7 25 0 0 2.8-.8 3.8 9l2.2 28.9-4.3 93.2s8.7 2.5 23.7 2.2c15-.3 22.5-5.3 22.5-5.3s-6.7-79-6.5-93.7c.2-14.7 2.2-28.8 3.7-31.5l1.5-2.7s2.7-7.5 3.2-14.9c.2-2.5 1.2-7.4 1.2-7.4s-.9-2.1-9.4-3.5c-8.6-1.4-14.7-2.4-14.7-2.4l-2 5.1-4.4-5.1z"/><path opacity=".1" fill="#231F20" d="M132.7 411.8l-2 5.1-4.4-4.9s-6.8.3-13.7 1.1c-2.5 1.2-4.2 2.6-2.8 3.7 12.7 9.3 30 6 44 .7.6-.1 1.2-.4 1.8-.7-1.2-.7-3.6-1.7-8.2-2.5-8.6-1.5-14.7-2.5-14.7-2.5z"/><path opacity=".2" fill="#231F20" d="M111.5 483.2l-.4 8.1c12.1-.3 24.4-.7 36.6-.9-.1-2.5-.3-4.8-.4-6.9-11.8-.3-23.8-.5-35.8-.3z"/><path fill="#FFE2B7" d="M149.5 355.4l1.6 48s-2.3 1.7-9.7 1.7h-7.9l-.8 10.4-2 1.3-5.8-2.9-3.8-40.5s-6.3-21 15.5-21.2c0 0 7.3-1.5 12.9 3.2z"/><path fill="#CAA558" d="M152.8 361.3s-6 8.9-27.3 16.2l-.6 34.6s-10.2 1.8-17.2 3.3c-7 1.6-5.8 7.6-9.2 1.1-2.1-4-1.7-2.6 2.7-4 4.3-1.4.3-8.4 5.7-11.7l5.3-3.3s-4.7-8 .7-9l5.3-1s-9.7-24.7 4.3-34.3c14-9.7 24-8.7 27.7-3.4 3.7 5.4 2.7 10.4 2.7 10.4v1.1z"/><path fill="#B9984F" d="M150.1 349.9c-.4-.6-.9-1.2-1.5-1.6 1.6 3.6 2.3 7.6 0 10.5-7.3 8.7-21.3 6.7-25.3 16.7-2.7 7.3 3.3 15.3 0 23.3-3.3 7.3-11.3 10-16.7 16-.3.5-.6.9-.8 1.4.6-.2 1.2-.4 1.9-.6 7-1.6 17.2-3.3 17.2-3.3l.6-34.6c21.3-7.4 27.3-16.2 27.3-16.2v-1.1c0-.2 1-5.2-2.7-10.5z"/><path fill="#CBB199" d="M143.7 382.6l2 8.1-4.6 1.1s1.7-.9 2.3-2.8c.6-1.9.3-6.4.3-6.4z"/><path fill="#CBB199" d="M144.7 396.3c.4-.1-4.8 2-10.9.3l9.6 2.7s-4.3-1.4 1.3-3z"/><path fill="#CAA558" d="M132.7 376s2.6-2.9 5.4-2.6l2.9.3s-1.2-2.2-3-2.1c-1.8.2-4.9 2.8-5.3 4.4z"/><path fill="#CAA558" d="M145.1 373.9s2.2-1.5 3.4 0c0 0-.7-2.4-1.7-2.2-1 .2-1.7 2.2-1.7 2.2z"/><path fill="#5F5033" d="M145.7 378.8c0-.5.4-.8.8-.8.5 0 .8.4.8.8v2.4c0 .5-.4.8-.8.8-.5 0-.8-.4-.8-.8v-2.4z"/><path fill="#5F5033" d="M136.8 378.4c0-.6.5-1.1 1.1-1.1.6 0 1.1.5 1.1 1.1v3c0 .6-.5 1.1-1.1 1.1-.6 0-1.1-.5-1.1-1.1v-3z"/><rect x="109.8" y="477.1" fill="#6C907F" width="40.3" height="11"/><path fill="#6C907F" d="M103.6 630.5c.1.3 10.4.1 21.9 0l11.5-.1s.7-4.2-4.7-5.5l-13.3-2.5s-2.8 3-7.8 3.2c-5 .2-7.5-1.8-7.5-1.8s-.7 4.7-.1 6.7z"/><path fill="#6C907F" d="M141.3 630.6c.1.3 10.4.1 21.9 0l11.5-.1s.7-4.2-4.7-5.5l-13.3-2.5s-2.8 3-7.8 3.2c-5 .2-7.5-1.8-7.5-1.8s-.8 4.6-.1 6.7z"/><path fill="#81AFA1" d="M106.5 416.4c-1.7 1.2-5.3 0-7.7 9.6-2.3 9.6-11.7 52.1-11.7 52.1v18h9.7l2.3-18.5s3.7-27.7 9-40.6c5.3-12.8 3.3-1.6 3.3-1.6l-3.4-21-1.5 2z"/><path fill="#81AFA1" d="M153.4 418.2c-.2 1.7-2.3 20.3-2.3 20.3l18.8 40.8s3.1 4.7 4.7 4.3c1.6-.3 10.3-15.2 10.3-15.2l-3-11.2-9.3 7.3s-15.5-41.8-14.8-46.4c.7-4.5-4.4.1-4.4.1z"/><path opacity=".2" fill="#231F20" d="M181.8 457.3l-8.5 6.7c1.7 3.8 6.1 6.3 8.1 10.1 1.9-3 3.4-5.6 3.4-5.6l-3-11.2z"/><path fill="#FFE2B7" d="M87.1 500.5v27s-1.5 1.5-2 2.8c-.5 1.3 2 10.7 2 10.7s1.2-.3 2.5 0 .9 1.5 2 1c1.2-.5 2.2-1.7 3.2-1.7s1.5.3 2.3-.2c.8-.5 2.4-1.7 2.4-1.7s-3.2-11.2-3.9-12.3-1.7-1.5-1.7-2l.3-25-7.1 1.4z"/><path opacity=".2" fill="#231F20" d="M94.2 505.5c.1-3.7.1-6.4.1-6.4l-7.2 1.3v5.1c2.3.2 4.7.1 7.1 0z"/><path fill="#FFE2B7" d="M181 459.9l14.3-21.8s-1.2-3.7-.8-5.5c.3-1.8.8-3.8 3-3.7 2.2.2 6.5-6.8 6.5-6.8s1.8-1 2.5 0 1.3 1 2.3 1.7c1 .7-1.3 2.3 0 2.5 1.3.2 1.8-.5 2.8.7 1 1.2.7 1.5 0 2.2-.7.7 1.1 1.2.6 2-.5.8-10 11-10 11s-.7-.2-1.7.7c-1 .8-13.8 22.8-13.8 22.8l-3.5 1.7-2.2-7.5z"/><path fill="#BB5E82" d="M205.8 441.3c0 .6 6.6-5.2.2-11.4-6.4-6.3-15.9-15.9-33.8-8.6 0 0 10.8-8.1 26.1 1.1 0 0 18.3 10.3 8.4 19h-.9z"/><path fill="#BB5E82" d="M214.8 441.5s-1.4-4.3-8-7.7c-6.6-3.4 5-37.2-31.3-37.1 0 0 20-3 26.2 13.8 0 0 1.8 1.8 4 21.4-.2 0 9.6 6.3 9.1 9.6z"/><path fill="#BB5E82" d="M222.4 438.8s-41-13.7-14.2-51.6c0 0-12.5 18-7 31.8s17.9 17.7 21.7 19.8c3.7 2-.5 0-.5 0z"/><path fill="#EEE5C3" d="M38.1 532.8c-.1.4 0 7.9 0 7.9l1.6 2.2 4.1 1.5 2.3-2.2-1.5-1.3.3-8h-6.8z"/><path opacity=".2" fill="#231F20" d="M45 532.8h-6.8c-.1.2-.1 2.3 0 4.3 2.2.8 4.5 1.2 6.7 1.3l.1-5.6z"/><path fill="#6C907F" d="M101.8 415.7l8.8-2.3s1 26.5.1 27.7c-.3.5-1.9 2.4-1.9 2.4s-1-1.8-2.2-2.2l-4.8-25.6z"/><path fill="#6C907F" d="M152.4 414.6l-3.4 26.9s.6 3.4 2 2.9c1.4-.4 3.3-8.8 4.6-12.1 1.3-3.3 3.7-15.1 3.7-15.1l-6.9-2.6z"/><polygon fill="#6C907F" points="83.8,502.1 99.5,503.1 99.5,488.1 83.8,488.1"/><polygon fill="#6C907F" points="172.8,461.1 183.5,474.1 189.2,467.4 181,452.9"/><path fill="#FFE2B7" d="M199.6 426.5s-.6 1.2.4 1.4c1 .3 6.3-4.5 6.3-4.5s.8-.9-.6-1.3c-1.3-.4-2.3.3-2.3.3l-3.8 4.1z"/><path fill="#FFE2B7" d="M202.3 428.7c-.2.5.6 1 .6 1s1.1 1.2 2.8-.5c1.1-1.1 2.4-2.5 2.9-3.6.2-.6.2-1.1-.2-1.4l-1.3-1s-3.7 2.7-4.8 5.5z"/><path fill="#FFE2B7" d="M205.2 431c-.3.8 1.3 1.2 2.3.5.9-.7 3.9-4.9 3.9-4.9s-.2-1-1.1-1.1c-1-.1-4.1 3-5.1 5.5z"/><path fill="#FFE2B7" d="M207.2 432.9s.3.9 1 .8c.7-.1 4.5-2.3 4.7-3 .2-.7-.4-1.9-1.3-1.7-.8.4-3.4 2.7-4.4 3.9z"/><path fill="#CBB199" d="M135.2 377.9l4.5-1.3s-1.6-.4-1.9-1.2l-2.6 2.5z"/><path fill="#CBB199" d="M144.3 378.2l4.5-1.3s-1.6-.4-1.9-1.2l-2.6 2.5z"/><path fill="#EEE5C3" d="M58.1 501s1.4 20.7-.6 32.3c0 0-4.9 2.6-14.3 2.1-9.3-.4-9.4-3-9.4-3s-3.6-23.7-2.3-29.3 4.4-9.4 13.4-9.7 12.8 4.8 13.2 7.6z"/><path fill="#CBB199" d="M52.7 528.7c.6-.1-4.2 1.7-11.2-1.5 0 0 1.6 3 5.6 3.2 4 .2-.2-.3 5.6-1.7z"/><path fill="#CBB199" d="M50.3 524.5l3.4-2.4s-1.9-3.9-2.7-5.2c-.8-1.3-.3.4.3 2.4s0 4.1-1 5.2z"/><path fill="#CAA558" d="M55.4 505.9c1.1 1.3 1 .6 1 .6s-1.2-2.1-2.7-2.4l-1.1.7s1.7-.3 2.8 1.1z"/><path fill="#CAA558" d="M40.1 506.9s2.8-1.7 5-1.4 1-1.2-1.6-.5c-2.7.7-3.4 1.9-3.4 1.9z"/><path fill="#5F5033" d="M55.5 510.5c0-.4-.3-.8-.8-.8-.4 0-.8.3-.8.8v2.7c0 .4.3.8.8.8.4 0 .8-.3.8-.8v-2.7z"/><path fill="#5F5033" d="M45.4 510.1c0-.5-.4-.9-.9-.9s-.9.4-.9.9v3.5c0 .5.4.9.9.9s.9-.4.9-.9v-3.5z"/><path fill="#CBB199" d="M42.4 509.5c.4-.1 2.7-1.1 3.6-1.1l-1.8-1.2-1.8 2.3z"/><polygon fill="#CBB199" points="52.7,508.8 56.4,508.4 54.7,507.2"/><path fill="#CAA558" d="M32 508.5s5.4-.8 14.8-5.4c9.3-4.6 7.6-4 7.6-4l4.2 4.6s.4-1.2.5-2.7c.1-1.1 0-2.2-.5-3.2-1.1-2.2-2-2-2-2s-3.6-9.8-16.9-6.3c-13.3 3.6-11.8 10.8-12 12.5-.2 1.7 0 3.5 0 4.6s1.1 4.4 2.4 5.6c1.3 1.1 1.9 4.7 1.9 4.7l.1-7.7-.1-.7z"/><circle fill="#BB5E82" cx="208.4" cy="448.2" r="8"/><circle fill="#AA5578" cx="218.9" cy="446.7" r="7.8"/><circle fill="#BB5E82" cx="226" cy="442.9" r="7"/><path fill="#BB5E82" d="M206.7 454.3c-.3.1 1.8 10.6 1.4 17.3 0 0 .5-15.4-.3-18.1l-1.1.8z"/><path fill="#AA5578" d="M217.4 452.9c-.3.4-4 14.2.8 19.3 0 0-3.8-12.3.1-18l-.9-1.3z"/><path fill="#BB5E82" d="M226.2 448.6s-3 11.5 3.8 16.5c0 0-6.4-7.5-2.5-16.5h-1.3z"/><ellipse transform="matrix(.997 .072 -.072 .997 38.224 -55.947)" fill-rule="evenodd" clip-rule="evenodd" fill="#548962" cx="797.2" cy="503.7" rx="14.4" ry="11.9"/><ellipse transform="matrix(.997 .072 -.072 .997 38.59 -54.091)" fill-rule="evenodd" clip-rule="evenodd" fill="#548962" cx="771.3" cy="509.4" rx="14.5" ry="11.9"/><ellipse transform="matrix(.795 .606 -.606 .795 472.582 -366.172)" fill-rule="evenodd" clip-rule="evenodd" fill="#588E65" cx="778.7" cy="516.9" rx="14.5" ry="11.9"/><ellipse transform="matrix(.206 .978 -.978 .206 1127.847 -368.773)" fill-rule="evenodd" clip-rule="evenodd" fill="#4C805A" cx="791.3" cy="511" rx="14.5" ry="11.9"/><ellipse transform="matrix(.206 .978 -.978 .206 1144.881 -387.063)" fill-rule="evenodd" clip-rule="evenodd" fill="#51855F" cx="811.1" cy="512.3" rx="14.5" ry="11.9"/><ellipse transform="matrix(.997 .072 -.072 .997 38.934 -55.616)" fill-rule="evenodd" clip-rule="evenodd" fill="#548962" cx="792.6" cy="513.4" rx="14.4" ry="11.9"/><path fill-rule="evenodd" clip-rule="evenodd" fill="#F27B27" d="M715.4 493.5s-6.3-1.7-6.8 5.4c-.5 7.1 7.2 6.1 9 5.2 1.8-.9 3.4.6 5.2-.2 1.8-.9 5-12-4.7-10.6-9.9 1.6-1.6.6-2.7.2z"/><path fill-rule="evenodd" clip-rule="evenodd" fill="#F27B27" d="M713.7 494.1c.3-.1.7-.1 1.1-.2-.5.1-.8.1-1.1.2z"/><path fill-rule="evenodd" clip-rule="evenodd" fill="#F27B27" d="M713.7 494.1c-.8.1-.6.1 0 0z"/><path fill-rule="evenodd" clip-rule="evenodd" fill="#F27B27" d="M714.8 493.9c.5-.1.9-.3.6-.4 0 0-.2 0-.4-.1l-1.2.6c.2 0 .5 0 1-.1z"/><path fill-rule="evenodd" clip-rule="evenodd" fill="#F27C21" d="M711.2 498.7c.3 2.5 1.6 4.5 3.5 6.1 1.2-.1 2.3-.3 2.8-.6 1.8-.9 3.4.6 5.2-.2 1.8-.9 5-12-4.7-10.6-1.4.2-2.5.4-3.2.5-.4.1-.8.2-1.1.2-1.5 1-2.4 2.4-2.5 4.6z"/><path fill-rule="evenodd" clip-rule="evenodd" fill="#DD7127" d="M711.2 498.7c0-2.2 1-3.6 2.5-4.6-.6.1-.8.1.1 0 .4-.2.8-.5 1.2-.6-1.4-.2-6-.6-6.4 5.5-.4 5 3.3 6 6.2 5.8-1.9-1.6-3.3-3.5-3.6-6.1z"/><path fill-rule="evenodd" clip-rule="evenodd" fill="#F27B27" d="M720 492.3s-5.3-.6-4.8 5.2c.5 5.7 6.5 3.9 7.8 3l4.1-.8c1.3-.9 2.5-10.2-5.1-7.8-7.5 2.4-1 .6-2 .4z"/><path fill-rule="evenodd" clip-rule="evenodd" fill="#F27B27" d="M718.7 493l.8-.3-.8.3z"/><path fill-rule="evenodd" clip-rule="evenodd" fill="#F27B27" d="M718.7 493c-.6.2-.4.2 0 0z"/><path fill-rule="evenodd" clip-rule="evenodd" fill="#F27B27" d="M719.6 492.7c.4-.2.7-.3.4-.4h-.3c-.3.2-.6.4-.9.7.2-.1.4-.2.8-.3z"/><path fill-rule="evenodd" clip-rule="evenodd" fill="#F79328" d="M717.4 497c.6 2 1.9 3.4 3.5 4.4.9-.2 1.7-.6 2.1-.8l4.1-.8c1.3-.9 2.5-10.2-5.1-7.8-1.1.4-1.9.6-2.5.8-.3.1-.6.2-.8.3-1 .9-1.6 2.2-1.3 3.9z"/><path fill-rule="evenodd" clip-rule="evenodd" fill="#DD7127" d="M717.4 497c-.2-1.7.4-3 1.4-4-.4.1-.6.2.1 0l.9-.7c-1.1 0-4.9.3-4.4 5.2.3 4 3.4 4.3 5.7 3.9-1.9-1.1-3.2-2.4-3.7-4.4z"/><path fill-rule="evenodd" clip-rule="evenodd" fill="#F27B27" d="M726.7 495.6s-3-1.6-5 .9-.5 8.9 4.4 7.9c0 0 .8-.2 1.2.1.4.3 5.6.7 5.1-7.4 0-.1-1.8-4-5.7-1.5z"/><path fill-rule="evenodd" clip-rule="evenodd" fill="#DD7127" d="M723.5 499.3c-.5-1.4.8-3.2 2.7-4-.9-.3-3-.9-4.5 1.1-1.9 2.4-.6 8.6 4 7.9-1.3-1.4-2.1-3.2-2.2-5z"/><path fill-rule="evenodd" clip-rule="evenodd" fill="#F37028" d="M732.1 490.7s3-1.6 5 .9.5 8.9-4.4 7.9c0 0-.8-.2-1.2.1-.4.3-5.6.7-5.1-7.4 0-.1 1.8-4 5.7-1.5z"/><path fill-rule="evenodd" clip-rule="evenodd" fill="#DD7127" d="M735.3 494.5c.5-1.4-.8-3.2-2.7-4 .9-.3 3-.9 4.5 1.1 1.9 2.4.6 8.6-4 7.9 1.2-1.5 2.1-3.2 2.2-5z"/><path fill-rule="evenodd" clip-rule="evenodd" fill="#F27B27" d="M737.9 494.9s-6.3-1.7-6.8 5.4c-.5 7.1 7.2 6.1 9 5.2 1.8-.9 3.4.6 5.2-.2 1.8-.9 5-12-4.7-10.6-9.8 1.5-1.5.6-2.7.2z"/><path fill-rule="evenodd" clip-rule="evenodd" fill="#F27B27" d="M736.2 495.5c.3-.1.7-.1 1.1-.2-.4 0-.7.1-1.1.2z"/><path fill-rule="evenodd" clip-rule="evenodd" fill="#F27B27" d="M736.2 495.5c-.8.1-.5.1 0 0z"/><path fill-rule="evenodd" clip-rule="evenodd" fill="#F27B27" d="M737.3 495.3c.5-.1.9-.3.6-.4 0 0-.2 0-.4-.1l-1.2.6c.3 0 .6-.1 1-.1z"/><path fill-rule="evenodd" clip-rule="evenodd" fill="#F27C21" d="M733.8 500.1c.3 2.5 1.6 4.5 3.5 6.1 1.2-.1 2.3-.3 2.8-.6 1.8-.9 3.4.6 5.2-.2 1.8-.9 5-12-4.7-10.6-1.4.2-2.5.4-3.2.5-.4.1-.8.2-1.1.2-1.5 1-2.5 2.4-2.5 4.6z"/><path fill-rule="evenodd" clip-rule="evenodd" fill="#DD7127" d="M733.8 500.1c0-2.2 1-3.6 2.5-4.6-.6.1-.8.1.1 0 .4-.2.8-.5 1.2-.6-1.4-.2-6-.6-6.4 5.5-.4 5 3.3 6 6.2 5.8-2-1.6-3.3-3.6-3.6-6.1z"/><path fill-rule="evenodd" clip-rule="evenodd" fill="#F27B27" d="M704.1 496.3s-6.3-1.7-6.8 5.4c-.5 7.1 7.2 6.1 9 5.2 1.8-.9 3.4.6 5.2-.2 1.8-.9 5-12-4.7-10.6-9.9 1.5-1.5.5-2.7.2z"/><path fill-rule="evenodd" clip-rule="evenodd" fill="#F27B27" d="M702.4 496.9c.3-.1.7-.1 1.1-.2-.5 0-.8.1-1.1.2.1-.1 0-.1 0 0z"/><path fill-rule="evenodd" clip-rule="evenodd" fill="#F27B27" d="M702.4 496.9c0-.1.1-.1 0 0-.8.1-.6 0 0 0z"/><path fill-rule="evenodd" clip-rule="evenodd" fill="#F27B27" d="M703.5 496.6c.5-.1.9-.3.6-.4 0 0-.2 0-.4-.1l-1.2.6c.2.1.5 0 1-.1z"/><path fill-rule="evenodd" clip-rule="evenodd" fill="#F27C21" d="M699.9 501.4c.3 2.5 1.6 4.5 3.5 6.1 1.2-.1 2.3-.3 2.8-.6 1.8-.9 3.4.6 5.2-.2 1.8-.9 5-12-4.7-10.6-1.4.2-2.5.4-3.2.5-.4.1-.8.2-1.1.2-1.4 1-2.4 2.5-2.5 4.6z"/><path fill-rule="evenodd" clip-rule="evenodd" fill="#DD7127" d="M699.9 501.4c0-2.2 1-3.6 2.5-4.6-.6.1-.8.1.1 0 .4-.2.8-.5 1.2-.6-1.4-.2-6-.6-6.4 5.5-.4 5 3.3 6 6.2 5.8-1.9-1.6-3.3-3.5-3.6-6.1z"/><path fill-rule="evenodd" clip-rule="evenodd" fill="#F27B27" d="M712.4 498.1s-5.3-.6-4.8 5.2c.5 5.7 6.5 3.9 7.8 3l4.1-.8c1.3-.9 2.5-10.2-5.1-7.8-7.5 2.3-1 .5-2 .4z"/><path fill-rule="evenodd" clip-rule="evenodd" fill="#F27B27" d="M711.1 498.8l.8-.3c-.3.1-.5.1-.8.3.1-.1 0-.1 0 0z"/><path fill-rule="evenodd" clip-rule="evenodd" fill="#F27B27" d="M711.1 498.8c0-.1.1-.1 0 0-.6.1-.4.1 0 0z"/><path fill-rule="evenodd" clip-rule="evenodd" fill="#F27B27" d="M712 498.4c.4-.2.7-.3.4-.4h-.3c-.3.2-.6.4-.9.7.2-.1.4-.1.8-.3z"/><path fill-rule="evenodd" clip-rule="evenodd" fill="#F79328" d="M709.7 502.7c.6 2 1.9 3.4 3.5 4.4.9-.2 1.8-.6 2.1-.8l4.1-.8c1.3-.9 2.5-10.2-5.1-7.8-1.1.4-1.9.6-2.5.8-.3.1-.6.2-.8.3-.9.9-1.5 2.2-1.3 3.9z"/><path fill-rule="evenodd" clip-rule="evenodd" fill="#DD7127" d="M709.7 502.7c-.2-1.7.4-3 1.4-4-.4.1-.6.2.1-.1l.9-.7c-1.1 0-4.9.3-4.4 5.2.3 4 3.4 4.3 5.7 3.9-1.8-.9-3.1-2.3-3.7-4.3z"/><path fill-rule="evenodd" clip-rule="evenodd" fill="#F27B27" d="M723 497.3s-3-1.6-5 .9-.5 8.9 4.4 7.9c0 0 .8-.2 1.2.1.4.3 5.6.7 5.1-7.4.1-.1-1.8-3.9-5.7-1.5z"/><path fill-rule="evenodd" clip-rule="evenodd" fill="#DD7127" d="M719.9 501.1c-.5-1.4.8-3.2 2.7-4-.9-.3-3-.9-4.5 1.1-1.9 2.4-.6 8.6 4 7.9-1.3-1.5-2.2-3.2-2.2-5z"/><path fill-rule="evenodd" clip-rule="evenodd" fill="#F37028" d="M735 497.1s3-1.6 5 .9.5 8.9-4.4 7.9c0 0-.8-.2-1.2.1-.4.3-5.6.7-5.1-7.4-.1-.1 1.8-4 5.7-1.5z"/><path fill-rule="evenodd" clip-rule="evenodd" fill="#DD7127" d="M738.1 500.9c.5-1.4-.8-3.2-2.7-4 .9-.3 3-.9 4.5 1.1 1.9 2.4.6 8.6-4 7.9 1.3-1.5 2.1-3.2 2.2-5z"/><path fill-rule="evenodd" clip-rule="evenodd" fill="#F27B27" d="M746.6 497.2s-6.3-1.7-6.8 5.4c-.5 7.1 7.2 6.1 9 5.2 1.8-.9 3.4.6 5.2-.2 1.8-.9 5-12-4.7-10.6-9.8 1.5-1.5.6-2.7.2z"/><path fill-rule="evenodd" clip-rule="evenodd" fill="#F27B27" d="M744.9 497.8c.3-.1.7-.1 1.1-.2l-1.1.2z"/><path fill-rule="evenodd" clip-rule="evenodd" fill="#F27B27" d="M744.9 497.8c-.8.1-.5.1 0 0z"/><path fill-rule="evenodd" clip-rule="evenodd" fill="#F27B27" d="M746 497.6c.5-.1.9-.3.6-.4 0 0-.2 0-.4-.1l-1.2.6c.3 0 .6 0 1-.1z"/><path fill-rule="evenodd" clip-rule="evenodd" fill="#F27C21" d="M742.5 502.4c.3 2.5 1.6 4.5 3.5 6.1 1.2-.1 2.3-.3 2.8-.6 1.8-.9 3.4.6 5.2-.2 1.8-.9 5-12-4.7-10.6-1.4.2-2.5.4-3.2.5-.4.1-.8.2-1.1.2-1.5 1-2.5 2.4-2.5 4.6z"/><path fill-rule="evenodd" clip-rule="evenodd" fill="#DD7127" d="M742.5 502.4c0-2.2 1-3.6 2.5-4.6-.6.1-.8.1.1 0 .4-.2.8-.5 1.2-.6-1.4-.2-6-.6-6.4 5.5-.4 5 3.3 6 6.2 5.8-2-1.6-3.3-3.6-3.6-6.1z"/><path fill-rule="evenodd" clip-rule="evenodd" fill="#868332" d="M681.1 500.6c.2 0 11.6-6.2 2.3-11.7 0 0-2.9-1.3-3.3-2.1-.4-.8-1-.3-1.1.1-.1.4-1.6.9-2.3.9s-.3-.3-.8-.3-1.4.9-1.5 1.5c-.1.6-.3-.4-.9-.1-.6.3-2.3 2.9-2.2 5.2.1 2.3 3.2 5.6 5.2 6.3 1.9.7 3.1.6 4.6.2z"/><path fill-rule="evenodd" clip-rule="evenodd" fill="#938F37" d="M679.4 501s2.5-2.1 2.9-3.8c.4-1.6 1-.6 1.2.3.2.8 1.8-1.5 1.5-2.4-.3-.9.3-1.2.8-.7s-.8-2.6-1.4-3.4c-.6-.8.3-.7 1.3-.3s-1.7-.7-2.4-1.3c-.6-.6-.1-1.5 2.3.4s3.4 7.3-1.7 9.9c-5.1 2.7-4.5 1.3-4.5 1.3z"/><path fill-rule="evenodd" clip-rule="evenodd" fill="#8E8A34" d="M677.3 501.8s-4.5-1.4-6.6-5.6c-2-4.2 2.1-7.2 2.1-7.2s.8-.1.6.5c-.3.6-1.2 1.9-.2 2 1 .1 1.5 1.4.6 2.4s-1.5 2.7-.4 2.6c1.1-.1 3-.2 3.1 1.3.1 1.5-.2 3.7.8 4z"/><path fill-rule="evenodd" clip-rule="evenodd" fill="#989339" d="M679.4 502.1s8.2-3.6 5.5-5.3c-2.7-1.7 2.4-3.2.6-5-1.8-1.8-3.9-1.1-3.2-2.7s-2.7-2-4-1.9c-1.3.1-2.3 2.6-1.5 3.9.8 1.3-2.3.1-3 2.4-.7 2.3 3.4 2.5 3.4 3.8 0 1.3-7-.1-3.6 2 3.2 2.3 1.5 2.2 5.8 2.8z"/><path fill-rule="evenodd" clip-rule="evenodd" fill="#8E8A34" d="M679.1 502.1s1.9-2.1 1.9-4c.1-2 1.8-.8 1.8-.8s-.7-.8-1.2-.8-1-2-.4-2.6c.6-.6 2-1 2-1s-.9-.2-1.8.3c-.9.4-.9-.1-.7-1.6.2-1.4-1.7-3.3-1.7-3.3s1.8 2.5 1.2 4.1c-.6 1.6-.6.9-1.4.4-.7-.5-1.7-.4-1.7-.4s1.9.5 2.1 1.3c.2.8.7 2.8-.1 3-.7.1-1-.4-1.6.2 0 0 .6-.3 1.2.1.8.4 2.5 1.3.4 5.1z"/><path fill-rule="evenodd" clip-rule="evenodd" fill="#868332" d="M663.3 486.5c.2 0 12.4 4.1 4.2 11.2 0 0-2.6 1.8-2.9 2.7-.3.9-1 .5-1.2.1-.2-.4-1.7-.7-2.4-.5-.7.1-.2.4-.7.5-.5.1-1.5-.7-1.7-1.3-.2-.6-.2.4-.8.3-.6-.2-2.8-2.5-3.1-4.8-.3-2.3 2.2-6 4.1-7 1.9-1.3 3-1.3 4.5-1.2z"/><path fill-rule="evenodd" clip-rule="evenodd" fill="#938F37" d="M661.6 486.3s2.8 1.6 3.5 3.2 1.1.4 1.1-.5c0-.8 2 1.1 1.8 2.1-.2 1 .5 1.2 1 .6s-.3 2.7-.8 3.6c-.5.9.4.7 1.4.1 1-.6-1.6 1-2.1 1.7s.1 1.5 2.2-.8 2.1-7.7-3.3-9.5c-5.6-1.6-4.8-.5-4.8-.5z"/><path fill-rule="evenodd" clip-rule="evenodd" fill="#8E8A34" d="M659.5 486s-4.2 2.1-5.5 6.6l3.3 6.8s.8 0 .5-.6c-.4-.6-1.5-1.7-.5-2 .9-.3 1.3-1.7.2-2.4-1.1-.8-2-2.4-.8-2.5 1.1-.1 3-.3 2.8-1.8-.4-1.5-1-3.7 0-4.1z"/><path fill-rule="evenodd" clip-rule="evenodd" fill="#989339" d="M661.4 485.3s8.7 2.1 6.3 4.3c-2.4 2.1 2.9 2.8 1.4 4.9-1.4 2.1-3.7 1.7-2.7 3.2.9 1.5-2.4 2.4-3.7 2.5-1.3.1-2.7-2.1-2.2-3.6.6-1.4-2.3.3-3.3-1.8-1.1-2.1 2.9-3.1 2.7-4.3-.2-1.3-6.9 1.3-3.9-1.4 2.9-2.8 1.3-2.5 5.4-3.8z"/><path fill-rule="evenodd" clip-rule="evenodd" fill="#8E8A34" d="M661.2 485.4s2.2 1.7 2.6 3.6c.4 1.9 1.9.5 1.9.5s-.5.9-1 1c-.5.1-.6 2.2.1 2.7s2.1.7 2.1.7-.8.3-1.8 0-.9.3-.5 1.7-1.1 3.5-1.1 3.5 1.4-2.8.5-4.3c-.9-1.5-.8-.8-1.4-.2-.6.6-1.6.7-1.6.7s1.8-.8 1.9-1.6.2-2.9-.6-2.9c-.7 0-.9.6-1.6.1 0 0 .6.2 1.2-.3.4-.7 2-1.8-.7-5.2z"/><path fill-rule="evenodd" clip-rule="evenodd" fill="#868332" d="M645.4 500.9c-.2-.1-10.4-8-.4-11.9 0 0 3-.8 3.6-1.6.5-.7 1.1-.1 1.1.3s1.4 1.2 2.1 1.3c.7.1.3-.3.9-.2.5.1 1.2 1.1 1.2 1.8s.3-.3.9 0c.6.4 1.8 3.3 1.4 5.5-.5 2.2-4.1 5-6.1 5.3s-3.3.1-4.7-.5z"/><path fill-rule="evenodd" clip-rule="evenodd" fill="#938F37" d="M646.9 501.6s-2.2-2.5-2.3-4.2c-.1-1.7-.9-.7-1.2.1-.3.8-1.5-1.7-1.1-2.6.5-.9-.1-1.3-.7-.9s1.2-2.4 1.9-3.2c.8-.7-.1-.8-1.3-.5-1.1.3 1.8-.4 2.6-.9.7-.5.4-1.5-2.3 0-2.7 1.5-4.5 6.6.1 10 4.7 3.6 4.3 2.2 4.3 2.2z"/><path fill-rule="evenodd" clip-rule="evenodd" fill="#8E8A34" d="M648.9 502.7s4.7-.7 7.4-4.5-.9-7.5-.9-7.5-.8-.3-.6.4c.2.7.9 2.1-.1 2-1-.1-1.7 1.2-1 2.3.8 1.1 1.1 2.9 0 2.6-1.1-.2-3-.7-3.2.8s-.6 3.8-1.6 3.9z"/><path fill-rule="evenodd" clip-rule="evenodd" fill="#989339" d="M646.8 502.7s-7.6-4.9-4.6-6.1c3-1.2-1.8-3.6.2-5.1 2-1.5 4-.4 3.6-2.1-.4-1.7 3-1.6 4.3-1.2 1.3.3 1.9 2.9.9 4.1-1 1.2 2.2.5 2.6 2.8.3 2.4-3.7 1.9-3.9 3.2-.2 1.3 6.9 1 3.3 2.6s-2.1 1.9-6.4 1.8z"/><path fill-rule="evenodd" clip-rule="evenodd" fill="#8E8A34" d="M647 502.7s-1.5-2.3-1.3-4.3c.2-1.9-1.6-1.1-1.6-1.1s.8-.6 1.3-.6c.5.1 1.3-1.8.8-2.6-.5-.7-1.8-1.3-1.8-1.3s.9 0 1.8.6.9 0 1-1.4c0-1.4 2.2-2.9 2.2-2.9s-2.2 2.2-1.8 3.9c.4 1.7.5 1 1.3.6.8-.3 1.8-.1 1.8-.1s-2 .2-2.3.9c-.3.7-1.1 2.7-.4 2.9.7.2 1.1-.3 1.6.4 0 0-.5-.4-1.2-.1-1 .4-2.8 1-1.4 5.1z"/><path fill-rule="evenodd" clip-rule="evenodd" fill="#868332" d="M642.2 507.1c.2 0 11.5-4.9 3.2-11 0 0-2.6-1.5-2.9-2.3-.3-.8-1-.4-1.1 0-.1.4-1.6.8-2.3.7-.7-.1-.2-.3-.7-.4-.5-.1-1.4.7-1.6 1.3s-.2-.4-.8-.2c-.6.2-2.5 2.6-2.6 4.8-.1 2.2 2.6 5.6 4.4 6.4 1.9.9 3 .9 4.4.7z"/><path fill-rule="evenodd" clip-rule="evenodd" fill="#938F37" d="M640.6 507.4s2.6-1.8 3.1-3.3 1-.4 1.1.4c.1.8 1.8-1.2 1.6-2.1-.2-.9.4-1.2.9-.6.5.5-.5-2.5-1.1-3.4-.5-.9.3-.7 1.3-.2 1 .5-1.6-.8-2.2-1.4-.6-.6 0-1.4 2.2.6s2.6 7.2-2.4 9.3c-5.2 1.9-4.5.7-4.5.7z"/><path fill-rule="evenodd" clip-rule="evenodd" fill="#8E8A34" d="M638.5 507.9s-4.2-1.7-5.8-5.9c-1.6-4.2 2.6-6.7 2.6-6.7s.8-.1.5.5c-.3.6-1.3 1.7-.4 1.9.9.2 1.3 1.5.4 2.3-1 .8-1.7 2.4-.6 2.4s2.9.1 2.8 1.5c0 1.5-.4 3.7.5 4z"/><path fill-rule="evenodd" clip-rule="evenodd" fill="#989339" d="M640.5 508.4s8.1-2.7 5.7-4.6c-2.5-1.8 2.5-2.9 1-4.8s-3.6-1.3-2.8-2.8c.8-1.5-2.4-2.1-3.7-2.1-1.3 0-2.4 2.2-1.8 3.6s-2.2-.1-3 2c-.9 2.1 3 2.7 2.9 3.9-.1 1.2-6.7-.7-3.6 1.6 2.8 2.4 1.3 2.3 5.3 3.2z"/><path fill-rule="evenodd" clip-rule="evenodd" fill="#8E8A34" d="M640.2 508.3s1.9-1.8 2.2-3.7c.2-1.9 1.8-.6 1.8-.6s-.6-.8-1-.8c-.5-.1-.8-2-.1-2.6.6-.5 2-.8 2-.8s-.8-.2-1.8.1c-.9.3-.9-.2-.6-1.5.3-1.3-1.4-3.2-1.4-3.2s1.5 2.5.8 4-.7.8-1.3.3c-.7-.5-1.6-.5-1.6-.5s1.8.6 1.9 1.4c.1.8.4 2.8-.3 2.8-.7.1-.9-.5-1.6 0 0 0 .6-.2 1.2.2.6.5 2.1 1.5-.2 4.9z"/><path fill-rule="evenodd" clip-rule="evenodd" fill="#868332" d="M676.9 504.3c.1-.1 3.5-12-6.5-9.4 0 0-2.8 1.1-3.6.8-.8-.3-.9.5-.7.9.2.4-.4 1.7-.9 2.2-.5.5-.4 0-.8.3-.4.4-.3 1.5.1 2.1s-.4-.1-.7.5c-.2.6.5 3.6 2.1 5s5.9 1.5 7.8.6c1.8-.9 2.5-1.7 3.2-3z"/><path fill-rule="evenodd" clip-rule="evenodd" fill="#938F37" d="M676.1 505.7s.2-3.1-.6-4.5c-.9-1.3.3-1.1 1-.6.7.5.2-2.2-.7-2.6-.8-.4-.7-1 .1-1.1.7-.1-2.3-1.2-3.3-1.3s-.3-.7.7-1.1c1-.4-1.6.7-2.5.8-.8 0-1.1-.9 1.8-1.3 2.9-.4 7.3 2.5 5.7 7.8-1.7 5.2-2.2 3.9-2.2 3.9z"/><path fill-rule="evenodd" clip-rule="evenodd" fill="#8E8A34" d="M675.2 507.6s-4 2.2-8.2.8c-4.2-1.4-3.5-6.3-3.5-6.3s.4-.7.7 0c.3.6.5 2.1 1.3 1.5.7-.6 2-.1 2 1.2s.8 2.8 1.5 2 1.9-2.2 2.9-1.2c1.1.9 2.4 2.6 3.3 2z"/><path fill-rule="evenodd" clip-rule="evenodd" fill="#989339" d="M676.8 506.5s3-8 0-7.3c-3 .8-.6-3.8-3.1-3.8-2.4 0-3.3 2-4 .4-.7-1.5-3.2.5-4 1.5-.8 1 .2 3.3 1.6 3.7 1.4.3-1.4 1.6-.4 3.6 1.1 2 4-.6 4.9.3.9.9-4.8 4.7-1 3.9 3.9-.9 2.8.2 6-2.3z"/><path fill-rule="evenodd" clip-rule="evenodd" fill="#8E8A34" d="M676.6 506.6s-.2-2.6-1.5-4c-1.3-1.3.6-1.7.6-1.7s-1 0-1.3.3c-.3.3-2-.7-2.1-1.5 0-.8.6-2.1.6-2.1s-.7.5-1 1.4c-.3.9-.7.6-1.6-.5-.8-1.1-3.4-1-3.4-1s2.9.4 3.6 1.9c.7 1.5.2 1-.6 1.2-.8.2-1.4.9-1.4.9s1.6-1 2.3-.6 2.4 1.4 2 2c-.4.6-1 .4-1 1.2 0 0 .2-.6.9-.8 1-.1 2.7-.6 3.9 3.3z"/><path fill-rule="evenodd" clip-rule="evenodd" fill="#868332" d="M659.7 506.6c.2-.1 10.1-7.4.6-11.4 0 0-2.9-.9-3.4-1.6-.5-.7-1-.1-1.1.3-.1.4-1.4 1.1-2.1 1.2-.7.1-.3-.3-.8-.2-.5.1-1.2 1-1.2 1.7 0 .6-.3-.3-.8 0s-1.8 3.1-1.4 5.3c.4 2.2 3.8 4.8 5.8 5.2 2 .3 3 0 4.4-.5z"/><path fill-rule="evenodd" clip-rule="evenodd" fill="#938F37" d="M658.2 507.2s2.1-2.3 2.2-3.9c.1-1.6.9-.7 1.1.1.3.8 1.5-1.6 1.1-2.4-.4-.8.1-1.2.7-.8.6.4-1.1-2.3-1.8-3-.7-.7.2-.7 1.2-.5 1.1.3-1.7-.4-2.4-.9s-.3-1.4 2.2 0c2.6 1.4 4.2 6.4-.3 9.6-4.4 3.2-4 1.8-4 1.8z"/><path fill-rule="evenodd" clip-rule="evenodd" fill="#8E8A34" d="M656.3 508.2s-4.5-.7-7-4.4 1-7.1 1-7.1.8-.3.6.4c-.2.6-.9 2 .1 2 .9 0 1.6 1.1.9 2.2-.7 1-1.1 2.7 0 2.5 1.1-.2 2.8-.6 3.1.8.3 1.3.3 3.5 1.3 3.6z"/><path fill-rule="evenodd" clip-rule="evenodd" fill="#989339" d="M658.3 508.3s7.3-4.5 4.5-5.7c-2.8-1.2 1.8-3.4-.1-4.9-1.9-1.5-3.8-.5-3.4-2.1s-2.9-1.5-4.1-1.2c-1.2.3-1.9 2.7-.9 3.9.9 1.1-2.1.4-2.5 2.7-.4 2.2 3.5 1.9 3.7 3.2.2 1.2-6.7.8-3.2 2.4 3.5 1.5 1.9 1.7 6 1.7z"/><path fill-rule="evenodd" clip-rule="evenodd" fill="#8E8A34" d="M658.1 508.2s1.5-2.2 1.3-4c-.2-1.9 1.6-1 1.6-1s-.7-.6-1.2-.6c-.5.1-1.2-1.8-.7-2.5s1.8-1.2 1.8-1.2-.9-.1-1.7.5c-.8.6-.9 0-.9-1.4s-2.1-2.8-2.1-2.8 2.1 2.1 1.7 3.7c-.4 1.6-.5.9-1.2.6-.8-.3-1.7-.2-1.7-.2s1.9.2 2.2.9c.3.7 1 2.6.3 2.8-.7.2-1-.3-1.5.4 0 0 .5-.4 1.2 0 .6.4 2.3 1 .9 4.8z"/><path fill-rule="evenodd" clip-rule="evenodd" fill="#868332" d="M680.1 500c0 .2.7 12.5 9.2 6.7 0 0 2.3-2 3.2-2 .9 0 .7-.8.3-1.1-.3-.3-.2-1.8.1-2.4.3-.6.4-.1.6-.6.2-.5-.2-1.6-.7-1.9-.5-.4.4-.1.5-.7 0-.6-1.6-3.2-3.6-4-2-.8-6.1.6-7.5 2-1.4 1.6-1.8 2.6-2.1 4z"/><path fill-rule="evenodd" clip-rule="evenodd" fill="#938F37" d="M680.4 498.4s.8 3 2.1 4 .1 1.1-.7.9c-.8-.2.6 2.1 1.5 2.2.9.1 1 .7.3 1-.7.3 2.6.4 3.5.1 1-.2.5.5-.3 1.3s1.3-1.2 2.1-1.5c.8-.3 1.3.5-1.3 1.9s-7.7 0-7.9-5.4c-.2-5.5.7-4.5.7-4.5z"/><path fill-rule="evenodd" clip-rule="evenodd" fill="#8E8A34" d="M680.6 496.3s3-3.4 7.5-3.5c4.5-.1 5.4 4.7 5.4 4.7s-.2.8-.7.3c-.5-.5-1.2-1.8-1.7-1s-1.8.8-2.3-.4c-.5-1.2-1.7-2.4-2.1-1.4-.4 1-1.1 2.7-2.4 2.2-1.2-.5-3-1.7-3.7-.9z"/><path fill-rule="evenodd" clip-rule="evenodd" fill="#989339" d="M679.5 498s-.2 8.6 2.4 6.9c2.6-1.7 1.8 3.3 4.1 2.5 2.3-.8 2.5-3 3.6-1.7 1.1 1.2 2.8-1.6 3.3-2.8.4-1.2-1.3-3.1-2.8-2.9-1.5.2.8-2-.9-3.5-1.7-1.5-3.5 1.9-4.7 1.4-1.1-.5 2.9-6-.3-4-3.2 2-2.5.6-4.7 4.1z"/><path fill-rule="evenodd" clip-rule="evenodd" fill="#8E8A34" d="M679.6 497.8s1 2.4 2.7 3.3c1.7.8 0 1.9 0 1.9s.9-.3 1.1-.7c.2-.4 2.1 0 2.5.7.3.8.1 2.2.1 2.2s.5-.7.5-1.7.5-.8 1.6 0c1.2.7 3.5-.2 3.5-.2s-2.9.6-4.1-.6c-1.1-1.2-.5-.9.2-1.3.7-.5 1.1-1.3 1.1-1.3s-1.2 1.5-2 1.3c-.8-.1-2.7-.6-2.6-1.2.2-.7.8-.7.5-1.5 0 0 0 .6-.6 1-.5.3-2 1.4-4.5-1.9z"/><path fill-rule="evenodd" clip-rule="evenodd" fill="#F27B27" d="M697.8 506.7s-6.3-1.7-6.8 5.4c-.5 7.1 7.2 6.1 9 5.2 1.8-.9 3.4.6 5.2-.2 1.8-.9 5-12-4.7-10.6-9.8 1.6-1.5.6-2.7.2z"/><path fill-rule="evenodd" clip-rule="evenodd" fill="#F27B27" d="M696.1 507.3c.3-.1.7-.1 1.1-.2l-1.1.2z"/><path fill-rule="evenodd" clip-rule="evenodd" fill="#F27B27" d="M696.1 507.3c-.8.1-.5.1 0 0z"/><path fill-rule="evenodd" clip-rule="evenodd" fill="#F27B27" d="M697.2 507.1c.5-.1.9-.3.6-.4 0 0-.2 0-.4-.1l-1.2.6c.3 0 .6 0 1-.1z"/><path fill-rule="evenodd" clip-rule="evenodd" fill="#F27C21" d="M693.7 511.9c.3 2.5 1.6 4.5 3.5 6.1 1.2-.1 2.3-.3 2.8-.6 1.8-.9 3.4.6 5.2-.2 1.8-.9 5-12-4.7-10.6-1.4.2-2.5.4-3.2.5-.4.1-.8.2-1.1.2-1.5 1-2.5 2.4-2.5 4.6z"/><path fill-rule="evenodd" clip-rule="evenodd" fill="#DD7127" d="M693.7 511.9c0-2.2 1-3.6 2.5-4.6-.6.1-.8.1.1 0 .4-.2.8-.5 1.2-.6-1.4-.2-6-.6-6.4 5.5-.4 5 3.3 6 6.2 5.8-2-1.6-3.3-3.5-3.6-6.1z"/><path fill-rule="evenodd" clip-rule="evenodd" fill="#F27B27" d="M702.5 505.5s-5.3-.6-4.8 5.2c.5 5.7 6.5 3.9 7.8 3l4.1-.8s2.5-10.2-5.1-7.8c-7.5 2.4-1.1.6-2 .4z"/><path fill-rule="evenodd" clip-rule="evenodd" fill="#F27B27" d="M701.2 506.2l.8-.3c-.3.1-.6.2-.8.3z"/><path fill-rule="evenodd" clip-rule="evenodd" fill="#F27B27" d="M701.2 506.2c-.6.2-.4.2 0 0z"/><path fill-rule="evenodd" clip-rule="evenodd" fill="#F27B27" d="M702 505.9c.4-.2.7-.3.4-.4h-.3c-.3.2-.6.4-.9.7.2-.1.5-.2.8-.3z"/><path fill-rule="evenodd" clip-rule="evenodd" fill="#F79328" d="M699.8 510.2c.6 2 1.9 3.4 3.5 4.4.9-.2 1.7-.6 2.1-.8l4.1-.8s2.5-10.2-5.1-7.8c-1.1.4-1.9.6-2.5.8-.3.1-.6.2-.8.3-.9.9-1.5 2.1-1.3 3.9z"/><path fill-rule="evenodd" clip-rule="evenodd" fill="#DD7127" d="M699.8 510.2c-.2-1.7.4-3 1.4-4-.4.1-.6.2.1 0l.9-.7c-1.1 0-4.9.3-4.4 5.2.3 4 3.4 4.3 5.7 3.9-1.8-1.1-3.1-2.4-3.7-4.4z"/><path fill-rule="evenodd" clip-rule="evenodd" fill="#F27B27" d="M709.1 508.8s-3-1.6-5 .9-.5 8.9 4.4 7.9c0 0 .8-.2 1.2.1.4.3 5.6.7 5.1-7.4.1-.1-1.8-4-5.7-1.5z"/><path fill-rule="evenodd" clip-rule="evenodd" fill="#DD7127" d="M706 512.5c-.5-1.4.8-3.2 2.7-4-.9-.3-3-.9-4.5 1.1-1.9 2.4-.6 8.6 4 7.9-1.3-1.4-2.1-3.2-2.2-5z"/><path fill-rule="evenodd" clip-rule="evenodd" fill="#F37028" d="M714.6 503.9s3-1.6 5 .9.5 8.9-4.4 7.9c0 0-.8-.2-1.2.1-.4.3-5.6.7-5.1-7.4-.1-.1 1.8-4 5.7-1.5z"/><path fill-rule="evenodd" clip-rule="evenodd" fill="#DD7127" d="M717.7 507.7c.5-1.4-.8-3.2-2.7-4 .9-.3 3-.9 4.5 1.1 1.9 2.4.6 8.6-4 7.9 1.3-1.5 2.2-3.2 2.2-5z"/><path fill-rule="evenodd" clip-rule="evenodd" fill="#F27B27" d="M720.4 508.1s-6.3-1.7-6.8 5.4 7.2 6.1 9 5.2c1.8-.9 3.4.6 5.2-.2 1.8-.9 5-12-4.7-10.6-9.8 1.5-1.5.6-2.7.2z"/><path fill-rule="evenodd" clip-rule="evenodd" fill="#F27B27" d="M718.7 508.7c.3-.1.7-.1 1.1-.2-.4 0-.8.1-1.1.2z"/><path fill-rule="evenodd" clip-rule="evenodd" fill="#F27B27" d="M718.7 508.7c-.8.1-.5.1 0 0z"/><path fill-rule="evenodd" clip-rule="evenodd" fill="#F27B27" d="M719.8 508.5c.5-.1.9-.3.6-.4 0 0-.2 0-.4-.1l-1.2.6c.2 0 .6-.1 1-.1z"/><path fill-rule="evenodd" clip-rule="evenodd" fill="#F27C21" d="M716.3 513.3c.3 2.5 1.6 4.5 3.5 6.1 1.2-.1 2.3-.3 2.8-.6 1.8-.9 3.4.6 5.2-.2 1.8-.9 5-12-4.7-10.6-1.4.2-2.5.4-3.2.5-.4.1-.8.2-1.1.2-1.5.9-2.5 2.4-2.5 4.6z"/><path fill-rule="evenodd" clip-rule="evenodd" fill="#DD7127" d="M716.3 513.3c0-2.2 1-3.6 2.5-4.6-.6.1-.8.1.1-.1.4-.2.8-.5 1.2-.6-1.4-.2-6-.6-6.4 5.5-.4 5 3.3 6 6.2 5.8-2-1.6-3.3-3.5-3.6-6z"/><path fill-rule="evenodd" clip-rule="evenodd" fill="#F27B27" d="M716.4 503.1s-8.8-2.4-9.5 7.5c-.7 9.9 10 8.4 12.4 7.3s4.7.9 7.2-.3 6.9-16.6-6.6-14.6c-13.4 1.9-1.9.6-3.5.1z"/><path fill-rule="evenodd" clip-rule="evenodd" fill="#F27B27" d="M714 503.9c.4-.1 1-.2 1.5-.3-.6.1-1 .2-1.4.2 0 .1 0 .1-.1.1z"/><path fill-rule="evenodd" clip-rule="evenodd" fill="#F27B27" d="M714 503.9s.1 0 .1-.1c-1.2.3-.8.2-.1.1z"/><path fill-rule="evenodd" clip-rule="evenodd" fill="#F27B27" d="M715.5 503.6c.7-.2 1.3-.4.8-.5 0 0-.2-.1-.6-.1-.6.3-1.1.5-1.7.9l1.5-.3z"/><path fill-rule="evenodd" clip-rule="evenodd" fill="#F27C21" d="M710.6 510.3c.4 3.5 2.3 6.2 4.8 8.4 1.7-.1 3.1-.5 3.9-.8l7.2-.3c2.5-1.2 6.9-16.6-6.6-14.6-2 .3-3.4.5-4.4.7-.5.1-1.1.2-1.5.3-1.9 1.2-3.3 3.2-3.4 6.3z"/><path fill-rule="evenodd" clip-rule="evenodd" fill="#DD7127" d="M710.6 510.3c0-3 1.4-5 3.4-6.4-.8.1-1.1.1.1-.1.5-.3 1.1-.6 1.7-.9-1.9-.3-8.3-.8-8.9 7.6-.5 7 4.6 8.3 8.6 8.1-2.6-2.1-4.4-4.8-4.9-8.3z"/><path fill-rule="evenodd" clip-rule="evenodd" fill="#F27B27" d="M722.8 501.4s-7.3-.8-6.6 7.2c.7 8 9 5.5 10.8 4.2 1.8-1.3 3.9.1 5.7-1.1 1.8-1.3 3.4-14.1-7-10.8-10.5 3.3-1.5.8-2.9.5z"/><path fill-rule="evenodd" clip-rule="evenodd" fill="#F27B27" d="M721.1 502.4c.3-.1.8-.3 1.2-.4-.6.1-.9.2-1.2.4z"/><path fill-rule="evenodd" clip-rule="evenodd" fill="#F27B27" d="M721.1 502.4z"/><path fill-rule="evenodd" clip-rule="evenodd" fill="#F27B27" d="M722.2 502c.6-.2 1-.5.6-.5h-.5l-1.2.9c.3-.2.6-.3 1.1-.4z"/><path fill-rule="evenodd" clip-rule="evenodd" fill="#F79328" d="M719.1 507.9c.8 2.8 2.6 4.6 4.9 6.1 1.3-.3 2.4-.8 3-1.1 1.8-1.3 3.9.1 5.7-1.1 1.8-1.3 3.4-14.1-7-10.8-1.5.5-2.6.8-3.4 1.1-.4.2-.8.3-1.2.4-1.5 1.2-2.3 3-2 5.4z"/><path fill-rule="evenodd" clip-rule="evenodd" fill="#DD7127" d="M719.1 507.9c-.3-2.4.5-4.2 1.9-5.5-.6.2-.9.3.1-.1l1.2-.9c-1.6 0-6.7.4-6.1 7.2.5 5.6 4.7 6 7.8 5.3-2.3-1.4-4.1-3.3-4.9-6z"/><path fill-rule="evenodd" clip-rule="evenodd" fill="#F27B27" d="M732 505.9s-4.1-2.3-6.9 1.2c-2.7 3.5-.7 12.4 6.1 10.9 0 0 1.1-.3 1.7.1.6.4 7.8.9 7.1-10.2 0-.1-2.5-5.4-8-2z"/><path fill-rule="evenodd" clip-rule="evenodd" fill="#DD7127" d="M727.7 511.1c-.6-2 1.2-4.4 3.8-5.5-1.2-.5-4.2-1.2-6.3 1.5-2.7 3.4-.8 11.9 5.6 11-1.8-2.1-3-4.5-3.1-7z"/><path fill-rule="evenodd" clip-rule="evenodd" fill="#F37028" d="M739.6 499.2s4.1-2.3 6.9 1.2c2.7 3.5.7 12.4-6.1 10.9 0 0-1.1-.3-1.7.1-.6.4-7.8.9-7.1-10.2 0-.1 2.6-5.5 8-2z"/><path fill-rule="evenodd" clip-rule="evenodd" fill="#DD7127" d="M744 504.4c.6-2-1.2-4.4-3.8-5.5 1.2-.5 4.2-1.2 6.3 1.5 2.7 3.4.8 11.9-5.6 11 1.8-2.1 3-4.5 3.1-7z"/><path fill-rule="evenodd" clip-rule="evenodd" fill="#F27B27" d="M747.7 505s-8.8-2.4-9.5 7.5c-.7 9.9 10 8.4 12.4 7.3l7.2-.3c2.5-1.2 6.9-16.6-6.6-14.6-13.4 1.9-1.9.6-3.5.1z"/><path fill-rule="evenodd" clip-rule="evenodd" fill="#F27B27" d="M745.3 505.8c.4-.1 1-.2 1.5-.3-.6.1-1 .2-1.4.2 0 .1 0 .1-.1.1z"/><path fill-rule="evenodd" clip-rule="evenodd" fill="#F27B27" d="M745.3 505.8s.1 0 .1-.1c-1.2.2-.8.2-.1.1z"/><path fill-rule="evenodd" clip-rule="evenodd" fill="#F27B27" d="M746.8 505.5c.7-.2 1.3-.4.8-.5 0 0-.2-.1-.5-.1-.6.3-1.2.5-1.7.9.4-.1.8-.2 1.4-.3z"/><path fill-rule="evenodd" clip-rule="evenodd" fill="#F27C21" d="M741.9 512.2c.4 3.5 2.3 6.2 4.8 8.4 1.7-.1 3.1-.5 3.9-.8l7.2-.3c2.5-1.2 6.9-16.6-6.6-14.6-2 .3-3.4.5-4.4.7-.5.1-1.1.2-1.5.3-2 1.2-3.3 3.2-3.4 6.3z"/><path fill-rule="evenodd" clip-rule="evenodd" fill="#DD7127" d="M741.9 512.2c0-3 1.4-5 3.4-6.4-.8.1-1.1.1.1-.1.5-.3 1.1-.6 1.7-.9-1.9-.3-8.3-.8-8.9 7.6-.5 7 4.6 8.3 8.6 8.1-2.6-2.1-4.4-4.8-4.9-8.3z"/><path fill-rule="evenodd" clip-rule="evenodd" fill="#868332" d="M657.6 519.9c.2.2 15 7.9 14.2-6.1 0 0-.7-4-.1-5.1.6-1-.4-1.3-1-1.1-.5.2-2.2-1-2.7-1.8s.2-.5-.2-1.1c-.4-.6-2-.8-2.7-.5-.8.3.2-.6-.5-1-.7-.5-4.9-.4-7.2 1.4-2.4 1.8-3.6 7.5-2.9 10.1.6 2.7 1.6 3.8 3.1 5.2z"/><path fill-rule="evenodd" clip-rule="evenodd" fill="#938F37" d="M655.9 518.4s4.1 1.2 6.1.4c2-.8 1.3.7.5 1.4-.8.8 2.8.8 3.6-.2.8-1 1.5-.6 1.4.4-.1 1 2.2-2.7 2.6-4 .4-1.3 1-.3 1.3 1.2.3 1.5-.5-2.4-.3-3.5s1.5-1.2 1.3 2.7c-.2 4-5.3 8.9-11.8 5.4-6.6-3.5-4.7-3.8-4.7-3.8z"/><path fill-rule="evenodd" clip-rule="evenodd" fill="#8E8A34" d="M653.6 516.7s-1.8-5.9 1.2-11.1c3-5.2 9.3-3 9.3-3s.8.8-.1 1c-.9.2-2.9.1-2.3 1.3.6 1.1-.4 2.7-2.1 2.4-1.7-.3-4 .3-3.1 1.5.9 1.2 2.4 3.1.9 4.2-1.6 1.1-4.3 2.4-3.8 3.7z"/><path fill-rule="evenodd" clip-rule="evenodd" fill="#989339" d="M654.7 519.2s9.8 6.2 9.6 2c-.2-4.2 5.2.2 5.8-3 .7-3.2-1.7-4.9.5-5.4 2.2-.4.2-4.4-.9-5.7-1.1-1.3-4.4-.6-5.3 1.2-.8 1.8-1.8-2.4-4.7-1.5-2.9.9-.2 5.4-1.6 6.4-1.4.9-5-7.6-4.8-2.4.1 5.2-1 3.4 1.4 8.4z"/><path fill-rule="evenodd" clip-rule="evenodd" fill="#8E8A34" d="M654.6 518.9s3.5.5 5.7-.9c2.1-1.3 2.1 1.3 2.1 1.3s.3-1.3 0-1.8 1.5-2.5 2.6-2.3c1.1.2 2.6 1.4 2.6 1.4s-.4-1.1-1.6-1.8c-1.2-.7-.5-1.1 1.1-1.9 1.7-.8 2.2-4.2 2.2-4.2s-1.4 3.8-3.5 4.3c-2.2.5-1.4 0-1.4-1.1s-.8-2.1-.8-2.1.9 2.4.2 3.2c-.7.8-2.6 2.8-3.2 2.1-.7-.7-.3-1.4-1.4-1.6 0 0 .7.4.8 1.4-.1.9.2 3.4-5.4 4z"/><path fill-rule="evenodd" clip-rule="evenodd" fill="#868332" d="M700.4 518c.2-.1 11.2-12.8-2.6-15.2 0 0-4.1-.3-4.9-1.1-.9-.8-1.4.1-1.3.7.1.6-1.5 1.9-2.4 2.2-.9.3-.5-.3-1.1 0-.7.2-1.3 1.7-1.1 2.6.2.8-.5-.3-1.1.2-.6.6-1.5 4.6-.3 7.4 1.2 2.7 6.4 5.3 9.2 5.2 2.7-.3 4-.9 5.6-2z"/><path fill-rule="evenodd" clip-rule="evenodd" fill="#938F37" d="M698.6 519.2s2.1-3.7 1.8-5.9c-.3-2.2 1-1.1 1.5-.2.6.9 1.5-2.6.7-3.5-.8-1-.2-1.6.7-1.3.9.4-2.1-2.8-3.3-3.5-1.2-.7 0-1 1.5-1s-2.4-.1-3.5-.5-.8-1.7 3-.6 7.4 7.2 2.5 12.8c-5 5.6-4.9 3.7-4.9 3.7z"/><path fill-rule="evenodd" clip-rule="evenodd" fill="#8E8A34" d="M696.5 521.1s-6.1.4-10.5-3.8-.7-9.7-.7-9.7.9-.6.9.3c0 .9-.5 2.9.7 2.6 1.2-.3 2.5 1 1.8 2.6s-.6 3.9.7 3.3c1.4-.6 3.6-1.6 4.3.2.7 1.7 1.4 4.6 2.8 4.5z"/><path fill-rule="evenodd" clip-rule="evenodd" fill="#989339" d="M699.1 520.5s8.3-8.1 4.2-8.9c-4.1-.8 1.4-5-1.6-6.4-3-1.4-5.2.5-5.1-1.8.1-2.3-4.2-1.2-5.8-.4-1.5.8-1.7 4.2-.1 5.4 1.6 1.2-2.7 1.2-2.5 4.3.2 3.1 5.2 1.5 5.8 3.1.6 1.6-8.6 3-3.5 4.1 5.2 1.2 3.2 1.9 8.6.6z"/><path fill-rule="evenodd" clip-rule="evenodd" fill="#8E8A34" d="M698.8 520.6s1.3-3.3.5-5.7c-.8-2.4 1.8-1.8 1.8-1.8s-1.2-.6-1.8-.4c-.6.2-2.1-2-1.7-3 .4-1 2-2.2 2-2.2s-1.1.2-2.1 1.2c-.9 1-1.2.3-1.6-1.5l-3.6-3.2s3.3 2.2 3.3 4.5c0 2.2-.4 1.3-1.5 1.1-1.1-.2-2.3.3-2.3.3s2.6-.3 3.2.6c.6.8 2.1 3.1 1.3 3.6s-1.4-.1-1.9 1c0 0 .5-.6 1.6-.4 1.1.1 3.5.4 2.8 5.9z"/><path fill-rule="evenodd" clip-rule="evenodd" fill="#868332" d="M676.7 502.5c.2-.1 16.9-.3 10 11.7 0 0-2.4 3.3-2.3 4.5 0 1.2-1 1-1.4.6-.4-.4-2.4-.1-3.2.4-.8.5-.1.5-.7.9s-2.1-.1-2.7-.8c-.5-.7-.1.6-.9.7-.8.1-4.5-1.8-5.8-4.5-1.3-2.7.1-8.3 1.9-10.4 1.8-2 3.2-2.5 5.1-3.1z"/><path fill-rule="evenodd" clip-rule="evenodd" fill="#938F37" d="M674.6 503.1s4.2.8 5.6 2.4c1.5 1.6 1.5 0 1.1-1-.4-1 2.9.5 3.1 1.8.2 1.2 1.1 1.2 1.4.3.3-.9.8 3.4.6 4.8-.2 1.4.8.7 1.7-.5.9-1.2-1.5 1.9-1.9 3-.4 1.1.8 1.8 2.4-1.9s-.8-10.4-8.2-10.1c-7.3.1-5.8 1.2-5.8 1.2z"/><path fill-rule="evenodd" clip-rule="evenodd" fill="#8E8A34" d="M671.8 503.6s-4.2 4.5-3.9 10.5l6.9 6.8s1-.4.3-.9c-.7-.6-2.6-1.4-1.5-2.2 1-.7.8-2.6-.8-3.1s-3.4-2-2.1-2.7c1.3-.7 3.5-1.7 2.7-3.4-.9-1.7-2.7-4.1-1.6-5z"/><path fill-rule="evenodd" clip-rule="evenodd" fill="#989339" d="M673.9 501.9s11.6-1.2 9.5 2.5c-2 3.6 4.7 2.1 3.9 5.3-.8 3.2-3.7 3.7-1.9 5.1 1.8 1.4-1.8 4-3.4 4.7-1.6.7-4.3-1.4-4.2-3.4.1-2-2.7 1.3-4.9-.8s2.2-5 1.4-6.4c-.9-1.5-7.8 4.6-5.4 0 2.4-4.7.5-3.7 5-7z"/><path fill-rule="evenodd" clip-rule="evenodd" fill="#8E8A34" d="M673.6 502.1s3.4 1.1 4.7 3.3c1.3 2.2 2.5-.2 2.5-.2s-.3 1.3-.8 1.6c-.6.3.2 2.9 1.2 3.2 1.1.3 2.9-.1 2.9-.1s-.9.8-2.2.9c-1.4.1-1 .7.2 2.2 1.1 1.5.1 4.8.1 4.8s.5-4-1.3-5.4c-1.7-1.4-1.3-.6-1.8.4s-1.7 1.6-1.7 1.6 1.9-1.8 1.6-2.8c-.3-1-1.1-3.6-1.9-3.3-.9.3-.9 1.1-2 .8 0 0 .8 0 1.3-.9.6-1 1.9-3.1-2.8-6.1z"/><path fill-rule="evenodd" clip-rule="evenodd" fill="#868332" d="M632.1 520.7c-.2-.1-14.7-8.3-2.7-15.1 0 0 3.7-1.6 4.3-2.7s1.3-.4 1.5.2c.1.6 2 1.3 2.9 1.3.9 0 .3-.4 1.1-.4.7 0 1.8 1.2 1.9 2 .1.8.3-.5 1.1-.1.8.3 2.9 3.8 2.7 6.8-.2 2.9-4.3 7.1-6.9 7.9s-4 .6-5.9.1z"/><path fill-rule="evenodd" clip-rule="evenodd" fill="#938F37" d="M634.2 521.3s-3.2-2.8-3.6-4.9c-.4-2.1-1.3-.7-1.5.3-.2 1.1-2.2-1.9-1.8-3.1.4-1.2-.3-1.6-1.1-1-.7.6 1.1-3.3 1.9-4.4.9-1.1-.3-1-1.7-.4-1.4.5 2.2-.9 3.1-1.6.8-.7.2-1.9-3 .4s-4.6 9.3 1.9 12.8l5.8 1.9z"/><path fill-rule="evenodd" clip-rule="evenodd" fill="#8E8A34" d="M636.9 522.3s5.9-1.7 8.6-7c2.7-5.4-2.5-9.3-2.5-9.3s-1-.2-.7.6c.3.8 1.5 2.5.2 2.6-1.3.1-2 1.8-.8 3s1.9 3.5.4 3.4c-1.5-.1-3.9-.3-4 1.6-.2 1.9.1 4.8-1.2 5.1z"/><path fill-rule="evenodd" clip-rule="evenodd" fill="#989339" d="M634.2 522.7s-10.5-4.8-6.9-6.9c3.6-2.1-2.9-4.2-.6-6.5s5-1.3 4.2-3.4c-.8-2.1 3.6-2.5 5.2-2.3 1.7.2 2.9 3.4 1.9 5-1.1 1.7 2.9.2 3.8 3.2.8 2.9-4.4 3.1-4.4 4.8s9 0 4.6 2.7c-4.4 2.8-2.3 2.8-7.8 3.4z"/><path fill-rule="evenodd" clip-rule="evenodd" fill="#8E8A34" d="M634.5 522.6s-2.3-2.7-2.4-5.2c0-2.5-2.3-1.1-2.3-1.1s.9-1 1.5-1 1.3-2.6.6-3.4c-.7-.8-2.5-1.4-2.5-1.4s1.1-.2 2.3.4c1.2.6 1.2-.1 1-2-.2-1.8 2.3-4.1 2.3-4.1s-2.4 3.2-1.6 5.3c.8 2.1.8 1.1 1.7.6 1-.6 2.2-.5 2.2-.5s-2.5.6-2.8 1.6c-.3 1-.9 3.6 0 3.8.9.2 1.3-.5 2.1.3 0 0-.7-.4-1.6.1-.8.6-3 1.7-.5 6.6z"/><path fill-rule="evenodd" clip-rule="evenodd" fill="#868332" d="M658.1 513.4c0-.2-.6-16.9-12.2-9.3 0 0-3.1 2.6-4.3 2.6-1.2 0-.9 1-.5 1.4.4.4.2 2.4-.2 3.2-.4.8-.5.1-.9.7-.3.6.3 2.1.9 2.6s-.6.1-.6.9 2.1 4.4 4.8 5.5c2.7 1.2 8.2-.6 10.2-2.5 1.8-1.8 2.3-3.2 2.8-5.1z"/><path fill-rule="evenodd" clip-rule="evenodd" fill="#938F37" d="M657.6 515.6s-1-4.1-2.7-5.5-.1-1.5 1-1.2c1 .3-.7-2.9-1.9-3s-1.3-1-.4-1.4c.9-.4-3.4-.6-4.8-.3-1.3.3-.7-.7.4-1.7s-1.8 1.6-2.8 2c-1.1.4-1.8-.7 1.7-2.5s10.3.2 10.5 7.6c.2 7.4-1 6-1 6z"/><path fill-rule="evenodd" clip-rule="evenodd" fill="#8E8A34" d="M657.3 518.4s-4.2 4.5-10.2 4.4l-7.1-6.5s.3-1 .9-.4c.6.7 1.6 2.5 2.2 1.4.7-1.1 2.5-1 3.1.7.6 1.6 2.2 3.3 2.8 1.9.6-1.4 1.5-3.6 3.2-2.8 1.7.7 4.2 2.4 5.1 1.3z"/><path fill-rule="evenodd" clip-rule="evenodd" fill="#989339" d="M658.8 516.2s.5-11.5-3-9.3c-3.5 2.2-2.4-4.5-5.5-3.5s-3.4 3.9-4.9 2.2c-1.5-1.7-3.9 2-4.5 3.6-.6 1.6 1.6 4.2 3.6 4 2-.2-1.2 2.7 1.1 4.8 2.2 2.1 4.8-2.5 6.3-1.7s-4.1 8 .3 5.4 3.6-.9 6.6-5.5z"/><path fill-rule="evenodd" clip-rule="evenodd" fill="#8E8A34" d="M658.7 516.5s-1.3-3.3-3.5-4.5c-2.2-1.2.1-2.5.1-2.5s-1.3.3-1.5.9c-.3.6-2.9 0-3.3-1.1-.4-1-.1-2.9-.1-2.9s-.7.9-.7 2.3c0 1.3-.7 1-2.2 0-1.5-1-4.7.1-4.7.1s3.9-.7 5.4 1c1.5 1.6.6 1.2-.3 1.8-.9.6-1.5 1.8-1.5 1.8s1.7-2 2.7-1.8c1 .2 3.7.9 3.4 1.8-.3.9-1.1.9-.7 2 0 0 0-.8.9-1.4.8-.6 2.8-2 6 2.5z"/><rect x="636.6" y="516.7" fill-rule="evenodd" clip-rule="evenodd" fill="#5F5033" width="190.7" height="96.5"/><polygon fill-rule="evenodd" clip-rule="evenodd" fill="#5F5033" points="623.9,600.1 636.6,613.1 636.6,516.7 623.9,516.7"/><polygon fill-rule="evenodd" clip-rule="evenodd" fill="#6D6044" points="636.6,613.2 827.4,516.7 636.6,516.7"/><path fill="#548962" d="M230 519.8c-.2-.4.7-7.9 4.1-10.8 3.4-2.9 4.2-.2 5.1-2.2.9-2 3.2-5.6 6.7-5.7 3.4-.1 2.8.7 4.7-.8 1.9-1.4 5.1-2.8 8-1.9 2.9.9 2.3 1.3 5.1 1.2 2.8-.1 2.7.6 1.3.9-1.3.3-2.7-.4-4.3 1-1.7 1.4-4 3.8-6.9 3.6-2.9-.2-3.1-1-5 2.4s-4.7 3.3-6.3 4.3-1.6.3-3.7 2.6c-2.1 2.2-5 14-8.8 5.4z"/><path fill="#548962" d="M212 515.4s2 2 4.7-1.9 3.1-4.2 2.2-6.1-.4-3.7 3.1-6.7c3.6-3 2.6-3.4 1.8-4.3-.8-.9-1.3-2.2 3.8-5.3s5-3.9 3.6-4c-1.4-.1-3-.9 1.3-3.7s2.1-1.6 1.6-2.7c-.6-1.1-2.8-1.6.7-3.7 3.4-2.1-.6-1.3-2-.1s-4.2 4.3-5.4 4.2c-1.2-.1-2.9.6-3.2 2.8s-.1 4-2.2 3.8c-2.1-.2-5 .4-4 3.3s3 4.6.6 5.3c-2.4.8-7.6 2.7-6.1 5.1 1.4 2.4 2 2 0 5-2.3 3.1-3.7 7.2-.5 9z"/><path fill="#9D4E6F" d="M227.6 531.5c-.3.8 6.2-29.6 32.9-31.6 0 .1-21.9.1-32.9 31.6z"/><path fill="#548962" d="M219.6 518.1c.3.1 2.4 1.8 5.8-2.2 3.3-4 1.1-3.1 2.6-6.1 1.4-3 6.4-2.6 8.6-6 2.1-3.4-3-1.7-.6-3.7s11.7-3.4 13.2-6c1.6-2.6-3-.3-2.7-1.6.3-1.2 3.6-2.4 7.9-4.2 4.3-1.8.1-1 1.4-2s4.2-2.2 5.2-2.4c1-.2-2.4.3-5.3 1.1s-8.7 2.8-10.8 3.2c-2.1.4-3.6 3.4-5.4 3.7-1.9.2-4.4.3-6.1 3.7-1.7 3.3-.6 2.6-3.8 4.4-3.2 1.9-4.7 1.6-5.2 5.3-.6 3.8-1.8 2.4-3.8 5.1-2 2.7-3.5 6.6-1 7.7z"/><path fill="#9D4E6F" d="M217.8 526.8s8.7-33.9 34.9-39.6h.2c0-.1-22.9 4.7-35.1 39.6z"/><path fill="#548962" d="M246.8 509.8c.3-.2 2.8-1.1 1.3-6.1-1.5-5-2-2.6-3.7-5.5-1.7-2.9 1.4-6.8-.3-10.4-1.7-3.7-3 1.6-3.4-1.5s3.5-11.7 2.2-14.4c-1.3-2.7-1.9 2.3-2.8 1.4-.8-.9-.1-4.3.8-8.9s-.8-.6-.9-2.3.5-4.8.8-5.7-1.1 2.2-2 5.1c-.9 2.8-2.4 8.8-3.2 10.8-.8 2 .9 4.9.1 6.6s-2.2 3.9-.3 7.1c1.9 3.2 1.8 1.9 1.7 5.6-.2 3.7-1.3 4.8 1.6 7.3 2.9 2.5 1.1 2.8 2.2 6s3.6 6.3 5.9 4.9z"/><path fill="#9D4E6F" d="M253.1 516s-23.6-25.9-14.1-50.9l.1-.2s-8.5 21.8 14 51.1z"/><path fill="#9D4E6F" d="M231.3 480.6s-15.6 17.2-17.7 30.6c-2.1 13.3.4 20.5.4 20.5s-7.8-22.5 17.3-51.1z"/><path fill="#548962" d="M206.4 520.2c.1-.4-1.8-7.7-5.6-10.1-3.8-2.4-4.2.4-5.4-1.5-1.2-1.9-4-5-7.4-4.7-3.4.4-2.7 1-4.7-.1s-5.5-2-8.2-.7c-2.7 1.3-2.1 1.6-4.9 1.9-2.8.3-2.6.9-1.2 1.1 1.4.1 2.6-.8 4.4.4 1.9 1.2 4.5 3.2 7.3 2.6 2.8-.6 2.9-1.4 5.3 1.7 2.4 3.1 5.1 2.6 6.9 3.4 1.8.8 1.6.1 4 2s7 13.1 9.5 4z"/><path fill="#548962" d="M215.4 519.8c-.3.1-2.6 1.6-5.6-2.7-3-4.3-.9-3.2-2.1-6.3-1.2-3.1-6.2-3.1-8-6.7-1.8-3.6 3.1-1.4.8-3.6s-11.4-4.4-12.7-7c-1.3-2.7 3-.1 2.8-1.3-.2-1.2-3.3-2.7-7.5-4.8-4.2-2.1 0-1-1.3-2.1s-4-2.6-5-2.9c-1-.3 2.4.5 5.2 1.5 2.8 1 8.4 3.5 10.5 4.1 2.1.6 3.3 3.7 5.1 4.1 1.9.4 4.4.7 5.8 4.1 1.4 3.5.3 2.6 3.4 4.7s4.5 1.9 4.8 5.7c.3 3.8 1.6 2.6 3.4 5.4 1.8 2.9 3 6.9.4 7.8z"/><path fill="#548962" d="M223.6 513.4s-1.7 2.3-4.9-1.2-3.7-3.7-3.1-5.7c.6-2-.1-3.7-4-6.2s-3-3.1-2.4-4c.6-1 1-2.4-4.5-4.8s-5.5-3.2-4.1-3.5c1.4-.3 2.8-1.3-1.8-3.4s-2.3-1.2-1.9-2.4c.4-1.2 2.5-1.9-1.2-3.5s.4-1.4 2-.4c1.6 1 4.8 3.7 6 3.4 1.2-.3 2.9.1 3.6 2.3.6 2.2.7 3.9 2.7 3.4 2.1-.5 5-.3 4.4 2.7-.6 3-2.3 4.9.2 5.4 2.5.4 7.9 1.6 6.8 4.2-1.1 2.6-1.7 2.3.7 5 2.4 2.6 4.5 6.5 1.5 8.7z"/><path fill="#9D4E6F" d="M210.5 531.5c.4.7-10.3-28.4-37-26.6 0 0 21.6-3.1 37 26.6z"/><path fill="#9D4E6F" d="M216.5 528.6s-6-34.5-31.6-42.3c-.1 0-.1 0-.2-.1 0 0 22.4 6.6 31.8 42.4z"/><path fill="#548962" d="M250.7 517.6c-.3-.1-3-.5-2.5-5.7s1.4-3 2.5-6.1c1.1-3.1-2.7-6.4-1.8-10.3 1-3.9 3.3 1 3-2.2-.3-3.1-5.8-10.7-5.1-13.6.7-2.9 2.4 1.9 3 .8.6-1.1-.8-4.2-2.6-8.6-1.8-4.3.6-.8.4-2.4-.2-1.7-1.4-4.6-1.9-5.4-.5-.9 1.5 2 3 4.6 1.5 2.6 4.1 8.1 5.3 9.9s.1 5 1.2 6.4c1.2 1.5 2.9 3.4 1.7 6.9-1.2 3.5-1.4 2.2-.5 5.8.9 3.6 2.2 4.4-.1 7.5-2.3 3.1-.5 3-1 6.3-.3 3.3-2.1 7-4.6 6.1z"/><path fill="#9D4E6F" d="M245.8 525s17.9-30.1 3.5-52.7l-.1-.2s12.8 19.6-3.4 52.9z"/><path fill="#9D4E6F" d="M199.6 481.6s17.8 14.9 21.8 27.8 2.4 20.3 2.4 20.3 4.7-23.3-24.2-48.1z"/><path fill="#548962" d="M210.8 514.9c.4-.2 3.8-7 2.5-11.3s-3.4-2.5-3-4.7c.4-2.2.4-6.4-2.4-8.4s-2.7-1-3.5-3.2-2.7-5.1-5.6-6c-2.9-.8-2.7-.2-4.9-1.8-2.3-1.6-2.5-1-1.6 0 .9 1 2.5 1.1 3.1 3.2s1.3 5.4 3.8 6.8c2.5 1.4 3.1.9 2.8 4.8s2.1 5.4 2.9 7.1c.8 1.8 1.1 1.1 1.7 4.2.4 3-3.7 14.5 4.2 9.3z"/><path fill="#548962" d="M220.4 519.3c-.3-.1-3 .1-3.6-5-.6-5.2.8-3.2 1.2-6.5.4-3.3-4-5.7-3.8-9.7s3.4.3 2.5-2.8c-.9-3-7.8-9.3-7.7-12.3.1-3 2.7 1.4 3.1.2.4-1.2-1.6-4-4.3-7.9-2.6-3.9.5-.9-.1-2.5s-2.3-4.2-3-4.9c-.7-.7 1.9 1.6 3.8 3.9 2 2.2 5.7 7.1 7.2 8.6s1.1 4.8 2.5 6.1c1.5 1.2 3.5 2.7 3.1 6.4-.4 3.7-.9 2.4.7 5.8s3 3.9 1.4 7.3c-1.6 3.5.1 3 .3 6.4.3 3.3-.6 7.3-3.3 6.9z"/><path fill="#548962" d="M228.2 521.2s-2.8.6-2.9-4.2c-.1-4.7-.3-5.2 1.5-6.3 1.8-1.1 2.4-2.8 1.1-7.3-1.3-4.5-.2-4.3.9-4.6 1.1-.3 2.3-1.1-.2-6.5-2.6-5.4-2-6-.8-5.3 1.3.7 3 .9.9-3.8s-.9-2.5.2-3.1c1.1-.6 3.2.2 1.5-3.4-1.7-3.7 1.2-.8 1.7 1s1.1 5.9 2.2 6.5c1.1.6 2.1 2.1 1.2 4.1-.9 2-2.1 3.4-.2 4.4 1.9 1 3.9 3.1 1.5 5s-5 2.1-3.4 4.1c1.6 2 4.8 6.4 2.3 7.6-2.6 1.2-2.8.6-2.8 4.2.1 3.7-1 7.9-4.7 7.6z"/><path fill="#9D4E6F" d="M206.4 526.1c-.2.8 11.1-28.1-10.1-44.5 0 0 18.3 12.1 10.1 44.5z"/><path fill="#548962" d="M210.4 515.4c.1-.4-1.5-7.8-5.3-10.3-3.7-2.5-4.2.3-5.3-1.6s-3.8-5.2-7.3-4.9c-3.4.3-2.7 1-4.7-.3-2-1.2-5.4-2.2-8.2-1-2.8 1.2-2.2 1.6-4.9 1.8-2.8.2-2.6.8-1.2 1 1.4.2 2.6-.7 4.4.5 1.8 1.3 4.4 3.3 7.2 2.8s3-1.3 5.2 1.9c2.3 3.2 5 2.8 6.8 3.6 1.8.8 1.6.2 3.9 2.1 2.4 2.1 6.6 13.5 9.4 4.4z"/><path fill="#9D4E6F" d="M214.1 526.9c.3.7-9.5-28.7-36.2-27.7 0 0 21.8-2.5 36.2 27.7z"/><path fill="#9D4E6F" d="M217.2 527.5s11.4-33.1-7.3-52.3l-.1-.2c-.1 0 16.4 16.6 7.4 52.5z"/><path fill="#9D4E6F" d="M231.3 481.5s3.5 23-2.1 35.2c-5.6 12.3-11.6 16.8-11.6 16.8s18.9-14.3 13.7-52z"/><path fill="#548962" d="M256.1 517.7s-2.8.6-2.9-4.1c-.1-4.7-.3-5.2 1.5-6.3 1.8-1.1 2.4-2.8 1.1-7.3-1.3-4.5-.2-4.3.9-4.6 1.1-.3 2.3-1.1-.2-6.5-2.6-5.4-2-6-.8-5.3 1.3.7 3 .9.9-3.8s-.9-2.5.2-3.1c1.1-.6 3.2.2 1.5-3.4-1.7-3.7 1.2-.8 1.7 1s1.1 5.9 2.2 6.5c1.1.6 2.1 2.1 1.2 4.1-.9 2-2.1 3.4-.2 4.4 1.9 1 3.9 3.1 1.5 5s-5 2.2-3.4 4.1c1.6 2 4.8 6.4 2.3 7.6-2.6 1.2-2.8.6-2.8 4.2s-1 7.8-4.7 7.5z"/><path fill="#9D4E6F" d="M259.1 478s3.5 23-2.1 35.2c-5.6 12.3-11.6 16.8-11.6 16.8s18.9-14.3 13.7-52z"/><circle fill="#B15A7E" cx="201.8" cy="519.4" r="8"/><circle fill="#AA5578" cx="219.3" cy="514.1" r="7"/><circle fill="#AA5578" cx="236.5" cy="516.8" r="7"/><path fill="#BB5E82" d="M239.4 511.9s8.8-8 5.8-15.9c0 0 1.3 9.8-6.9 15.2l1.1.7z"/><circle fill="#BB5E82" cx="212.2" cy="517.8" r="7.8"/><circle fill="#BB5E82" cx="226.9" cy="516.7" r="7.8"/><circle fill="#AA5578" cx="237.6" cy="511.8" r="7"/><circle fill="#AA5578" cx="254.8" cy="514.5" r="7"/><circle fill="#BB5E82" cx="245.2" cy="514.5" r="7.8"/><path fill="#EC6642" d="M265.7 519.1c-.6-.7-1.4-3.4-1.3-4.2.1-.8-.9-4.8-1.7-6.1s-.8-3.5-.8-4.4c0-1 .2-3-.8-3.9-.9-.9-1.2-2-1.1-2.6.1-.6-.4-1.3-1.8-1.3 0 0-3.2 1.2-2.3 4.5.9 3.3.6 3.6.5 4.4-.1.9.3 3.9.7 4.4s1.6 6 1.7 6.8c0 .9.8 3 1.2 3.5l5.7-1.1z"/><path fill="#D75C3A" d="M261.2 518.9c.1-1.1 1.1-1.8 1.5-2.7.1-1.1-1.2-2.3-2.3-2.1-.1-1.9.8-3.4 1.3-5.2.3-1.4-1.4-1.4-2-2.1l.6-4.3c-1.4-1.6-2.7-3.6-2.7-5.5-.9.6-2.2 1.8-1.6 4.1.9 3.3.6 3.6.5 4.4-.1.9.3 3.9.7 4.4s1.6 6 1.7 6.8c0 .9.8 3 1.2 3.5l1.1-1.3z"/><path fill="#979337" d="M257.3 497.7s-1.1-4.9-3.1-5.8c-2-.9-1.4-3.8-.7-3.3s.3-2.4-.6-2.7.9-1.8 1.6-1.4c.7.4 1.5-2.6 2-2.1s-.8 1.4-.5 2.1c.3.7 2.4.3 1.3 2.3-1.1 2-1.8 2.4-.7 3.1 1.1.6 1.2 1.1.7 2.8-.5 1.7 0 3.6.5 4.4.6.9-.5.6-.5.6z"/><path fill="#938F35" d="M264.4 500.4s-2-8-5.4-9.5c-3.3-1.5-2.5-6.2-1.2-5.4s.4-4.1-1.2-4.4c-1.6-.3 1.4-3 2.6-2.3 1.2.7 2.4-4.3 3.3-3.5s-1.2 2.4-.7 3.5 4.1.4 2.3 3.8c-1.8 3.4-2.9 4.1-1 5.1s2 1.7 1.2 4.6.1 5.9 1 7.3c.9 1.3-.9.8-.9.8z"/><path fill="#EC6642" d="M271.6 520.1c-.6-.7-1.5-3.4-1.3-4.1.1-.8-1-4.8-1.8-6.1-.8-1.3-.9-3.4-.9-4.4 0-1 .1-3-.9-3.9-1-.9-1.2-2-1.2-2.6 0-.6-.5-1.3-1.8-1.3 0 0-3.1 1.3-2.2 4.5s.6 3.5.6 4.4c0 .9.4 3.8.8 4.4.4.5 1.8 5.9 1.8 6.8l6.9 2.3z"/><path fill="#D75C3A" d="M268.4 517.2c.1-1.1-1.3-2.2-2.3-2-.1-1.9.7-3.5 1.2-5.2.3-1.4-1.4-1.4-2.1-2.1-1.3-1.1 1.9-3.1.5-4.3-1.4-1.6-2.8-3.6-2.9-5.4-.9.6-2.1 1.9-1.5 4.1 1 3.3.6 3.5.6 4.4 0 .9.4 3.8.8 4.4.4.5 1.8 5.9 1.8 6.8l4.8 1.9-.9-2.6z"/><path fill="#EC6642" d="M271.4 520.3c.5-.8 1.1-3.5.9-4.3s.4-4.9 1.1-6.2c.7-1.4.5-3.5.4-4.5-.1-.9-.4-3 .4-3.9s1-2.1.9-2.7c-.1-.6.3-1.3 1.7-1.5 0 0 3.3.9 2.7 4.2-.6 3.4-.2 3.6-.1 4.4.1.8 0 3.9-.3 4.4-.3.6-1 6.1-1 7 0 .9-.5 3-.9 3.6"/><path fill="#D75C3A" d="M274.2 517.1c-.2-1.1 1-2.4 2.1-2.3-.1-1.9-1.1-3.4-1.8-5-.4-1.4 1.2-1.5 1.8-2.3l-1-4.2c1.2-1.7 2.4-3.9 2.2-5.7.9.5 2.3 1.6 1.9 3.9-.6 3.4-.2 3.6-.1 4.4.1.8 0 3.9-.3 4.4-.3.6-1 6.1-1 7 0 .9-.5 3-.9 3.6l-2.9-3.8z"/><path fill="#979337" d="M277.8 498.2s.7-5 2.6-6.1c1.9-1.1 1-3.9.4-3.3-.7.6-.5-2.4.4-2.7.9-.3-1-1.7-1.7-1.2s-1.7-2.4-2.2-1.9.9 1.3.7 2.1c-.2.7-2.4.5-1.1 2.5 1.3 1.9 2 2.2 1 3-1.1.7-1.1 1.2-.4 2.9.7 1.7.4 3.6-.1 4.5-.7.6.4.2.4.2z"/><path fill="#979337" d="M269.1 499.1s-.4-8.2 2.4-10.6c2.8-2.4.5-6.7-.4-5.5-.9 1.1-1.6-3.8-.2-4.5 1.4-.7-2.2-2.5-3.2-1.5s-3.5-3.4-4.2-2.4c-.7 1 1.8 1.9 1.7 3.1-.2 1.2-3.8 1.6-1.1 4.3 2.7 2.7 3.9 3.1 2.4 4.6-1.5 1.5-1.4 2.3.2 4.8 1.6 2.5 1.6 5.7 1.2 7.3l1.2.4z"/><path fill="#EC6642" d="M267.9 520.1c.4-.9.4-3.7.1-4.4-.3-.7-.4-4.9 0-6.3s-.1-3.5-.4-4.5c-.2-.9-1-2.8-.3-3.9s.6-2.3.4-2.8c-.2-.6.1-1.4 1.4-1.8 0 0 3.4.3 3.4 3.7s.4 3.6.7 4.4c.3.8.7 3.8.5 4.4s0 6.2.2 7c.2.9 0 3.1-.2 3.7l-5.8.5z"/><path fill="#D75C3A" d="M269.8 519.1c.2-.8 1.6-.4 2.4-.5-.4-1.1-1.5-1.5-2.1-2.2-.4-1.1.6-2.5 1.7-2.6-.5-1.9-1.7-3.1-2.7-4.7-.7-1.3.9-1.7 1.4-2.6.9-1.5-2.7-2.5-1.8-3.9.9-1.9 1.7-4.2 1.2-6 1 .3 2.6 1.2 2.6 3.5 0 3.4.4 3.6.7 4.4.3.8.7 3.8.5 4.4s0 6.2.2 7c.2.9 0 3.1-.2 3.7l-3.9-.5z"/><path fill="#EC6642" d="M284.2 518.1c.7-.6 1.9-3.2 1.9-3.9 0-.8 1.6-4.6 2.6-5.8s1.3-3.3 1.5-4.2.3-3 1.4-3.7c1.1-.7 1.5-1.8 1.5-2.4 0-.6.6-1.2 2-1 0 0 3 1.7 1.6 4.8-1.4 3.1-1.1 3.4-1.2 4.3-.1.9-.9 3.8-1.4 4.2-.4.5-2.5 5.6-2.7 6.5-.2.9-1.2 2.8-1.7 3.3l-5.5-2.1z"/><path fill="#D75C3A" d="M286.4 518.1c.5-.7 1.6.3 2.4.5.1-1.1-.8-2-1-2.9.1-1.1 1.6-2.1 2.6-1.7.3-1.9-.3-3.5-.5-5.3-.1-1.5 1.6-1.2 2.3-1.8v-4.3c1.6-1.4 3.3-3.2 3.5-5 .8.7 1.9 2.1.9 4.3-1.4 3.1-1.1 3.4-1.2 4.3-.1.9-.9 3.8-1.4 4.2-.4.5-2.5 5.6-2.7 6.5-.2.9-1.2 2.8-1.7 3.3l-3.2-2.1z"/><path fill="#979337" d="M295.8 498.2s1.8-4.6 4-5.3c2.1-.6 2-3.6 1.2-3.2-.8.4.1-2.5 1-2.5 1-.1-.6-1.9-1.4-1.6-.8.3-1.1-2.8-1.7-2.4-.6.4.5 1.5.1 2.2-.4.6-2.5-.1-1.7 2.1s1.4 2.7.2 3.1c-1.2.5-1.3.9-1.1 2.7s-.5 3.6-1.2 4.3c-.5.8.6.6.6.6z"/><path fill="#938F35" d="M288.4 499.8s3.2-7.6 6.8-8.5c3.5-1 3.4-5.8 2-5.2-1.3.6.2-4.1 1.8-4.1 1.6-.1-.9-3.2-2.2-2.7-1.3.5-1.7-4.6-2.7-4-1 .6.8 2.5.1 3.6-.7 1-4.1-.2-2.8 3.4 1.2 3.6 2.2 4.5.2 5.2-2 .7-2.3 1.4-1.9 4.4.3 3-1 5.9-2.1 7.1-1.1 1.1.8.8.8.8z"/><path fill="#EC6642" d="M278.2 518.2c.7-.6 2-3.1 2-3.9 0-.8 1.7-4.6 2.7-5.7 1-1.1 1.4-3.3 1.6-4.2.2-.9.4-3 1.4-3.7 1.1-.7 1.5-1.8 1.6-2.4 0-.6.7-1.2 2-1 0 0 2.9 1.7 1.5 4.8s-1.2 3.4-1.3 4.3-1 3.7-1.5 4.2c-.4.5-2.6 5.6-2.8 6.5s-1.3 2.8-1.8 3.2l-5.4-2.1z"/><path fill="#D75C3A" d="M280.4 518.2c.5-.7 1.6.3 2.4.6.1-1.1-.7-2-1-3 .1-1.1 1.6-2 2.6-1.7.4-1.9-.2-3.5-.4-5.3 0-1.5 1.6-1.2 2.4-1.7l.1-4.3c1.7-1.4 3.3-3.1 3.7-4.9.8.7 1.8 2.2.8 4.3-1.4 3.1-1.2 3.4-1.3 4.3s-1 3.7-1.5 4.2c-.4.5-2.6 5.6-2.8 6.5s-1.3 2.8-1.8 3.2l-3.2-2.2z"/><path fill="#EC6642" d="M278.4 518.4c-.4-.9-.5-3.6-.2-4.4.3-.7.3-4.9-.2-6.3-.5-1.4.1-3.5.3-4.5.2-.9.9-2.9.2-4s-.7-2.2-.5-2.8c.2-.6-.1-1.4-1.4-1.7 0 0-3.4.4-3.3 3.8.1 3.4-.3 3.6-.6 4.4-.3.8-.6 3.8-.4 4.4.2.6.1 6.2-.1 7s0 3.1.3 3.7l5.9.4z"/><path fill="#D75C3A" d="M276.5 517.6c-.2-.8-1.6-.4-2.4-.5.4-1.1 1.5-1.5 2.1-2.3.4-1.1-.6-2.5-1.7-2.6.4-1.9 1.6-3.2 2.5-4.7.6-1.3-1-1.7-1.4-2.6-1-1.4 2.6-2.5 1.7-4-1-1.9-1.8-4.2-1.3-6-1 .3-2.5 1.3-2.5 3.6.1 3.4-.3 3.6-.6 4.4-.3.8-.6 3.8-.4 4.4.2.6.1 6.2-.1 7s0 3.1.3 3.7l3.8-.4z"/><path fill="#979337" d="M275.5 495.6s.1-5-1.6-6.4-.4-4 .2-3.4c.6.7.9-2.3 0-2.7-.9-.4 1.3-1.5 1.9-1 .6.6 2.1-2.1 2.5-1.5.4.6-1.1 1.2-1 1.9.1.7 2.3.9.7 2.6-1.6 1.7-2.3 1.9-1.4 2.8.9.9.9 1.3 0 2.9-.9 1.6-.9 3.5-.6 4.4.2 1-.7.4-.7.4z"/><path fill="#979337" d="M283.9 497.8s1.6-8.1-.8-10.9c-2.4-2.8.5-6.7 1.2-5.4.8 1.3 2.1-3.5.8-4.4-1.3-1 2.6-2.1 3.3-1 .8 1.1 4-2.8 4.5-1.8.5 1.1-2.1 1.6-2.1 2.9 0 1.2 3.5 2.1.4 4.4-3.1 2.3-4.3 2.4-3.1 4.2 1.3 1.7 1.1 2.4-.9 4.7s-2.5 5.4-2.3 7l-1 .3z"/><path fill="#EC6642" d="M282 518.7c-.2-.9.1-3.7.6-4.3.4-.6 1.2-4.8 1-6.3-.2-1.5.7-3.5 1.1-4.4.4-.9 1.4-2.7.9-3.9s-.3-2.3 0-2.8.1-1.4-1.1-2c0 0-3.4-.2-3.9 3.1-.5 3.4-.9 3.5-1.4 4.2-.4.8-1.3 3.7-1.2 4.3.1.6-1 6.1-1.3 6.9-.3.8-.5 3-.4 3.7l5.7 1.5z"/><path fill="#D75C3A" d="M280 517.8c-.1-.9-1.4-.9-2.2-1.1.5-1 1.7-1.2 2.5-1.9.5-1-.2-2.6-1.2-2.8.7-1.8 2.1-2.8 3.3-4.2.9-1.2-.6-1.9-1-2.8l2.3-3.6c-.6-2.1-1-4.4-.2-6.1-1 .2-2.7.8-3.1 3.1-.5 3.4-.9 3.5-1.4 4.2-.4.8-1.3 3.7-1.2 4.3.1.6-1 6.1-1.3 6.9-.3.8-.6 3.4-.4 4.1h3.9z"/><path fill="#EC6642" d="M313.2 520.1c.3-.7 3.1-3.8 4.4-4.5 1.3-.7 2.4-2.6 2.8-3.5.5-.8 1.3-2.7 2.6-3 1.3-.3 2-1.2 2.3-1.7.2-.5 1-.9 2.2-.3 0 0 2.2 2.6-.1 5-2.4 2.5-2.2 2.8-2.6 3.6-.4.8-2.2 3.2-2.7 3.5l-8.9.9z"/><path fill="#D75C3A" d="M317.3 521.4c1-1.7 1-3.4 1.4-5.2.4-1.4 1.9-.6 2.8-.9 1.7-.4-.2-3.7 1.5-4 2-.7 4.1-1.9 5-3.5.5.9 1 2.7-.6 4.3-2.4 2.5-2.2 2.8-2.6 3.6-.4.8-2.2 3.2-2.7 3.5l-4.8 2.2z"/><path fill="#979337" d="M327.8 508.4s3.3-3.7 5.5-3.6c2.2.1 3.1-2.7 2.2-2.6-.9.1.9-2.3 1.8-2 .9.3.1-2-.7-2-.8 0-.1-3-.8-2.8-.7.1 0 1.6-.6 2.1s-2.3-.9-2.3 1.4.4 3-.9 3-1.6.4-2 2.2c-.4 1.8-1.7 3.2-2.6 3.6-.7.5.4.7.4.7z"/><path fill="#938F35" d="M320.3 507.4s5.6-6 9.3-5.7c3.6.3 5.2-4.3 3.7-4.2s1.6-3.8 3.1-3.3.2-3.3-1.1-3.3c-1.4 0 0-4.9-1.2-4.7-1.2.2-.1 2.7-1.1 3.4-1 .7-3.8-1.6-3.8 2.3-.1 3.8.5 5-1.6 4.9-2.1 0-2.6.5-3.3 3.5-.7 2.9-3 5.2-4.4 5.9-1.4.8.4 1.2.4 1.2z"/><path fill="#EC6642" d="M307.6 518.2c.3-.7 3.2-3.7 4.5-4.4 1.3-.7 2.4-2.6 2.9-3.4.5-.8 1.4-2.7 2.6-3 1.3-.3 2-1.1 2.3-1.7.3-.5 1-.9 2.2-.2 0 0 2.2 2.6-.3 5-2.4 2.4-2.3 2.8-2.6 3.6-.4.8-2.2 3.2-2.8 3.4l-8.8.7z"/><path fill="#D75C3A" d="M311.7 519.5c1-1.6 1.1-3.4 1.5-5.2.5-1.4 1.9-.6 2.8-.8l1.6-4c2-.7 4.2-1.8 5.1-3.4.5.9.9 2.7-.7 4.3-2.4 2.4-2.3 2.8-2.6 3.6-.4.8-2.2 3.2-2.8 3.4l-4.9 2.1z"/><path fill="#EC6642" d="M305.8 517.4c.5-.6 2-4.5 2-6s1.3-3.3 1.8-4.1c.5-.8 1.8-2.4 1.5-3.6-.3-1.3.1-2.3.5-2.8s.4-1.3-.8-2.1c0 0-3.3-.8-4.4 2.4-1.1 3.2-1.5 3.3-2.1 3.9-.5.7-1.9 3.4-1.9 4 0 .6-2 5.8-2.5 6.6-.5.8-1 2.9-1 3.6l6.9-1.9z"/><path fill="#D75C3A" d="M303.6 517.3c.7-.9.3-2.6-.7-3 1-1.6 2.6-2.4 4-3.6 1.1-1-.3-1.9-.5-2.9-.4-1.7 3.4-1.5 2.9-3.2-.2-2.1-.2-4.5.8-6.1-1.1 0-2.8.3-3.6 2.5-1.1 3.2-1.5 3.3-2.1 3.9-.5.7-1.9 3.4-1.9 4 0 .6-2 5.8-2.5 6.6-.5.8-1 2.9-1 3.6l4.6-1.8z"/><path fill="#979337" d="M309.6 499s1.8-4.7.7-6.6 1-3.9 1.3-3.1c.3.8 1.6-1.8 1-2.6-.7-.7 1.7-1 2.1-.2.4.8 2.7-1.3 2.9-.6.2.7-1.4.7-1.6 1.5s1.8 1.6-.2 2.7c-2.1 1.1-2.8 1-2.3 2.2.6 1.2.4 1.6-1 2.7s-2 3-2.1 3.9c-.1 1-.8.1-.8.1z"/><path fill="#979337" d="M316.8 504s4.3-7 3-10.5c-1.3-3.4 2.7-6.1 3-4.7.3 1.5 3.2-2.5 2.3-3.9-.9-1.3 3.1-1.1 3.5.2.4 1.3 4.7-1.3 4.8-.1.1 1.2-2.5.8-3 2-.4 1.2 2.5 3.2-1.1 4.3-3.7 1.1-4.9.8-4.3 2.8.6 2 .2 2.7-2.5 4.1s-4.2 4.2-4.5 5.8c-.4 1.7-1.2 0-1.2 0z"/><path fill="#EC6642" d="M309.8 519.1c.6-.5 2.7-4.1 3.1-5.5s1.8-3 2.5-3.7c.7-.7 2.2-2 2.2-3.3-.1-1.3.6-2.3 1-2.7.5-.4.6-1.2-.4-2.2 0 0-3.1-1.4-4.8 1.6-1.7 3-2.1 2.9-2.7 3.5-.6.6-2.4 3-2.6 3.6-.1.6-3 5.4-3.6 6.1-.6.7-1.5 2.7-1.6 3.3l6.9-.7z"/><path fill="#D75C3A" d="M307.6 518.7c.8-.7.7-2.5-.2-3.1 1.3-1.4 3-1.9 4.6-2.8 1.2-.8 0-2 0-2.9-.1-1.7 3.6-.9 3.4-2.6.1-2.1.6-4.5 1.9-5.8-1-.2-2.8-.2-4 1.8-1.7 3-2.1 2.9-2.7 3.5-.6.6-2.4 3-2.6 3.6-.1.6-3 5.4-3.6 6.1-.6.7-1.5 2.7-1.6 3.3l4.8-1.1z"/><path fill="#EC6642" d="M293.6 518.1c.2-1.1 1.1-3.8.8-4.7s-.1-3.7.3-4.3c.4-.7.8-4.8.5-6.3-.3-1.5.4-3.5.7-4.4.3-.9 1.2-2.8.6-3.9-.6-1.2-.4-2.3-.2-2.8.3-.5 0-1.4-1.3-1.9 0 0-3.4 0-3.7 3.4-.3 3.4-.7 3.5-1 4.3-.4.8-1 3.7-.8 4.3.2.6-.5 6.2-.8 7-.3.9-.3 3.1-.1 3.7.2.6.8 5.3.9 6.3l4.1-.7z"/><path fill="#D75C3A" d="M293.3 518.5c0-.3.7-.7-.3-1.2-.8-.4-1.9-.3-2.3-1.2 0-1.7 2.3-2.1 1.8-3.8-.1-.9-1.6-.6-2.4-.7.5-1 1.6-1.4 2.3-2.1.5-1-.4-2.6-1.4-2.7.6-1.8 1.9-3 3-4.4.8-1.2-.8-1.8-1.2-2.7-.8-1.5 2.9-2.2 2.1-3.8-.8-2-1.3-4.3-.7-6.1-1 .2-2.7 1-2.9 3.3-.3 3.4-.7 3.5-1 4.3-.4.8-1 3.7-.8 4.3.2.6-.5 6.2-.8 7-.3.9-.3 3.1-.1 3.7.2.6.8 5.3.9 6.3l3.8-.2z"/><path fill="#979337" d="M293.8 490.3s.6-5-.9-6.5c-1.6-1.6 0-4.1.5-3.3.5.7 1.1-2.2.3-2.7s1.5-1.4 2-.7c.5.6 2.3-1.9 2.6-1.3.3.6-1.2 1.1-1.2 1.8s2.2 1.1.4 2.7c-1.8 1.5-2.5 1.7-1.7 2.6.8 1 .8 1.4-.3 2.9s-1.3 3.4-1.1 4.3c.3.9-.6.2-.6.2z"/><path fill="#938F35" d="M299.5 495.3s.8-8.2-1.8-10.7-.2-6.7.7-5.5c.9 1.2 1.8-3.7.4-4.5-1.4-.8 2.3-2.4 3.2-1.3.9 1.1 3.7-3.2 4.3-2.2s-2 1.8-1.8 3c.1 1.2 3.7 1.8.8 4.4-2.8 2.6-4.1 2.9-2.7 4.4 1.4 1.6 1.3 2.3-.4 4.8-1.7 2.5-1.9 5.6-1.6 7.2.4 1.6-1.1.4-1.1.4z"/><path fill="#EC6642" d="M299.1 519.9c.2-1.1.8-2.7.5-3.6-.3-.9-.2-3.7.2-4.4.4-.7.7-4.8.4-6.3-.3-1.5.3-3.5.6-4.4.3-.9 1.1-2.8.5-3.9s-.5-2.3-.2-2.8c.2-.5 0-1.4-1.3-1.8 0 0-3.4.1-3.6 3.5-.2 3.4-.6 3.5-.9 4.3-.3.8-.9 3.8-.7 4.4.2.6-.4 6.2-.6 7-.2.9-.2 3.1 0 3.7l5.1 4.3z"/><path fill="#D75C3A" d="M297.7 515.3c-.1-.8-1.6-.5-2.4-.6.4-1 1.6-1.4 2.3-2.1.4-1-.4-2.5-1.5-2.7.6-1.8 1.8-3 2.9-4.5.7-1.3-.8-1.8-1.2-2.7-.9-1.5 2.8-2.3 2-3.8-.8-2-1.4-4.3-.8-6.1-1 .3-2.6 1-2.8 3.4-.2 3.4-.6 3.5-.9 4.3-.3.8-.9 3.8-.7 4.4.2.6-.4 6.2-.6 7-.2.9 0 6.3.3 6.9l3.4-3.5z"/><path fill="#EC6642" d="M297.7 519.7c.5-1 .8-2.7 1.5-3.2.8-.6 2.2-2.9 2.3-3.7.1-.8 2.1-4.4 3.2-5.5 1.1-1 1.7-3.1 1.9-4.1.2-.9.6-2.9 1.7-3.6 1.1-.6 1.7-1.6 1.8-2.2.1-.6.8-1.1 2.1-.8 0 0 2.8 2 1.1 4.9-1.7 3-1.4 3.3-1.6 4.1-.2.8-1.3 3.6-1.8 4.1-.5.4-3.1 5.4-3.3 6.2-.3.8-1.5 2.7-2 3.1l-6.9.7z"/><path fill="#D75C3A" d="M301.4 516.7c.6-.6 1.6.4 2.3.8.2-1.1-.6-2-.7-3 .2-1.1 1.8-1.9 2.7-1.4.5-1.8.1-3.5.1-5.4.1-1.5 1.7-1 2.5-1.6l.5-4.3c1.8-1.2 3.6-2.8 4-4.6.7.8 1.6 2.3.5 4.3-1.7 3-1.4 3.3-1.6 4.1-.2.8-1.3 3.6-1.8 4.1-.5.4-3.1 5.4-3.3 6.2-.3.8-1.5 2.7-2 3.1l-3.2-2.3z"/><path fill="#979337" d="M312.9 497.9s2.3-4.4 4.5-4.8c2.2-.4 2.3-3.3 1.5-3-.8.3.3-2.4 1.3-2.4s-.4-2-1.2-1.7c-.8.2-.8-2.9-1.4-2.5-.6.3.4 1.6-.1 2.2-.5.6-2.4-.3-1.9 1.9.6 2.3 1.1 2.8-.1 3.1-1.2.3-1.4.7-1.4 2.6.1 1.8-.9 3.5-1.6 4.2-.8.4.4.4.4.4z"/><path fill="#979337" d="M304.4 495.7s2.5-7.9 5.9-9.2c3.4-1.3 2.8-6.1 1.5-5.3-1.3.8-.2-4.1 1.4-4.3 1.6-.2-1.2-3.1-2.5-2.5-1.2.6-2.1-4.4-3.1-3.7-.9.7 1.1 2.4.5 3.5-.6 1.1-4.1.2-2.5 3.7 1.6 3.5 2.6 4.2.7 5.1-1.9.9-2.1 1.6-1.5 4.6.6 2.9-.4 5.9-1.4 7.2l1 .9z"/><path fill="#EC6642" d="M295.1 518.5c.3-1.1.3-2.8.9-3.5.7-.7 1.6-3.3 1.6-4.1-.1-.8 1.3-4.7 2.2-6 .9-1.2 1.1-3.4 1.2-4.3.1-.9.1-3 1.1-3.8 1-.8 1.3-1.9 1.3-2.5 0-.6.5-1.3 1.9-1.2 0 0 3.1 1.4 1.9 4.6-1.1 3.2-.8 3.5-.8 4.4 0 .9-.7 3.8-1 4.3-.4.5-2.1 5.8-2.2 6.7-.1.9-1 2.9-1.5 3.4l-6.6 2z"/><path fill="#D75C3A" d="M298.2 519c.7-1.5-1.2-2.8 0-4.2.5-.7 1.6.1 2.4.3 0-1.1-.9-1.9-1.2-2.8 0-1.1 1.4-2.2 2.5-1.9.2-1.9-.5-3.5-.9-5.3-.2-1.5 1.5-1.3 2.2-2 1.4-1-1.7-3.2-.3-4.3 1.5-1.5 3-3.4 3.2-5.2.8.6 2 2 1.2 4.2-1.1 3.2-.8 3.5-.8 4.4 0 .9-.7 3.8-1 4.3-.4.5-2.1 5.8-2.2 6.7-.1.9-1 2.9-1.5 3.4l-3.6 2.4z"/><path fill="#7F935A" d="M337.5 520.4c-1-6.7-.7-14.4-.7-14.4s-1.8-2.8-3.9-4.7c.4.1 1 .6 1.6.6l-.8-1.4c1 .2 1.7.9 2.5 1.3-.5-.5-.5-1.2-.6-1.9.7.4 1 1.4 1.5 1.4 1 .2.6-1.9 1.6-1.5.3.2-.2 1.2-.1 1.9.9-.8 1.8-2.7 2.8-2 1.2.7-.6 2.2-.8 3.4 1.6-.6 2.9-3 4.2-2.4.6.6.4 1.5 0 2.3-.6.2-1 .6-1.4 1.2-1.3 2.2-4.3.2-5.2 5.3-.4 2.4-.2 5.4.4 10.7l-1.1.2z"/><path fill="#637646" d="M325 497.7c1.3-.6 1.3-2 .2-2.2-1.1-.2-.9-2.5 1.4-2.5s5.1.9 3.9-2.3c-1.2-3.2-.2-5.8 2.9-3.7s3.6 4.5 5.1 1.5c1.5-3 7-4.3 6.9-1.6-.1 2.7-1.6 5.4 1.5 4.9 3.2-.5 7.5.7 4.5 5s-.6 1.9.9 3.1 2 4.3-1.6 3.6c-2.6-.5-4.6-1-6-.5.4-.9.6-1.7 0-2.3-1.2-.7-2.5 1.8-4.2 2.4.2-1.2 2-2.7.8-3.4-1-.7-1.8 1.3-2.8 2 0-.7.4-1.7.1-1.9-1-.4-.6 1.7-1.6 1.5-.5 0-.8-.9-1.5-1.4 0 .7.1 1.4.6 1.9-.7-.4-1.5-1.1-2.5-1.3l.8 1.4c-.6 0-1.2-.5-1.6-.6-1.4-1.2-2.9-2.1-4-1.7-2.9 1.3-5.1-1.3-3.8-1.9z"/><path fill="#7F935A" d="M356 521.6c-.7-6.7.1-14.4.1-14.4s-1.7-2.8-3.7-4.9c.4.1.9.7 1.6.7-.2-.5-.5-1-.7-1.4 1 .2 1.7 1 2.4 1.4-.5-.5-.5-1.2-.5-1.9.7.5 1 1.4 1.4 1.4 1 .2.7-1.9 1.7-1.4.2.2-.2 1.2-.2 1.9 1-.7 1.9-2.6 2.9-1.9 1.2.7-.7 2.1-1 3.3 1.7-.5 3.1-2.9 4.3-2.1.5.6.4 1.5-.1 2.3-.6.2-1 .5-1.4 1.1-1.4 2.1-4.3 0-5.5 5-.5 2.4-.5 5.4-.1 10.7l-1.2.2z"/><path fill="#748651" d="M344.7 498.3c1.4-.6 1.4-1.9.3-2.2-1.1-.2-.8-2.6 1.5-2.4 2.3.2 5.1 1.2 4-2.1-1-3.3.1-5.8 3-3.5 3 2.2 3.4 4.7 5 1.8 1.6-2.9 7.2-3.9 7-1.3-.2 2.6-1.9 5.3 1.3 5 3.2-.3 7.5 1 4.3 5.2s-.7 1.8.7 3.1 1.8 4.4-1.8 3.5c-2.5-.6-4.5-1.3-5.9-.8.5-.9.7-1.7.1-2.3-1.2-.7-2.6 1.7-4.3 2.1.2-1.2 2.1-2.6 1-3.3-1-.7-1.9 1.2-2.9 1.9 0-.7.5-1.7.2-1.9-1-.5-.7 1.7-1.7 1.4-.5 0-.7-1-1.4-1.4 0 .7 0 1.4.5 1.9-.7-.5-1.4-1.2-2.4-1.4.2.5.5 1 .7 1.4-.6 0-1.2-.5-1.6-.7-1.3-1.3-2.7-2.3-3.9-1.9-3 1.1-5.1-1.5-3.7-2.1z"/><path fill="#7F935A" d="M333.1 525.9c-.5-5 0-10.6 0-10.6s-1.2-2.1-2.7-3.6c.3.1.7.5 1.2.5-.2-.4-.4-.7-.5-1.1.7.2 1.2.7 1.8 1.1-.4-.4-.4-.9-.4-1.4.5.4.7 1.1 1.1 1.1.7.2.5-1.4 1.2-1.1.2.2-.2.9-.2 1.4.7-.5 1.4-1.9 2.1-1.4.9.5-.5 1.6-.7 2.5 1.2-.4 2.3-2.1 3.2-1.6.4.5.3 1.1-.1 1.7-.4.1-.8.4-1.1.8-1 1.5-3.2 0-4.1 3.7-.4 1.8-.4 4-.1 8h-.7z"/><path fill="#57683D" d="M324.8 508.7c1-.4 1.1-1.4.2-1.6-.8-.2-.6-1.9 1.1-1.8 1.7.1 3.7.9 3-1.5-.8-2.4.1-4.3 2.3-2.6 2.2 1.7 2.5 3.4 3.7 1.3 1.2-2.1 5.3-2.9 5.2-.9-.2 2-1.4 3.9 1 3.7 2.4-.2 5.5.8 3.1 3.9s-.5 1.4.5 2.3c1.1.9 1.3 3.3-1.3 2.6-1.9-.5-3.3-.9-4.4-.6.4-.6.5-1.3.1-1.7-.9-.5-1.9 1.2-3.2 1.6.2-.9 1.6-1.9.7-2.5-.7-.5-1.4.9-2.1 1.4 0-.5.4-1.2.2-1.4-.7-.4-.5 1.2-1.2 1.1-.4 0-.5-.7-1.1-1.1 0 .5 0 1.1.4 1.4-.5-.4-1.1-.9-1.8-1.1.2.4.4.7.5 1.1-.5 0-.9-.4-1.2-.5-1-1-2-1.7-2.9-1.4-2.3.7-3.8-1.3-2.8-1.7z"/><path fill="#7F935A" d="M352.4 517.7c1-6.7.7-14.4.7-14.4s1.8-2.8 3.9-4.7c-.4.1-1 .6-1.6.6l.8-1.4c-1 .2-1.7.9-2.5 1.3.5-.5.5-1.2.6-1.9-.7.4-1 1.4-1.5 1.4-1 .2-.6-1.9-1.6-1.5-.3.2.2 1.2.1 1.9-.9-.8-1.8-2.7-2.8-2-1.2.7.6 2.2.8 3.4-1.6-.6-2.9-3-4.2-2.4-.6.6-.4 1.5 0 2.3.6.2 1 .6 1.4 1.2 1.3 2.2 4.3.2 5.2 5.3.4 2.4.2 5.4-.4 10.7l1.1.2z"/><path fill="#748651" d="M364.9 495c-1.3-.6-1.3-2-.2-2.2 1.1-.2.9-2.5-1.4-2.5s-5.1.9-3.9-2.3c1.2-3.2.2-5.8-2.9-3.7-3.1 2.1-3.6 4.5-5.1 1.5-1.5-3-7-4.3-6.9-1.6.1 2.7 1.6 5.4-1.5 4.9-3.2-.5-7.5.7-4.5 5s.6 1.9-.9 3.1c-1.5 1.2-2 4.3 1.6 3.6 2.6-.5 4.6-1 6-.5-.4-.9-.6-1.7 0-2.3 1.2-.7 2.5 1.8 4.2 2.4-.2-1.2-2-2.7-.8-3.4 1-.7 1.8 1.3 2.8 2 0-.7-.4-1.7-.1-1.9 1-.4.6 1.7 1.6 1.5.5 0 .8-.9 1.5-1.4 0 .7-.1 1.4-.6 1.9.7-.4 1.5-1.1 2.5-1.3l-.8 1.4c.6 0 1.2-.5 1.6-.6 1.4-1.2 2.9-2.1 4-1.7 2.9 1.3 5.1-1.3 3.8-1.9z"/><path fill="#7F935A" d="M356.4 516.8c-1.8-7-5.9-13.9-6.5-14.8-1-1.6-2.7-1.5-3.9-.5-.7 0-1.4.2-1.1-.6.4-.6 2.1-.5 2.7-.6.4-.6-1.2-.3-.8-1 1-.8 2.4.6 3.3-.2-.6-.4-.8-1-.9-1.5.5-.1.8-1.3 1.5-.9.1.5 1.3.8.9 1.5 1-.8 1.8-2.1 2.4-1.6.5.6.6 1.7.5 2.8-2.4-.8-3.1 2-3.1 2s3.9 7.3 6 14.9"/><path fill="#697C4A" d="M340.5 499.6c-.2-1.2-1.9 2-1.6-1.4.3-3.4 2.1-2.1 3.7-3 1.7-.9-2.4-.6-.3-3.2s3.9-.2 5.5 1.2.2-2.1 1.3-3.8c1.1-1.7 6.4-.4 4.4 1.8-2 2.3-.1 2.8 4 2.2 4-.6 1.5 4.9-.3 5.6 0 0 .6 2.1-2.3.7-.2-.1-.4-.2-.6-.2.2-1.1 0-2.2-.5-2.8-.6-.4-1.5.9-2.4 1.6.4-.6-.8-1-.9-1.5-.6-.4-1 .8-1.5.9.1.5.2 1.1.9 1.5l-3.3.2c-.4.6 1.2.3.8 1-.5.1-2.2-.1-2.7.6-.2.8.5.6 1.1.6l-.4.3c-1.2 1.3-6.1 1.6-6.9-.3-.7-1.9 2.2-.9 2-2z"/><path fill="#7F935A" d="M356.3 526.6c-1.8-7-5.9-13.9-6.5-14.8-1-1.6-2.7-1.5-3.9-.5-.7 0-1.4.2-1.1-.6.4-.6 2.1-.5 2.7-.6.4-.6-1.2-.3-.8-1 1-.8 2.4.6 3.3-.2-.6-.4-.8-.9-.9-1.5.5-.1.8-1.3 1.5-.9.1.5 1.3.8.9 1.5 1-.8 1.8-2.1 2.4-1.6.5.6.6 1.7.5 2.8-2.4-.8-3.1 2-3.1 2s3.9 7.3 6 14.9l-1 .5z"/><path fill="#697C4A" d="M340.4 509.4c-.2-1.2-1.9 2-1.6-1.4.3-3.4 2.1-2.1 3.7-3 1.7-.9-2.4-.6-.3-3.2s3.9-.2 5.5 1.2.2-2.1 1.3-3.8c1.1-1.7 6.4-.4 4.4 1.8-2 2.3-.1 2.8 4 2.2 4-.6 1.5 4.9-.3 5.6 0 0 .6 2.1-2.3.7-.2-.1-.4-.2-.6-.2.2-1.1 0-2.2-.5-2.8-.6-.4-1.5.9-2.4 1.6.4-.6-.8-1-.9-1.5-.6-.4-1 .8-1.5.9.1.5.2 1.1.9 1.5-1 .8-2.4-.6-3.3.2-.4.6 1.2.3.8 1-.5.1-2.2-.1-2.7.6-.2.8.5.6 1.1.6l-.4.3c-1.2 1.3-6.1 1.6-6.9-.3s2.2-.9 2-2z"/><path fill="#7F935A" d="M328.7 527c.7-6.7-.1-14.4-.1-14.4s1.7-2.8 3.7-4.9c-.4.1-.9.7-1.6.7.2-.5.5-1 .7-1.4-1 .2-1.7 1-2.4 1.4.5-.5.5-1.2.5-1.9-.7.5-1 1.4-1.4 1.4-1 .2-.7-1.9-1.7-1.4-.2.2.2 1.2.2 1.9-1-.7-1.9-2.6-2.9-1.9-1.2.7.7 2.1 1 3.3-1.7-.5-3.1-2.9-4.3-2.1-.5.6-.4 1.5.1 2.3.6.2 1 .5 1.4 1.1 1.4 2.1 4.3 0 5.5 5 .5 2.4.5 5.4.1 10.7l1.2.2z"/><path fill="#748651" d="M340 503.7c-1.4-.6-1.4-1.9-.3-2.2s.8-2.6-1.5-2.4c-2.3.2-5.1 1.2-4-2.1 1-3.3-.1-5.8-3-3.5-3 2.2-3.4 4.7-5 1.8-1.6-2.9-7.2-3.9-7-1.3.2 2.6 1.9 5.3-1.3 5s-7.5 1-4.3 5.2.7 1.8-.7 3.1-1.8 4.4 1.8 3.5c2.5-.6 4.5-1.3 5.9-.8-.5-.9-.7-1.7-.1-2.3 1.2-.7 2.6 1.7 4.3 2.1-.2-1.2-2.1-2.6-1-3.3 1-.7 1.9 1.2 2.9 1.9 0-.7-.5-1.7-.2-1.9 1-.5.7 1.7 1.7 1.4.5 0 .7-1 1.4-1.4 0 .7 0 1.4-.5 1.9.7-.5 1.4-1.2 2.4-1.4-.2.5-.5 1-.7 1.4.6 0 1.2-.5 1.6-.7 1.3-1.3 2.7-2.3 3.9-1.9 3 1.2 5.1-1.5 3.7-2.1z"/><path fill="#7F935A" d="M324.4 520.7c1.8-7 5.9-13.9 6.5-14.8 1-1.6 2.7-1.5 3.9-.5.7 0 1.4.2 1.1-.6-.4-.6-2.1-.5-2.7-.6-.4-.6 1.2-.3.8-1-1-.8-2.4.6-3.3-.2.6-.4.8-1 .9-1.5-.5-.1-.8-1.3-1.5-.9-.1.5-1.3.8-.9 1.5-1-.8-1.8-2.1-2.4-1.6-.5.6-.6 1.7-.5 2.8 2.4-.8 3.1 2 3.1 2s-3.9 7.3-6 14.9l1 .5z"/><path fill="#697C4A" d="M340.2 503.5c.2-1.2 1.9 2 1.6-1.4-.3-3.4-2.1-2.1-3.7-3-1.7-.9 2.4-.6.3-3.2s-3.9-.2-5.5 1.2-.2-2.1-1.3-3.8c-1.1-1.7-6.4-.4-4.4 1.8 2 2.3.1 2.8-4 2.2s-1.5 4.9.3 5.6c0 0-.6 2.1 2.3.7.2-.1.4-.2.6-.2-.2-1.1 0-2.2.5-2.8.6-.4 1.5.9 2.4 1.6-.4-.6.8-1 .9-1.5.6-.4 1 .8 1.5.9-.1.5-.2 1.1-.9 1.5 1 .8 2.4-.6 3.3.2.4.6-1.2.3-.8 1 .5.1 2.2-.1 2.7.6.2.8-.5.6-1.1.6l.4.3c1.2 1.3 6.1 1.6 6.9-.3.7-1.9-2.2-.8-2-2z"/><path fill="#7F935A" d="M365.8 503.4l10.4 2.9c-1.3 2.2-4.3.2-5.2 5.3-.4 2.4-.2 5.4.4 10.7l-1 .1c-1-6.7-.7-14.4-.7-14.4l-3.9-4.6z"/><path fill="#637646" d="M365.8 503.4c-1.4-1.2-2.9-2.1-4-1.7-3 1.2-5.2-1.3-3.9-2 1.3-.6 1.3-2 .2-2.2-1.1-.2-.9-2.5 1.4-2.5s5.1.9 3.9-2.3c-1.2-3.2-.2-5.8 2.9-3.7s3.6 4.5 5.1 1.5c1.5-3 7-4.3 6.9-1.6-.1 2.7-1.6 5.4 1.5 4.9 3.2-.5 7.5.7 4.5 5s-.6 1.9.9 3.1c1.5 1.2 2 4.3-1.6 3.6-2.6-.5-4.6-1-6-.5"/><path fill="#7F935A" d="M388.8 523.7c-.7-6.7.1-14.4.1-14.4s-1.7-2.8-3.7-4.9c.4.1.9.7 1.6.7-.2-.5-.5-1-.7-1.4 1 .2 1.7 1 2.4 1.4-.5-.5-.5-1.2-.5-1.9.7.5 1 1.4 1.4 1.4 1 .2.7-1.9 1.7-1.4.2.2-.2 1.2-.2 1.9 1-.7 1.9-2.6 2.9-1.9 1.2.7-.7 2.1-1 3.3 1.7-.5 3.1-2.9 4.3-2.1.5.6.4 1.5-.1 2.3-.6.2-1 .5-1.4 1.1-1.4 2.1-4.3 0-5.5 5-.5 2.4-.5 5.4-.1 10.7l-1.2.2z"/><path fill="#748651" d="M377.5 500.4c1.4-.6 1.4-1.9.3-2.2-1.1-.2-.8-2.6 1.5-2.4 2.3.2 5.1 1.2 4-2.1-1-3.3.1-5.8 3-3.5s3.4 4.7 5 1.8c1.6-2.9 7.2-3.9 7-1.3-.2 2.6-1.9 5.3 1.3 5 3.2-.3 7.5 1 4.3 5.2s-.7 1.8.7 3.1 1.8 4.4-1.8 3.5c-2.5-.6-4.5-1.3-5.9-.8.5-.9.7-1.7.1-2.3-1.2-.7-2.6 1.7-4.3 2.1.2-1.2 2.1-2.6 1-3.3-1-.7-1.9 1.2-2.9 1.9 0-.7.5-1.7.2-1.9-1-.5-.7 1.7-1.7 1.4-.5 0-.7-1-1.4-1.4 0 .7 0 1.4.5 1.9-.7-.5-1.4-1.2-2.4-1.4.2.5.5 1 .7 1.4-.6 0-1.2-.5-1.6-.7-1.3-1.3-2.7-2.3-4-1.9-2.9 1.1-5-1.5-3.6-2.1z"/><path fill="#7F935A" d="M366 517.4s-1.2-2.1-2.7-3.6c.3.1.7.5 1.2.5-.2-.4-.4-.7-.5-1.1.7.2 1.2.7 1.8 1.1-.4-.4-.4-.9-.4-1.4.5.4.7 1.1 1.1 1.1.7.2.5-1.4 1.2-1.1.2.2-.2.9-.2 1.4.7-.5 1.4-1.9 2.1-1.4.9.5-.5 1.6-.7 2.5 1.2-.4 2.3-2.1 3.2-1.6.4.5.3 1.1-.1 1.7-.4.1-.8.4-1.1.8-1 1.5-3.2 0-4.1 3.7l-.8-2.6z"/><path fill="#57683D" d="M357.6 510.8c1-.4 1.1-1.4.2-1.6-.8-.2-.6-1.9 1.1-1.8 1.7.1 3.7.9 3-1.5-.8-2.4.1-4.3 2.3-2.6 2.2 1.7 2.5 3.4 3.7 1.3 1.2-2.1 5.3-2.9 5.2-.9s-1.4 3.9.9 3.7c2.4-.2 5.5.8 3.1 3.9-2.4 3.1-.5 1.4.5 2.3 1.1 1 1.3 3.3-1.3 2.6-1.9-.5-3.3-.9-4.4-.6.4-.6.5-1.3.1-1.7-.9-.5-1.9 1.2-3.2 1.6.2-.9 1.6-1.9.7-2.5-.7-.5-1.4.9-2.1 1.4 0-.5.4-1.2.2-1.4-.7-.4-.5 1.2-1.2 1.1-.4 0-.5-.7-1.1-1.1 0 .5 0 1.1.4 1.4-.5-.4-1.1-.9-1.8-1.1.2.4.4.7.5 1.1-.5 0-.9-.4-1.2-.5-1-1-2-1.7-2.9-1.4-2.2.7-3.7-1.3-2.7-1.7z"/><path fill="#7F935A" d="M385.2 519.8c1-6.7.7-14.4.7-14.4s1.8-2.8 3.9-4.7c-.4.1-1 .6-1.6.6l.8-1.4c-1 .2-1.7.9-2.4 1.3.5-.5.5-1.2.6-1.9-.7.4-1 1.4-1.5 1.4-1 .2-.6-1.9-1.6-1.5-.3.2.2 1.2.1 1.9-.9-.8-1.8-2.7-2.8-2-1.2.7.6 2.2.8 3.4-1.6-.6-2.9-3-4.2-2.4-.6.6-.4 1.5 0 2.3.6.2 1 .6 1.4 1.2 1.3 2.2 4.3.2 5.2 5.3.4 2.4.2 5.4-.4 10.7l1 .2z"/><path fill="#748651" d="M397.7 497.1c-1.3-.6-1.3-2-.2-2.2 1.1-.2.9-2.5-1.4-2.5s-5.1.9-3.9-2.3c1.2-3.2.2-5.8-2.9-3.7-3.1 2.1-3.6 4.5-5.1 1.5-1.5-3-7-4.3-6.9-1.6.1 2.7 1.7 5.4-1.5 4.9s-7.5.7-4.5 5 .6 1.9-.9 3.1c-1.5 1.2-2 4.3 1.6 3.6 2.6-.5 4.6-1 6-.5-.4-.9-.6-1.7 0-2.3 1.2-.7 2.5 1.8 4.2 2.4-.2-1.2-2-2.7-.8-3.4 1-.7 1.8 1.3 2.8 2 0-.7-.4-1.7-.1-1.9 1-.4.6 1.7 1.6 1.5.5 0 .8-.9 1.5-1.4 0 .7-.1 1.4-.6 1.9.7-.4 1.5-1.1 2.4-1.3l-.8 1.4c.6 0 1.2-.5 1.6-.6 1.4-1.2 2.9-2.1 4-1.7 3 1.3 5.2-1.3 3.9-1.9z"/><path fill="#7F935A" d="M389.2 518.9c-1.8-7-5.9-13.9-6.5-14.8-1-1.6-2.7-1.5-3.9-.5-.7 0-1.4.2-1.1-.6.4-.6 2.1-.5 2.7-.6.4-.6-1.2-.3-.8-1 1-.8 2.4.6 3.3-.2-.6-.4-.8-.9-.9-1.5.5-.1.8-1.3 1.5-.9.1.5 1.3.8.9 1.5 1-.8 1.8-2.1 2.4-1.6.5.6.6 1.7.5 2.8-2.4-.8-3.1 2-3.1 2s3.9 7.3 6 14.9l-1 .5z"/><path fill="#697C4A" d="M373.4 501.7c-.2-1.2-1.9 2-1.6-1.4.3-3.4 2.1-2.1 3.7-3 1.7-.9-2.4-.6-.3-3.2s3.9-.2 5.5 1.2.2-2.1 1.3-3.8c1.1-1.7 6.4-.4 4.4 1.8-2 2.3-.1 2.8 4 2.2 4-.6 1.5 4.9-.3 5.6 0 0 .6 2.1-2.3.7-.2-.1-.4-.2-.6-.2.2-1.1 0-2.2-.5-2.8-.6-.4-1.5.9-2.4 1.6.4-.6-.8-1-.9-1.5-.6-.4-1 .8-1.5.9.1.5.2 1.1.9 1.5-1 .8-2.4-.6-3.3.2-.4.6 1.2.3.8 1-.5.1-2.2-.1-2.7.6-.2.8.5.6 1.1.6l-.4.3c-1.2 1.3-6.1 1.6-6.9-.3-.8-1.9 2.1-.9 2-2z"/><path fill="#7F935A" d="M389.1 528.7c-1.8-7-5.9-13.9-6.5-14.8-1-1.6-2.7-1.5-3.9-.5-.7 0-1.4.2-1.1-.6.4-.6 2.1-.5 2.7-.6.4-.6-1.2-.3-.8-1 1-.8 2.4.6 3.3-.2-.6-.4-.8-1-.9-1.5.5-.1.8-1.3 1.5-.9.1.5 1.3.8.9 1.5 1-.8 1.8-2.1 2.4-1.6.5.6.6 1.7.5 2.8-2.4-.8-3.1 2-3.1 2s3.9 7.3 6 14.9l-1 .5z"/><path fill="#697C4A" d="M373.3 511.5c-.2-1.2-1.9 2-1.6-1.4.3-3.4 2.1-2.1 3.7-3 1.7-.9-2.4-.6-.3-3.2s3.9-.2 5.5 1.2.2-2.1 1.3-3.8c1.1-1.7 6.4-.4 4.4 1.8-2 2.3-.1 2.8 4 2.2 4-.6 1.5 4.9-.3 5.6 0 0 .6 2.1-2.3.7-.2-.1-.4-.2-.6-.2.2-1.1 0-2.2-.5-2.8-.6-.4-1.5.9-2.4 1.6.4-.6-.8-1-.9-1.5-.6-.4-1 .8-1.5.9.1.5.2 1.1.9 1.5-1 .8-2.4-.6-3.3.2-.4.6 1.2.3.8 1-.5.1-2.2-.1-2.7.6-.2.8.5.6 1.1.6l-.4.3c-1.2 1.3-6.1 1.6-6.9-.3s2.1-.9 2-2z"/><path fill="#7F935A" d="M361.5 529.1c.7-6.7-.1-14.4-.1-14.4s1.7-2.8 3.7-4.9c-.4.1-.9.7-1.6.7.2-.5.5-1 .7-1.4-1 .2-1.7 1-2.4 1.4.5-.5.5-1.2.5-1.9-.7.5-1 1.4-1.4 1.4-1 .2-.7-1.9-1.7-1.4-.2.2.2 1.2.2 1.9-1-.7-1.9-2.6-2.9-1.9-1.2.7.7 2.1 1 3.3-1.7-.5-3.1-2.9-4.3-2.1-.5.6-.4 1.5.1 2.3.6.2 1.1.5 1.4 1.1 1.4 2.1 4.3 0 5.5 5l1.3 10.9z"/><path fill="#748651" d="M372.8 505.8c-1.4-.6-1.4-1.9-.3-2.2 1.1-.2.8-2.6-1.5-2.4-2.3.2-5.1 1.2-4-2.1 1-3.3-.1-5.8-3-3.5-3 2.2-3.4 4.7-5 1.8-1.6-2.9-7.2-3.9-7-1.3.2 2.6 1.9 5.3-1.3 5-3.2-.3-7.5 1-4.3 5.2s.7 1.8-.7 3.1-1.8 4.4 1.8 3.5c2.5-.6 4.5-1.3 5.9-.8-.5-.9-.7-1.7-.1-2.3 1.2-.7 2.6 1.7 4.3 2.1-.2-1.2-2.1-2.6-1-3.3 1-.7 1.9 1.2 2.9 1.9 0-.7-.5-1.7-.2-1.9 1-.5.7 1.7 1.7 1.4.5 0 .7-1 1.4-1.4 0 .7 0 1.4-.5 1.9.7-.5 1.4-1.2 2.4-1.4-.2.5-.5 1-.7 1.4.6 0 1.2-.5 1.6-.7 1.3-1.3 2.7-2.3 3.9-1.9 3 1.1 5.1-1.5 3.7-2.1z"/><path fill="#7F935A" d="M357.2 522.8c1.8-7 5.9-13.9 6.5-14.8 1-1.6 2.7-1.5 3.9-.5.7 0 1.4.2 1.1-.6-.4-.6-2.1-.5-2.7-.6-.4-.6 1.2-.3.8-1-1-.8-2.4.6-3.3-.2.6-.4.8-1 .9-1.5-.5-.1-.8-1.3-1.5-.9-.1.5-1.3.8-.9 1.5-1-.8-1.8-2.1-2.4-1.6-.5.6-.6 1.7-.5 2.8 2.4-.8 3.1 2 3.1 2s-3.9 7.3-6 14.9l1 .5z"/><path fill="#697C4A" d="M373 505.6c.2-1.2 1.9 2 1.6-1.4-.3-3.4-2.1-2.1-3.7-3-1.7-.9 2.4-.6.3-3.2s-3.9-.2-5.5 1.2-.2-2.1-1.3-3.8c-1.1-1.7-6.4-.4-4.4 1.8 2 2.3.1 2.8-4 2.2-4-.6-1.5 4.9.3 5.6 0 0-.6 2.1 2.3.7.2-.1.4-.2.6-.2-.2-1.1 0-2.2.5-2.8.6-.4 1.5.9 2.4 1.6-.4-.6.8-.9.9-1.5.6-.4 1 .8 1.5.9-.1.5-.2 1.1-.9 1.5 1 .8 2.4-.6 3.3.2.4.6-1.2.3-.8 1 .5.1 2.2-.1 2.7.6.2.8-.5.6-1.1.6l.4.3c1.2 1.3 6.1 1.6 6.9-.3.8-1.9-2.2-.8-2-2z"/><polygon fill-rule="evenodd" clip-rule="evenodd" fill="#6D6044" points="394.1,600.8 381.4,613.9 371.4,517.4 394.1,517.4"/><rect x="190.6" y="517.4" fill-rule="evenodd" clip-rule="evenodd" fill="#5F5033" width="190.7" height="96.5"/><polygon fill-rule="evenodd" clip-rule="evenodd" fill="#6D6044" points="190.6,613.9 381.4,517.4 190.6,517.4"/></svg>