<svg xmlns="http://www.w3.org/2000/svg" xmlns:xlink="http://www.w3.org/1999/xlink" width="834" height="980" viewBox="0 0 834 980"><symbol id="d" viewBox="-78 -45.798 156 91.595"><path fill="#32543D" d="M-74.3 24.002c34.6 25.9 63.6 19 89.3 12.9 16.6-4 32.4-7.7 46.5-.9 1.2-5.9 2.4-11.8 3.7-17.7 3.7-17.399 7.1-33.899 9.2-46.8-17.6-11-37.2-7.5-58-3.8-23.8 4.3-50.7 9.1-78-8l-12.7 64.3z"/><path fill="#507D5E" d="M59.1 31.402c1-4.601 1.9-9.301 2.9-13.801 3.4-16.399 6.7-32 8.8-44.5-16-9-33.6-5.8-53.8-2.199-23.3 4.199-49.3 8.899-76.3-6.101l-11.5 57.8c32.7 23.601 60.4 17 85 11.101 15.9-3.8 30.9-7.4 44.9-2.3m4.7 9.6c-34-22.1-79.8 32.3-141.7-15.7l14.1-71.1c51.9 36.7 100.8-12.4 141.7 15.6-2.8 18.7-9 46-14.1 71.2z"/><g fill="#507D5E"><path d="M1.9 11.202c-.3 0-.6 0-.9-.101l-.6-.199c-.1-.101-.2-.2-.3-.4 0-.1-.1-.3 0-.5v-.1c0-.2.1-.301.2-.5l.4-.4.6-.4c.3-.1.6-.3 1-.399l-.4 2.999"/><path d="M5.8 2.602l.5-3.1c.3 0 .6 0 .8.1.2.101.4.101.5.2.2.101.3.2.3.4.1.1.1.3 0 .5 0 .2-.1.399-.2.5 0 .2-.1.399-.3.5-.2.2-.4.3-.6.399-.3.201-.6.301-1 .501"/><path d="M3.6-.098l-.5 3.4c-1.2.4-2.3.8-3.2 1.2-.9.5-1.7.9-2.3 1.5-.7.5-1.2 1.1-1.6 1.8s-.6 1.4-.8 2.3v.101c-.1.8-.1 1.6.1 2.2.2.699.5 1.199 1 1.6s1.1.8 1.9 1c.8.2 1.7.3 2.8.3l-.2 1.601 2.9-.301.3-1.701c.6-.101 1.2-.301 1.7-.5.6-.2 1.1-.4 1.6-.601s1-.5 1.5-.8 1-.6 1.4-.9l-1.6-3.5-1 .601-1 .6-1 .5-1 .4.5-3.2c1.1-.5 2.2-.9 3.1-1.3.8-.4 1.6-.9 2.3-1.5.6-.5 1.1-1.101 1.5-1.8.4-.7.6-1.4.8-2.301.1-.899.1-1.6-.1-2.3-.2-.6-.6-1.2-1.1-1.6-.5-.4-1.2-.8-1.9-1-.8-.2-1.7-.3-2.7-.3l.4-2.801-3 .301-.3 2.8-2.2.6c-.7.2-1.4.5-2.1.8-.7.301-1.4.601-2 1-.6.4-1.2.801-1.8 1.301l2 3.5c.5-.4 1-.7 1.5-1 .5-.301 1-.601 1.4-.801l1.4-.6c.4-.299.8-.399 1.3-.599m-3.5 23c-2.3.1-4.4-.2-6.3-.9-1.9-.7-3.5-1.8-4.7-3.2-1.3-1.399-2.2-3.1-2.8-5.1-.5-1.9-.7-4.101-.3-6.5.4-2.4 1.2-4.8 2.5-7 1.2-2.2 2.8-4.3 4.7-6 1.9-1.8 4-3.3 6.3-4.4 2.3-1.1 4.7-1.899 7.2-2.1h1.2c2.3-.101 4.4.2 6.3 1 1.9.7 3.5 1.8 4.7 3.3 1.3 1.4 2.2 3.1 2.7 5.1s.6 4.101.2 6.5c-.4 2.4-1.2 4.801-2.5 7-1.2 2.2-2.8 4.2-4.7 6-1.8 1.801-3.9 3.301-6.2 4.4-2.3 1.1-4.7 1.9-7.1 2.2h-.8999999999999999c-.2-.4-.2-.3-.3-.3"/></g></symbol><symbol id="e" viewBox="-82 -49.899 164 99.8"><path fill="#32543D" d="M77.7-14.4c-21.5-22.7-65.801-52.3-131.099-12.7l-22 60c44.899-28.3 100.899-24.1 131.298 10.3l21.801-57.6z"/><path fill="#507D5E" d="M54.7 37l19-50.6c-15-15.301-32.301-25-50.5-28.2-23.1-4.2-47.9 1.6-73.801 17l-18.5 50.1c42.901-22.9 93.5-18.4 123.801 11.7m2.3 12.9c-31.2-41.1-94.5-41.6-138.7-8.5 4.9-16.301 19.1-52.2 25.5-70.7 60.9-37.5 108-18.4 137.9 14.3-7.099 14.7-12.2 31.9-24.7 64.9z"/><path fill="#507D5E" d="M3-8.1c-.399-.1-.7-.2-.899-.3-.202-.1-.401-.3-.5-.4-.101-.1-.202-.3-.202-.5v-.6l.202-.5c.099-.1.199-.3.399-.4.2-.1.399-.2.7-.3.3-.1.699-.1 1.1-.2l-.8 3.2"/><path fill="#507D5E" d="M8.3-16.3l.9-3.1c.3.1.6.2.8.3.2.1.399.199.5.399.101.101.2.3.2.5s0 .4-.1.601v.1c-.1.2-.1.4-.201.5l-.399.4c-.2.1-.399.199-.7.3-.3-.1-.6-.1-1 0"/><path fill="#507D5E" d="M6.399-19.6l-1 3.399c-1.298.101-2.399.301-3.399.501s-1.899.5-2.601.9c-.699.4-1.399.9-1.899 1.5-.5.7-.899 1.4-1.101 2.3v.1c-.298.8-.399 1.6-.298 2.4.1.7.399 1.4.799 2 .499.6 1.1 1.1 1.9 1.5.801.4 1.7.8 2.801 1l-.5 1.6 3 .4.5-1.7c.6 0 1.199 0 1.799-.1.701 0 1.3-.1 1.8-.2l1.699-.4 1.601-.6-1.3-4.1c-.301 0-.7.199-1.1.3-.3.2-.701.3-1.1.4-.399.1-.7.2-1.101.2l-1.099.2 1-3.3c1.2-.101 2.301-.3 3.301-.5s1.799-.601 2.6-1c.699-.4 1.3-.9 1.8-1.601.5-.6.899-1.399 1.101-2.3v-.1c.299-.9.299-1.7.199-2.4s-.4-1.399-.9-2c-.5-.6-1.1-1.1-1.799-1.5-.801-.399-1.601-.8-2.701-1l.801-2.8-3.1-.4-.902 2.901c-.7 0-1.5 0-2.2.1l-2.3.3c-.7.1-1.5.3-2.2.6-.7.2-1.399.5-2.101.8l1.801 4.2c.6-.3 1.1-.5 1.699-.7.5-.2 1.101-.4 1.601-.5l1.5-.3c.399-.1.899-.1 1.399-.1m-5.5 23.6h-.399c-2.5-.4-4.8-1.2-6.7-2.4-2-1.2-3.6-2.7-4.8-4.6-1.2-1.8-2-3.9-2.3-6.2-.301-2.3-.1-4.7.6-7.2s1.9-4.699 3.5-6.699c1.5-2 3.4-3.801 5.6-5.2 2.101-1.4 4.5-2.5 6.9-3.101 2.4-.6 5-.899 7.5-.6h.401c2.5.3 4.8 1.2 6.8 2.4 1.899 1.199 3.5 2.8 4.7 4.6 1.199 1.8 1.9 4 2.199 6.2.3 2.3.1 4.7-.7 7.2-.7 2.4-1.9 4.7-3.5 6.7-1.5 2-3.4 3.7-5.5 5.101-2.1 1.399-4.4 2.5-6.9 3.1-2.3.699-4.8.999-7.401.699"/></symbol><symbol id="c" viewBox="-80 -53.851 160 107.703"><path fill="#32543D" d="M75.9-48.261c-6.5-2.4-27.1-7-55.3 15.5-18.2 14.5-37.8 13.899-51 10.7-15.9-3.801-29.5-12.601-37.1-20.301l-8.6 68c3.6 6.2 18.5 18.5 37.5 23 11.7 2.801 29 3.4 45-9.399 28.9-23.101 51.3-20 60.6-17.101l8.9-70.399z"/><path fill="#507D5E" d="M-64.8-35.061l-7.6 60c4.1 5.699 17.8 16.3 34.7 20.3 15.9 3.8 30.1.8 42-8.7 26.4-21.2 48-21.2 59.7-18.7l8-63.6c-7.8-2-25.6-3.101-49.2 15.8-15.3 12.2-34 16.2-54.1 11.4-12.7-3.1-24.9-9.6-33.5-16.5m-5.1-16.2c6 13 52.3 44.6 88.4 15.7 36.1-28.9 61.3-14.9 61.3-14.9l-9.8 77.6s-25.2-14-61.3 14.9c-36.1 28.9-82.4-2.7-88.4-15.7l9.8-77.6z"/><g fill="#507D5E"><path d="M3.7 1.839h.9c.3.101.4.2.6.3.1.101.2.2.3.4.1.1.1.3 0 .5v.1c0 .2-.1.4-.1.5l-.4.4c-.1.1-.4.3-.6.4-.3.199-.6.3-1 .5l.3-3.1"/><path d="M.1 10.839l-.4 3.2h-.8c-.2 0-.4-.1-.6-.2-.1-.1-.2-.2-.3-.399 0-.2-.1-.4 0-.601v-.1c0-.2.1-.4.2-.5.1-.2.2-.3.4-.5l.6-.5c.2-.1.5-.2.9-.4"/><path d="M2.5 13.439l.4-3.4c1.1-.5 2.2-1 3.1-1.4.9-.5 1.7-1 2.3-1.6.7-.6 1.2-1.2 1.5-1.9.4-.699.6-1.5.7-2.399v-.101c.1-.8 0-1.6-.2-2.3-.2-.6-.6-1.2-1.1-1.6-.5-.4-1.2-.7-2-.9-.8-.2-1.8-.3-2.8-.2l.1-1.6-3 .5-.1 1.7c-.6.1-1.2.3-1.8.5l-1.6.7-1.5.899s-1 .7-1.4 1l1.9 3.5c.3-.3.6-.5 1-.7l1-.6s.7-.4 1-.5c.3-.2.7-.3 1-.4l-.4 3.2c-1.2.4-2.2.9-3.1 1.4s-1.7 1-2.3 1.6c-.6.601-1.1 1.2-1.5 1.9-.4.7-.6 1.5-.7 2.399v.101c-.1.899 0 1.6.2 2.3.2.7.6 1.2 1.2 1.6.5.4 1.2.7 2 .9.8.2 1.7.2 2.7.2l-.3 2.8 3-.4.3-2.899c.7-.2 1.4-.4 2.1-.7l2.1-.9c.7-.3 1.4-.699 2-1.1.6-.4 1.3-.8 1.8-1.3l-2.2-3.4c-.5.4-1 .8-1.5 1.101l-1.4.899s-.9.5-1.4.7c-.2.1-.7.2-1.1.4m2.6-23.5c2.3-.2 4.5 0 6.5.699 1.9.601 3.6 1.7 5 3.101 1.4 1.399 2.4 3.1 3 5 .6 2 .8 4.2.6 6.6-.3 2.5-1 5-2.2 7.3-1.2 2.301-2.7 4.5-4.5 6.4s-3.9 3.5-6.2 4.8c-2.3 1.2-4.7 2.101-7.2 2.5h-1.2c-2.4.2-4.5 0-6.5-.7-1.9-.699-3.6-1.699-4.9-3.1s-2.3-3.1-2.9-5.1-.8-4.2-.5-6.601c.3-2.5 1.1-4.899 2.2-7.2 1.2-2.3 2.7-4.399 4.5-6.3 1.8-1.899 3.9-3.5 6.2-4.7 2.1-1.399 4.5-2.199 7-2.6h.8999999999999999c0-.099.1-.099.2-.099"/></g></symbol><symbol id="b" viewBox="-79 -45.908 158 91.816"><path fill="#32543D" d="M-74.8 34.107c18.4 10.5 38.3 6.101 59.3 1.4 24.1-5.3 51.3-11.4 79.9 5l10.4-66.2c-36.4-25-65.8-16.8-91.7-9.5-16.8 4.7-32.8 9.2-47.4 2.9l-10.5 66.4z"/><path fill="#507D5E" d="M-71.2 32.208c16.7 8.5 34.5 4.6 55 0 23.6-5.2 50-11.101 78.1 3.1l9.3-59.399c-34.4-22.7-62.4-14.801-87.2-7.9-16 4.5-31.2 8.8-45.7 4.2l-9.5 59.999zm9.5-60-5.2-9.601c35.6 21.101 80.1-36.199 145.3 10.101l-11.5 73.2c-54.5-35.301-102.4 16.8-145.3-10.1 2.2-19.201 7.3-47.3 11.5-73.201z"/><g fill="#507D5E"><path d="M-2.5-9.592h.9c.2 0 .4.1.6.199.1.101.2.2.3.4.1.1.1.3 0 .5v.1c0 .2-.1.4-.1.5-.1.2-.2.4-.4.5l-.6.4c-.3.2-.6.3-1 .5l.3-3.099"/><path d="M-6.1-.592l-.4 3.199h-.8c-.2 0-.4-.1-.6-.199-.1-.2-.2-.301-.3-.4-.1-.2-.1-.3 0-.5v-.1c0-.2.1-.4.2-.5 0-.2.1-.4.3-.5l.6-.5c.3-.2.6-.301 1-.5"/><path d="M-3.7 2.008l.4-3.4c1.2-.399 2.2-.899 3.2-1.399.9-.5 1.7-1 2.3-1.601.6-.6 1.1-1.199 1.4-1.899.4-.7.6-1.5.7-2.4v-.1c.1-.8 0-1.601-.2-2.3-.2-.601-.6-1.2-1.1-1.601-.5-.399-1.2-.8-2-.899-.8-.2-1.8-.2-2.9-.101l.2-1.6-3 .5-.2 1.7c-.6.199-1.2.3-1.7.6-.6.2-1.1.5-1.6.7l-1.5.899c-.5.301-1 .7-1.4 1l1.9 3.5c.3-.3.6-.5 1-.699l1-.601c.3-.2.7-.399 1-.5.3-.2.7-.3 1-.399l-.4 3.3c-1.2.399-2.2.899-3.1 1.399-.9.5-1.7 1-2.3 1.601-.6.6-1.1 1.2-1.5 1.899-.4.7-.6 1.5-.7 2.4v.1c-.1.9 0 1.601.2 2.301.2.699.6 1.199 1.2 1.6.5.4 1.2.7 2 .9l2.7-.101-.3 2.8 3-.399.3-2.9c.7-.2 1.4-.399 2.1-.7l2.1-.899c.7-.3 1.4-.7 2-1.101.7-.399 1.4-.8 1.9-1.3l-2.1-3.4c-.5.399-1 .8-1.5 1.1s-.9.6-1.4.8c-.5.3-.9.5-1.4.7-.4.2-.9.4-1.3.5m2.6-23.5c2.3-.2 4.5 0 6.5.7 1.9.6 3.6 1.7 5 3.1 1.4 1.4 2.4 3.101 3 5 .6 2 .8 4.2.6 6.601-.3 2.5-1 5-2.2 7.3-1.3 2.2-2.8 4.399-4.6 6.3-1.9 1.9-4 3.5-6.3 4.7-2.3 1.2-4.7 2.1-7.2 2.5h-1.2c-2.4.2-4.5 0-6.5-.7-1.9-.7-3.6-1.7-4.9-3.1-1.3-1.4-2.3-3.101-2.9-5.101-.6-2-.8-4.2-.5-6.6.3-2.5 1.1-4.9 2.2-7.2 1.2-2.3 2.7-4.4 4.5-6.3 1.8-1.9 3.9-3.5 6.2-4.7 2.2-1.2 4.7-2.1 7.2-2.5h1.0999999999999999"/></g></symbol><symbol id="a" viewBox="-92 -53.8 184 107.598"><path fill="#32543D" d="M-84.8 23.278c11.7-1.6 22.5 6.4 32.3 13.7 15.1 11.1 28.1 20.7 44.5 4.1 28.3-28.5 53.2-16.5 62.7-9.899l32.3-73.5c-6.4-5-28.2-18.2-54.3 8.2-21 21.199-39.5 7.5-54.4-3.5-11.3-8.4-21.3-15.801-31.7-10.601l-31.4 71.5z"/><path fill="#507D5E" d="M53.1 25.679l29.301-66.7c-7.601-5-25.4-12.2-47 9.6-23.301 23.499-44.101 8.1-59.301-3.1-11.3-8.5-19-13.7-26.6-10.9l-28.5 64.8c10.7 1.1 20.4 8.3 28.7 14.5 16.7 12.399 26.1 18.199 39.6 4.6 27.1-27.3 51.5-19.8 63.8-12.8m3.2 11.5s-27.8-27.5-61.6 6.6c-33.8 34-57.3-30.8-86.3-14.2l35.399-80.5c29-16.6 52.601 48.301 86.4 14.2 33.8-34.1 61.6-6.6 61.6-6.6l-35.499 80.5z"/><path fill="#507D5E" d="M4.8 10.278c-.3.101-.5.101-.7.2-.199 0-.3 0-.399-.1-.101-.1-.101-.199-.101-.3 0-.1.101-.3.101-.5l.3-.6.5-.5c.2-.1.4-.3.7-.5s.6-.4 1-.6l-1.401 2.9"/><path fill="#507D5E" d="M11 1.179l1.4-3c.3-.101.5-.2.699-.2.2 0 .301 0 .4.1.1.101.1.2.1.301 0 .1-.1.3-.1.5-.1.199-.2.399-.3.5-.2.3-.4.399-.601.6-.199.2-.399.4-.699.5-.199.199-.499.499-.899.699"/><path fill="#507D5E" d="M9.9-.821l-1.5 3.399c-1.2.601-2.2 1.2-3.101 1.9-.899.6-1.8 1.3-2.5 2-.7.6-1.399 1.3-1.899 2-.601.7-1 1.5-1.4 2.4v.1c-.5.8-.7 1.5-.7 2 0 .6.101 1 .4 1.3s.7.5 1.399.5c.601 0 1.4-.1 2.301-.399l-.7 1.6 2.6-1 .8-1.6 1.601-.9s1.1-.6 1.6-1 1.101-.7 1.601-1.1l1.5-1.2-.4-2.9c-.3.3-.7.601-1.1.9l-1.101.8c-.3.1-.7.3-1 .5s-.7.4-1 .6l1.5-3.199c1.099-.602 2.099-1.302 3.099-1.901.899-.6 1.699-1.3 2.5-1.9.6-.699 1.3-1.399 1.8-2.1.6-.7 1-1.5 1.399-2.4v-.1c.4-.8.601-1.5.601-2.1 0-.601-.101-1-.4-1.301-.3-.3-.8-.399-1.3-.5-.6 0-1.3.101-2.2.4l1.3-2.7-2.699 1-1.301 2.8c-.699.301-1.3.7-2 1.101-.6.399-1.3.8-2 1.3-.699.5-1.399.9-2.1 1.5-.6.5-1.3 1-2 1.6l.6 2.801c.601-.5 1.101-1 1.601-1.4s1-.8 1.5-1.1c.5-.301 1-.601 1.399-.9.5-.301.9-.501 1.3-.801m-9.4 22.2c-2.3.899-4.2 1.199-5.7 1.1s-2.7-.7-3.399-1.7c-.7-1-1.101-2.399-.9-4.1.1-1.8.7-3.9 1.8-6.2 1.101-2.4 2.601-4.8 4.4-7.2 1.8-2.399 3.8-4.7 6-6.899 2.2-2.101 4.5-4.101 6.8-5.7 2.3-1.601 4.7-2.9 6.9-3.8 2.199-.801 4.1-1.2 5.6-1 1.5.1 2.6.8 3.3 1.8s1 2.399.8 4.2c-.199 1.8-.8 3.8-1.899 6.199-1.101 2.4-2.601 4.801-4.4 7.101-1.8 2.399-3.8 4.6-5.899 6.7-2.101 2.1-4.4 4-6.7 5.6-2.203 1.699-4.503 2.999-6.703 3.899"/></symbol><use xlink:href="#a" width="184" height="107.598" x="-92" y="-53.8" transform="matrix(.445 -.268 -.268 -.445 88.232 529.911)" overflow="visible"/><use xlink:href="#b" width="158" height="91.816" x="-79" y="-45.908" transform="matrix(.467 -.39 -.39 -.467 146.594 247.576)" overflow="visible"/><use xlink:href="#c" width="160" height="107.703" x="-80" y="-53.851" transform="matrix(.424 -.378 -.378 -.424 54.032 235.559)" overflow="visible"/><use xlink:href="#a" width="184" height="107.598" x="-92" y="-53.8" transform="matrix(.493 -.328 -.328 -.493 604.33 923.378)" overflow="visible" enable-background="new"/><use xlink:href="#a" width="184" height="107.598" x="-92" y="-53.8" transform="matrix(.43 .291 .291 -.43 226.293 511.341)" overflow="visible" enable-background="new"/><use xlink:href="#a" width="184" height="107.598" x="-92" y="-53.8" transform="matrix(.445 -.268 -.268 -.445 723.783 444.148)" overflow="visible" enable-background="new"/><use xlink:href="#a" width="184" height="107.598" x="-92" y="-53.8" transform="matrix(.445 -.268 -.268 -.445 390.19 889.191)" overflow="visible" enable-background="new"/><use xlink:href="#b" width="158" height="91.816" x="-79" y="-45.908" transform="matrix(.467 -.39 -.39 -.467 779.574 255.649)" overflow="visible" enable-background="new"/><use xlink:href="#b" width="158" height="91.816" x="-79" y="-45.908" transform="matrix(.32 .517 .517 -.32 504.26 752.183)" overflow="visible" enable-background="new"/><use xlink:href="#d" width="156" height="91.595" x="-78" y="-45.798" transform="matrix(-.328 -.54 -.54 .328 351.123 288.232)" overflow="visible"/><use xlink:href="#d" width="156" height="91.595" x="-78" y="-45.798" transform="matrix(-.328 -.54 -.54 .328 468.433 56.862)" overflow="visible" enable-background="new"/><use xlink:href="#e" width="164" height="99.8" x="-82" y="-49.899" transform="matrix(.697 .342 .342 -.697 488.768 413.185)" overflow="visible"/><use xlink:href="#e" width="164" height="99.8" x="-82" y="-49.899" transform="matrix(.18 .544 .544 -.18 191.571 118.479)" overflow="visible" enable-background="new"/><use xlink:href="#e" width="164" height="99.8" x="-82" y="-49.899" transform="matrix(.259 -.511 -.511 -.259 678.599 623.127)" overflow="visible" enable-background="new"/><use xlink:href="#e" width="164" height="99.8" x="-82" y="-49.899" transform="matrix(.426 .383 .383 -.426 214.178 812.01)" overflow="visible" enable-background="new"/><use xlink:href="#c" width="160" height="107.703" x="-80" y="-53.851" transform="matrix(.595 .368 .368 -.595 230.496 348.919)" overflow="visible" enable-background="new"/><use xlink:href="#c" width="160" height="107.703" x="-80" y="-53.851" transform="matrix(.424 -.378 -.378 -.424 713.75 129.799)" overflow="visible" enable-background="new"/><use xlink:href="#c" width="160" height="107.703" x="-80" y="-53.851" transform="matrix(.424 -.378 -.378 -.424 364.063 597.261)" overflow="visible" enable-background="new"/><use xlink:href="#c" width="160" height="107.703" x="-80" y="-53.851" transform="matrix(.424 -.378 -.378 -.424 544.693 266.435)" overflow="visible" enable-background="new"/></svg>